<svg xmlns="http://www.w3.org/2000/svg" xmlns:xlink="http://www.w3.org/1999/xlink" width="97" height="97" viewBox="0 0 97 97">
  <defs>
    <linearGradient id="linear-gradient" x1="0.5" x2="0.5" y2="1" gradientUnits="objectBoundingBox">
      <stop offset="0" stop-color="#c03875"/>
      <stop offset="1" stop-color="#e99abd"/>
    </linearGradient>
    <linearGradient id="linear-gradient-2" x1="0.5" x2="0.5" y2="1" gradientUnits="objectBoundingBox">
      <stop offset="0" stop-color="#c4427c"/>
      <stop offset="1" stop-color="#d976a2"/>
    </linearGradient>
  </defs>
  <g id="telecon" transform="translate(-457 -422)">
    <circle id="Ellipse_397" data-name="Ellipse 397" cx="48.5" cy="48.5" r="48.5" transform="translate(457 422)" fill="url(#linear-gradient)"/>
    <circle id="Ellipse_392" data-name="Ellipse 392" cx="42.5" cy="42.5" r="42.5" transform="translate(463 428)" fill="#fff"/>
    <path id="Icon_material-videocam" data-name="Icon material-videocam" d="M31.3,17.615v-6.7A1.92,1.92,0,0,0,29.388,9H6.414A1.92,1.92,0,0,0,4.5,10.914V30.059a1.92,1.92,0,0,0,1.914,1.914H29.388A1.92,1.92,0,0,0,31.3,30.059v-6.7l7.658,7.658V9.957Z" transform="translate(483.832 450.024)" fill="url(#linear-gradient-2)"/>
  </g>
</svg>
