<svg xmlns="http://www.w3.org/2000/svg" xmlns:xlink="http://www.w3.org/1999/xlink" width="1085.845" height="150" viewBox="0 0 1085.845 150">
  <defs>
    <radialGradient id="radial-gradient" cx="0.5" cy="0.5" r="0.5" gradientTransform="translate(0)" gradientUnits="objectBoundingBox">
      <stop offset="0" stop-color="#1485ff"/>
      <stop offset="0.045" stop-color="#127aeb"/>
      <stop offset="0.198" stop-color="#0d5aad"/>
      <stop offset="0.35" stop-color="#093f78"/>
      <stop offset="0.498" stop-color="#06284d"/>
      <stop offset="0.639" stop-color="#03162b"/>
      <stop offset="0.773" stop-color="#010a13"/>
      <stop offset="0.897" stop-color="#000205"/>
      <stop offset="1"/>
    </radialGradient>
    <radialGradient id="radial-gradient-2" cx="0.5" cy="0.5" r="0.5" xlink:href="#radial-gradient"/>
    <radialGradient id="radial-gradient-3" cx="0.5" cy="0.5" r="0.5" xlink:href="#radial-gradient"/>
    <radialGradient id="radial-gradient-4" cx="0.5" cy="0.5" r="0.5" xlink:href="#radial-gradient"/>
    <radialGradient id="radial-gradient-5" cx="0.5" cy="0.5" r="0.5" xlink:href="#radial-gradient"/>
    <radialGradient id="radial-gradient-6" cx="0.5" cy="0.5" r="0.5" xlink:href="#radial-gradient"/>
    <radialGradient id="radial-gradient-7" cx="0.5" cy="0.5" r="0.5" xlink:href="#radial-gradient"/>
    <radialGradient id="radial-gradient-8" cx="0.5" cy="0.5" r="0.5" xlink:href="#radial-gradient"/>
    <radialGradient id="radial-gradient-9" cx="0.5" cy="0.5" r="0.5" xlink:href="#radial-gradient"/>
    <radialGradient id="radial-gradient-10" cx="0.5" cy="0.5" r="0.5" gradientTransform="matrix(0.161, 0.987, -0.987, 0.161, 0.913, -0.074)" xlink:href="#radial-gradient"/>
  </defs>
  <g id="Group_889" data-name="Group 889" transform="translate(-298.463 -11.407)" opacity="0.54">
    <g id="Group_872" data-name="Group 872" transform="translate(298.463 11.407)" style="mix-blend-mode: overlay;isolation: isolate">
      <g id="Group_869" data-name="Group 869" transform="translate(0 5.398)" opacity="0.2">
        <path id="Path_770" data-name="Path 770" d="M298.463,96.407l13.9,20.835h27.8L353.9,96.653h27.145L394.615,117l-13.732,20.586,13.9,20.832h27.807l13.9-20.832L422.747,117l13.577-20.345H463.8l13.73-20.584h27.151l13.569,20.338L504.512,117l13.9,20.833h27.8l13.74-20.589h27.141l13.736,20.589h27.8l13.742-20.589h27.47l13.734-20.589h27.145L724.294,117l-13.74,20.586,13.9,20.832h27.8l13.73-20.584h27.482l13.732-20.589h27.143l13.732,20.589h27.478L889.3,158.415h27.8l13.736-20.584h27.472l13.736-20.589h27.145l13.736,20.589h27.8L1054.631,117l-13.742-20.586,13.575-20.343h27.142l13.571,20.343L1081.441,117l13.9,20.833h27.807l13.732-20.589h27.145l13.738,20.589h27.474l13.736,20.584h27.8l13.9-20.832L1246.941,117l13.571-20.342h27.143l13.736,20.586H1329.2l13.734-20.586H1370.4l13.9-20.835-13.9-20.838H1342.6l-13.732,20.592H1301.72l-13.571-20.347,13.738-20.581-13.9-20.835h-27.8l-13.9,20.835,13.738,20.581-13.573,20.347h-27.474l-13.736,20.589h-27.145l-13.571-20.343,13.732-20.592-13.9-20.828h-27.8l-13.736,20.582h-27.145L1081.939,34.4h-27.8L1040.4,54.983h-27.474L999.188,75.575H972.043L958.472,55.229l13.736-20.581-13.9-20.835H930.5L916.772,34.4H889.3L875.558,54.983H848.415L834.685,34.4h-27.48L793.473,13.813h-27.8L751.93,34.4H724.458L710.722,54.983H683.578L669.844,34.4h-27.8l-13.9,20.828,13.738,20.592L628.3,96.161H601.16l-13.575-20.34,13.74-20.592L587.424,34.4h-27.8l-13.74,20.582H518.74L505.006,34.4H477.528L463.8,13.813H436L422.089,34.648l13.742,20.581L422.253,75.575H395.113L381.375,54.983h-27.8l-13.74,20.592H312.366Zm96.152-20.586-6.782,10.171-6.79,10.169H353.9l-6.776-10.169-6.8-10.171L353.9,55.478h27.145Zm82.416-41.173-6.778,10.169-6.786,10.166H436.324L422.747,34.648,436.324,14.3h27.143Zm41.218,20.581L511.459,65.4l-6.78,10.172H477.528L470.743,65.4l-6.784-10.174,6.784-10.166L477.528,34.9h27.151Zm82.42,0L587.093,75.575H559.952L553.163,65.4l-6.786-10.174L559.952,34.9h27.141Zm0,41.178-6.786,10.172-6.79,10.172H559.952l-6.79-10.172-6.786-10.172,6.786-10.171,6.79-10.167h27.141Zm82.414-41.178L676.3,65.4l-6.788,10.172H642.374L628.8,55.229,642.374,34.9h27.139Zm-6.288,30.763-6.786-10.171,6.786-10.174,6.784-10.169h27.145L717.5,65.647l6.79,10.174L717.5,85.992l-6.782,10.169H683.578Zm47.994-51.1H751.93l6.786,10.167L765.5,55.229,751.93,75.575H724.788L718,65.4,711.22,55.229Zm27.639,40.926,13.565-20.343h27.151l13.575,20.343-13.575,20.34H765.992Zm48,30.758L793.64,96.407l13.565-20.338h27.143l13.575,20.338-7.568,11.344-6.008,9H807.205Zm47.992-10.415L834.842,75.823l13.585-20.345h27.131l6.788,10.171,6.786,10.172L875.558,96.164Zm27.637.248,13.573-20.343h27.145l13.571,20.343-13.571,20.34h-27.15ZM806.717,34.648,793.142,54.983H765.992l-6.78-10.166-6.786-10.169L765.992,14.3h27.151Zm41.206,20.586L834.348,75.575H807.205L793.64,55.239l13.24-19.85.325-.494H834.35Zm41.7-20.338h27.145l6.78,10.167,6.792,10.166L923.552,65.4l-6.78,10.172H889.627L882.842,65.4l-6.788-10.174Zm81.922-.248L957.98,54.983H930.835l-6.79-10.166-6.784-10.169L930.835,14.3H957.98Zm0,41.173-6.786,10.172L957.98,96.164H930.835L917.262,75.821l6.784-10.172,6.79-10.171H957.98Zm-6.292,30.758-6.786-10.167,6.786-10.176,6.786-10.167h27.145l6.786,10.167,6.79,10.176-6.79,10.167-6.786,10.172H972.043Zm129.921-51.351L1088.4,65.4l-6.788,10.172h-27.142l-6.79-10.172-6.786-10.174L1054.465,34.9h27.142Zm82.416,0-13.569,20.347H1136.88L1130.095,65.4l-6.784-10.174L1136.88,34.9h27.145Zm0,41.183-6.782,10.167-6.788,10.172H1136.88l-6.786-10.172-6.784-10.167,6.784-10.176,6.786-10.167h27.145Zm123.63-61.764-13.569,20.335h-27.143l-13.571-20.335L1260.512,14.3h27.143Zm0,41.173-6.782,10.172-6.787,10.171h-27.143l-6.788-10.171-6.784-10.172,13.571-20.343h27.143Zm68.848,20.343H1342.93l-6.786-10.171-6.784-10.172,13.569-20.343h27.143l13.575,20.343Zm-81.924.248,6.786-10.176,6.786-10.167h27.147l6.782,10.167,6.788,10.176-13.569,20.34H1301.72Zm-28.128,0-13.573,20.34H1219.3l-6.782-10.172-6.789-10.167L1219.3,76.069h27.146l6.786,10.167Zm-54.291,41.171,6.789-10.171,6.782-10.171h27.146l13.573,20.341-13.573,20.34H1219.3ZM1164.521,117l6.786-10.171,6.786-10.171h27.145l6.786,10.171L1218.806,117l-6.784,10.171-6.786,10.167h-27.145Zm-82.418,0,13.569-20.342h27.145l6.786,10.171L1136.389,117l-13.571,20.338h-27.145Zm0-41.177,6.784-10.172,6.786-10.171h27.145l6.786,10.171,6.786,10.172L1129.6,85.994l-6.786,10.171h-27.145Zm-28.13,0L1040.4,96.164h-27.142l-6.784-10.171L999.68,75.821l13.575-20.343H1040.4l6.788,10.171ZM999.68,117l6.792-10.171,6.784-10.171H1040.4L1053.973,117,1040.4,137.336h-27.142Zm-41.7,20.338H930.835l-6.79-10.167L917.262,117l13.573-20.342H957.98l6.784,10.171L971.549,117Zm-81.926.248,3.542-5.313,10.031-15.028h27.145l6.78,10.171,6.792,10.171-13.571,20.34H889.627ZM834.842,117l6.127-9.19,7.446-11.154h27.143L889.131,117l-13.573,20.335H848.415Zm-41.7,20.335H765.992l-6.78-10.167L752.426,117l6.786-10.174,6.78-10.171h27.151l6.786,10.171L806.717,117Zm-81.922.248,13.567-20.341H751.93l6.786,10.171,6.788,10.171-13.573,20.34H724.788Zm0-41.177L718,86.236l6.786-10.167H751.93L765.5,96.407l-6.788,10.172-6.786,10.172H724.788Zm-41.708,20.345H642.374l-6.788-10.172L628.8,96.407l13.575-20.338h27.139L676.3,86.236l6.782,10.171ZM587.585,117l6.789-10.174,6.786-10.171H628.3l6.786,10.171L641.876,117,628.3,137.336H601.16Zm-82.414,0L518.74,96.653h27.141l6.788,10.171L559.454,117l-13.573,20.338H518.74Zm0-41.177,6.786-10.174,6.784-10.169h27.141l6.788,10.169,6.786,10.174-6.786,10.171-6.788,10.169H518.74Zm-41.7,20.34H436.324l-6.786-10.169-6.792-10.171,13.577-20.343h27.143l6.786,10.169,6.778,10.174Zm-81.926,41.422,13.571-20.341h27.141l13.577,20.341-13.577,20.34H395.113Zm0-41.177,6.784-10.171,6.788-10.167h27.141l6.792,10.167,6.786,10.171-13.577,20.345H395.113Zm-82.416,0,13.567-20.338h27.145l6.788,10.167,6.782,10.171-13.569,20.345H312.693Z" transform="translate(-298.463 -13.813)" fill="#fff"/>
        <g id="Group_868" data-name="Group 868" transform="translate(2.087 1.806)">
          <path id="Path_771" data-name="Path 771" d="M869.613,90.4l14.871-25.752L869.613,38.893H839.882L825.012,64.652,839.882,90.4Z" transform="translate(197.184 -3.103)" fill="#fff" opacity="0.8"/>
          <path id="Path_772" data-name="Path 772" d="M848.594,102.542,863.461,76.79,848.594,51.035H818.855L803.986,76.79l14.869,25.752Z" transform="translate(171.043 2.658)" fill="#fff" opacity="0.5"/>
          <path id="Path_773" data-name="Path 773" d="M743.467,90.4l14.866-25.752L743.467,38.893H713.732L698.863,64.652,713.732,90.4Z" transform="translate(78.006 -3.103)" fill="#fff" opacity="0.8"/>
          <path id="Path_774" data-name="Path 774" d="M806.542,126.814l14.868-25.751L806.542,75.314H776.8l-14.864,25.749L776.8,126.814Z" transform="translate(118.764 14.178)" fill="#fff" opacity="0.8"/>
          <path id="Path_775" data-name="Path 775" d="M827.57,90.4l14.864-25.752L827.57,38.893H797.833L782.962,64.652,797.833,90.4Z" transform="translate(144.903 -3.103)" fill="#fff" opacity="0.8"/>
          <path id="Path_776" data-name="Path 776" d="M827.57,66.119,842.434,40.37,827.57,14.618H797.833L782.962,40.37l14.871,25.749Z" transform="translate(144.903 -14.618)" fill="#fff" opacity="0.5"/>
          <path id="Path_777" data-name="Path 777" d="M806.542,102.542,821.41,76.79,806.542,51.035H776.8L761.939,76.79,776.8,102.542Z" transform="translate(118.764 2.658)" fill="#fff" opacity="0.5"/>
          <path id="Path_778" data-name="Path 778" d="M785.514,114.678l14.871-25.75L785.514,63.174H755.782L740.913,88.928l14.869,25.75Z" transform="translate(117.732 5.214)" fill="#fff" opacity="0.3"/>
          <path id="Path_779" data-name="Path 779" d="M743.467,114.678l14.866-25.75L743.467,63.174H713.732L698.863,88.928l14.869,25.75Z" transform="translate(78.006 5.214)" fill="#fff" opacity="0.3"/>
          <path id="Path_780" data-name="Path 780" d="M764.492,102.542,779.361,76.79,764.492,51.035H734.755L719.889,76.79l14.866,25.752Z" transform="translate(97.869 2.658)" fill="#fff" opacity="0.5"/>
          <path id="Path_781" data-name="Path 781" d="M764.492,78.261,779.361,52.5,764.492,26.757H734.755L719.889,52.5l14.866,25.759Z" transform="translate(97.869 -5.656)" fill="#fff" opacity="0.8"/>
          <path id="Path_782" data-name="Path 782" d="M722.445,78.261,737.313,52.5,722.445,26.757H692.712L677.837,52.5l14.875,25.759Z" transform="translate(58.141 -5.656)" fill="#fff" opacity="0.5"/>
          <path id="Path_783" data-name="Path 783" d="M680.391,102.542,695.262,76.79,680.391,51.035H650.654L635.79,76.79l14.864,25.752Z" transform="translate(18.417 2.658)" fill="#fff" opacity="0.3"/>
          <path id="Path_784" data-name="Path 784" d="M701.417,114.678l14.869-25.75L701.417,63.174H671.682L656.813,88.928l14.868,25.75Z" transform="translate(38.279 5.214)" fill="#fff" opacity="0.5"/>
          <path id="Path_785" data-name="Path 785" d="M638.342,126.814l14.869-25.751L638.342,75.314H608.607l-14.869,25.749,14.869,25.751Z" transform="translate(-21.311 14.178)" fill="#fff" opacity="0.8"/>
          <path id="Path_786" data-name="Path 786" d="M617.321,90.4l14.873-25.752L617.321,38.893H587.581L572.713,64.652,587.581,90.4Z" transform="translate(-41.176 -3.103)" fill="#fff" opacity="0.8"/>
          <path id="Path_787" data-name="Path 787" d="M659.366,114.678l14.864-25.75L659.366,63.174H629.629L614.765,88.928l14.864,25.75Z" transform="translate(-1.446 5.214)" fill="#fff" opacity="0.5"/>
          <path id="Path_788" data-name="Path 788" d="M638.342,78.261,653.21,52.5,638.342,26.757H608.607L593.738,52.5l14.869,25.759Z" transform="translate(-21.311 -5.656)" fill="#fff" opacity="0.5"/>
          <path id="Path_789" data-name="Path 789" d="M659.366,90.4,674.23,64.652,659.366,38.893H629.629L614.765,64.652,629.629,90.4Z" transform="translate(-1.446 -3.103)" fill="#fff" opacity="0.8"/>
          <path id="Path_790" data-name="Path 790" d="M659.366,66.119,674.23,40.37,659.366,14.618H629.629L614.765,40.37l14.864,25.749Z" transform="translate(-1.446 -14.618)" fill="#fff" opacity="0.3"/>
          <path id="Path_791" data-name="Path 791" d="M701.417,90.4l14.869-25.752L701.417,38.893H671.682L656.813,64.652,671.682,90.4Z" transform="translate(38.279 -3.103)" fill="#fff" opacity="0.8"/>
          <path id="Path_792" data-name="Path 792" d="M343.993,102.544l14.873-25.758L343.993,51.034H314.258L299.393,76.786l14.864,25.758Z" transform="translate(-299.393 2.657)" fill="#fff" opacity="0.8"/>
          <path id="Path_793" data-name="Path 793" d="M365.023,90.4l14.864-25.751L365.023,38.893H335.286L320.415,64.652,335.286,90.4Z" transform="translate(-273.257 -3.103)" fill="#fff" opacity="0.5"/>
          <path id="Path_794" data-name="Path 794" d="M470.143,102.544l14.869-25.758L470.143,51.034H440.411L425.54,76.786l14.871,25.758Z" transform="translate(-180.217 2.657)" fill="#fff" opacity="0.8"/>
          <path id="Path_795" data-name="Path 795" d="M407.077,66.119,421.935,40.37,407.077,14.618H377.34L362.465,40.37,377.34,66.119Z" transform="translate(-220.975 -14.618)" fill="#fff" opacity="0.8"/>
          <path id="Path_796" data-name="Path 796" d="M386.047,102.544l14.871-25.758L386.047,51.034H356.31L341.441,76.786l14.869,25.758Z" transform="translate(-247.114 2.657)" fill="#fff" opacity="0.8"/>
          <path id="Path_797" data-name="Path 797" d="M386.047,126.814l14.871-25.751L386.047,75.314H356.31l-14.869,25.749,14.869,25.751Z" transform="translate(-247.114 14.178)" fill="#fff" opacity="0.5"/>
          <path id="Path_798" data-name="Path 798" d="M407.077,90.4l14.858-25.751L407.077,38.893H377.34L362.465,64.652,377.34,90.4Z" transform="translate(-220.975 -3.103)" fill="#fff" opacity="0.5"/>
          <path id="Path_799" data-name="Path 799" d="M428.09,78.261,442.961,52.5,428.09,26.757H398.355L383.493,52.5l14.862,25.759Z" transform="translate(-219.94 -5.656)" fill="#fff" opacity="0.3"/>
          <path id="Path_800" data-name="Path 800" d="M470.143,78.261,485.012,52.5,470.143,26.757H440.411L425.54,52.5l14.871,25.759Z" transform="translate(-180.217 -5.656)" fill="#fff" opacity="0.3"/>
          <path id="Path_801" data-name="Path 801" d="M449.123,90.4l14.867-25.751L449.123,38.893H419.383L404.515,64.652,419.383,90.4Z" transform="translate(-200.08 -3.103)" fill="#fff" opacity="0.5"/>
          <path id="Path_802" data-name="Path 802" d="M449.123,114.68l14.867-25.75L449.123,63.173H419.383L404.515,88.93l14.869,25.75Z" transform="translate(-200.08 5.213)" fill="#fff" opacity="0.8"/>
          <path id="Path_803" data-name="Path 803" d="M491.178,114.68l14.864-25.75L491.178,63.173H461.434L446.563,88.93l14.871,25.75Z" transform="translate(-160.355 5.213)" fill="#fff" opacity="0.5"/>
          <path id="Path_804" data-name="Path 804" d="M533.219,90.4l14.869-25.751L533.219,38.893H503.482L488.615,64.652,503.482,90.4Z" transform="translate(-120.626 -3.103)" fill="#fff" opacity="0.3"/>
          <path id="Path_805" data-name="Path 805" d="M512.2,78.261,527.06,52.5,512.2,26.757H482.452L467.592,52.5l14.86,25.759Z" transform="translate(-140.488 -5.656)" fill="#fff" opacity="0.5"/>
          <path id="Path_806" data-name="Path 806" d="M575.273,66.119,590.137,40.37,575.273,14.618H545.534L530.665,40.37l14.869,25.749Z" transform="translate(-80.9 -14.618)" fill="#fff" opacity="0.8"/>
          <path id="Path_807" data-name="Path 807" d="M596.295,78.261l14.873-25.746L596.295,26.757H566.556L551.691,52.515l14.864,25.746Z" transform="translate(-61.035 -5.656)" fill="#fff" opacity="0.8"/>
          <path id="Path_808" data-name="Path 808" d="M617.321,114.678,632.19,88.933,617.321,63.174H587.581L572.713,88.933l14.869,25.746Z" transform="translate(-41.175 5.214)" fill="#fff" opacity="0.8"/>
          <path id="Path_809" data-name="Path 809" d="M596.293,102.544l14.871-25.758L596.293,51.034H566.556L551.691,76.786l14.864,25.758Z" transform="translate(-61.035 2.657)" fill="#fff" opacity="0.8"/>
          <path id="Path_810" data-name="Path 810" d="M554.248,78.261,569.116,52.5,554.248,26.757H524.513L509.64,52.5l14.873,25.759Z" transform="translate(-100.764 -5.656)" fill="#fff" opacity="0.5"/>
          <path id="Path_811" data-name="Path 811" d="M575.273,114.68l14.864-25.75L575.273,63.173H545.534L530.665,88.93l14.869,25.75Z" transform="translate(-80.9 5.213)" fill="#fff" opacity="0.5"/>
          <path id="Path_812" data-name="Path 812" d="M554.248,102.544l14.868-25.758L554.248,51.034H524.513L509.64,76.786l14.873,25.758Z" transform="translate(-100.764 2.657)" fill="#fff" opacity="0.8"/>
          <path id="Path_813" data-name="Path 813" d="M554.248,126.814l14.868-25.751L554.248,75.314H524.513L509.64,101.063l14.873,25.751Z" transform="translate(-100.764 14.178)" fill="#fff" opacity="0.3"/>
          <path id="Path_814" data-name="Path 814" d="M512.2,102.544,527.06,76.786,512.2,51.034H482.452l-14.86,25.752,14.86,25.758Z" transform="translate(-140.488 2.657)" fill="#fff" opacity="0.8"/>
        </g>
      </g>
      <g id="Group_870" data-name="Group 870" transform="translate(26.031 12.188)" opacity="0.33">
        <path id="Path_815" data-name="Path 815" d="M374,57.212h-6.162v-6.16a1.5,1.5,0,0,0-1.494-1.494h-4.538a1.5,1.5,0,0,0-1.492,1.494v6.16h-6.162a1.5,1.5,0,0,0-1.5,1.5v4.536a1.5,1.5,0,0,0,1.5,1.492h6.162V70.9a1.5,1.5,0,0,0,1.492,1.5h4.538a1.5,1.5,0,0,0,1.494-1.5V64.736H374a1.5,1.5,0,0,0,1.492-1.492V58.709A1.5,1.5,0,0,0,374,57.212Z" transform="translate(-257.116 -8.28)" fill="#fff"/>
        <path id="Path_816" data-name="Path 816" d="M450.158,67.791h-6.165v-6.16a1.492,1.492,0,0,0-1.49-1.492h-4.536a1.494,1.494,0,0,0-1.5,1.492v6.16h-6.162a1.5,1.5,0,0,0-1.494,1.492v4.538a1.5,1.5,0,0,0,1.494,1.494h6.162V81.48a1.5,1.5,0,0,0,1.5,1.492H442.5a1.5,1.5,0,0,0,1.49-1.492V75.315h6.165a1.494,1.494,0,0,0,1.49-1.494V69.283A1.5,1.5,0,0,0,450.158,67.791Z" transform="translate(-162.425 -0.279)" fill="#fff"/>
        <path id="Path_817" data-name="Path 817" d="M396.332,82.455H390.17V76.291a1.5,1.5,0,0,0-1.5-1.492h-4.538a1.5,1.5,0,0,0-1.494,1.492v6.165h-6.16a1.493,1.493,0,0,0-1.492,1.492v4.536a1.494,1.494,0,0,0,1.492,1.494h6.16v6.165a1.5,1.5,0,0,0,1.494,1.494h4.538a1.5,1.5,0,0,0,1.5-1.494V89.977h6.162a1.5,1.5,0,0,0,1.494-1.494V83.947A1.5,1.5,0,0,0,396.332,82.455Z" transform="translate(-229.348 8.554)" fill="#fff"/>
        <path id="Path_818" data-name="Path 818" d="M345.191,46.228h-6.167V40.066a1.494,1.494,0,0,0-1.49-1.492H333a1.5,1.5,0,0,0-1.5,1.492v6.162H325.34a1.5,1.5,0,0,0-1.492,1.492v4.538a1.5,1.5,0,0,0,1.492,1.494H331.5v6.162a1.5,1.5,0,0,0,1.5,1.494h4.536a1.5,1.5,0,0,0,1.49-1.494V53.752h6.167a1.5,1.5,0,0,0,1.492-1.494V47.72A1.5,1.5,0,0,0,345.191,46.228Z" transform="translate(-292.933 -16.585)" fill="#fff"/>
        <path id="Path_819" data-name="Path 819" d="M364.905,64.459H354.519V54.077A2.523,2.523,0,0,0,352,51.56h-7.647a2.523,2.523,0,0,0-2.517,2.517V64.459H331.453a2.523,2.523,0,0,0-2.515,2.519v7.647a2.521,2.521,0,0,0,2.515,2.515h10.387V87.529a2.525,2.525,0,0,0,2.517,2.517H352a2.524,2.524,0,0,0,2.515-2.517V77.141h10.387a2.521,2.521,0,0,0,2.517-2.515V66.978A2.524,2.524,0,0,0,364.905,64.459Z" transform="translate(-286.604 -8.635)" fill="#fff"/>
        <path id="Path_820" data-name="Path 820" d="M452.467,52.6H439.409V39.552a3.17,3.17,0,0,0-3.165-3.161h-9.61a3.168,3.168,0,0,0-3.163,3.161V52.6H410.416a3.173,3.173,0,0,0-3.165,3.165v9.61a3.173,3.173,0,0,0,3.165,3.165H423.47V81.6a3.17,3.17,0,0,0,3.163,3.163h9.61a3.171,3.171,0,0,0,3.165-3.163V68.545h13.058a3.169,3.169,0,0,0,3.159-3.165v-9.61A3.169,3.169,0,0,0,452.467,52.6Z" transform="translate(-189.236 -19.602)" fill="#fff"/>
        <path id="Path_821" data-name="Path 821" d="M410.958,61.25H400.572V50.866a2.518,2.518,0,0,0-2.517-2.515h-7.647a2.519,2.519,0,0,0-2.515,2.515V61.25H377.506a2.52,2.52,0,0,0-2.517,2.517v7.647a2.523,2.523,0,0,0,2.517,2.517h10.387V84.32a2.525,2.525,0,0,0,2.515,2.515h7.647a2.524,2.524,0,0,0,2.517-2.515V73.932h10.387a2.522,2.522,0,0,0,2.517-2.517V63.767A2.519,2.519,0,0,0,410.958,61.25Z" transform="translate(-229.348 -10.826)" fill="#fff"/>
        <path id="Path_822" data-name="Path 822" d="M329.817,81.906h-6.436a2.456,2.456,0,0,1-2.454-2.454v-8.41h-8.4a2.458,2.458,0,0,1-2.456-2.452V62.151a2.46,2.46,0,0,1,2.456-2.454h8.4V51.291a2.457,2.457,0,0,1,2.454-2.452h6.436a2.459,2.459,0,0,1,2.456,2.452V59.7h8.406a2.458,2.458,0,0,1,2.454,2.454v6.438a2.456,2.456,0,0,1-2.454,2.452h-8.406v8.41A2.458,2.458,0,0,1,329.817,81.906ZM312.523,60.37a1.785,1.785,0,0,0-1.786,1.781v6.438a1.787,1.787,0,0,0,1.786,1.783H321.6v9.079a1.783,1.783,0,0,0,1.781,1.781h6.436a1.783,1.783,0,0,0,1.781-1.781V70.373h9.081a1.786,1.786,0,0,0,1.781-1.783V62.151a1.784,1.784,0,0,0-1.781-1.781H331.6V51.291a1.782,1.782,0,0,0-1.781-1.779h-6.436a1.782,1.782,0,0,0-1.781,1.779V60.37Z" transform="translate(-310.067 -9.861)" fill="#fff"/>
        <path id="Path_823" data-name="Path 823" d="M410.267,59.12h-6.436a2.459,2.459,0,0,1-2.456-2.456V48.255h-8.406a2.454,2.454,0,0,1-2.452-2.454V39.365a2.456,2.456,0,0,1,2.452-2.454h8.406V28.5a2.459,2.459,0,0,1,2.456-2.452h6.436a2.454,2.454,0,0,1,2.452,2.452v8.406h8.41a2.457,2.457,0,0,1,2.452,2.454V45.8a2.456,2.456,0,0,1-2.452,2.454h-8.41v8.408A2.453,2.453,0,0,1,410.267,59.12Zm-17.3-21.538a1.782,1.782,0,0,0-1.777,1.783V45.8a1.781,1.781,0,0,0,1.777,1.783h9.081v9.079a1.786,1.786,0,0,0,1.781,1.783h6.436a1.783,1.783,0,0,0,1.781-1.783V47.584h9.081a1.783,1.783,0,0,0,1.781-1.783V39.365a1.785,1.785,0,0,0-1.781-1.783h-9.081V28.5a1.781,1.781,0,0,0-1.781-1.779h-6.436A1.784,1.784,0,0,0,402.05,28.5v9.076Z" transform="translate(-210.042 -26.053)" fill="#fff"/>
        <path id="Path_824" data-name="Path 824" d="M381.709,67.883h-6.436a2.458,2.458,0,0,1-2.456-2.452v-8.41h-8.4a2.455,2.455,0,0,1-2.456-2.452V48.131a2.457,2.457,0,0,1,2.456-2.454h8.4V37.271a2.459,2.459,0,0,1,2.456-2.452h6.436a2.455,2.455,0,0,1,2.452,2.452v8.406h8.41a2.459,2.459,0,0,1,2.452,2.454v6.438a2.457,2.457,0,0,1-2.452,2.452h-8.41v8.41A2.454,2.454,0,0,1,381.709,67.883ZM364.415,46.35a1.784,1.784,0,0,0-1.786,1.781v6.438a1.785,1.785,0,0,0,1.786,1.781h9.077v9.081a1.781,1.781,0,0,0,1.781,1.781h6.436a1.784,1.784,0,0,0,1.781-1.781V56.35h9.081a1.782,1.782,0,0,0,1.779-1.781V48.131a1.781,1.781,0,0,0-1.779-1.781H383.49V37.271a1.787,1.787,0,0,0-1.781-1.781h-6.436a1.784,1.784,0,0,0-1.781,1.781V46.35Z" transform="translate(-245.548 -15.154)" fill="#fff"/>
        <path id="Path_825" data-name="Path 825" d="M451.375,60.513h-6.436a2.456,2.456,0,0,1-2.452-2.454V49.653h-8.406a2.458,2.458,0,0,1-2.456-2.454V40.761a2.458,2.458,0,0,1,2.456-2.454h8.406V29.9a2.457,2.457,0,0,1,2.452-2.452h6.436a2.457,2.457,0,0,1,2.454,2.452v8.406h8.408a2.456,2.456,0,0,1,2.452,2.454V47.2a2.456,2.456,0,0,1-2.452,2.454h-8.408v8.406A2.456,2.456,0,0,1,451.375,60.513ZM434.081,38.98a1.783,1.783,0,0,0-1.781,1.781V47.2a1.783,1.783,0,0,0,1.781,1.781h9.076v9.079a1.787,1.787,0,0,0,1.781,1.786h6.436a1.785,1.785,0,0,0,1.781-1.786V48.98h9.081a1.782,1.782,0,0,0,1.779-1.781V40.761a1.782,1.782,0,0,0-1.779-1.781h-9.081V29.9a1.781,1.781,0,0,0-1.781-1.779h-6.436a1.782,1.782,0,0,0-1.781,1.779V38.98Z" transform="translate(-158.931 -24.317)" fill="#fff"/>
        <path id="Path_826" data-name="Path 826" d="M361.964,95.324h-5.418a2.067,2.067,0,0,1-2.068-2.068v-7.08H347.4a2.071,2.071,0,0,1-2.068-2.066V78.687a2.072,2.072,0,0,1,2.068-2.068h7.078V69.541a2.067,2.067,0,0,1,2.068-2.066h5.418a2.07,2.07,0,0,1,2.068,2.066v7.078h7.082a2.072,2.072,0,0,1,2.068,2.068v5.422a2.071,2.071,0,0,1-2.068,2.066h-7.082v7.08A2.07,2.07,0,0,1,361.964,95.324ZM347.4,77.186a1.5,1.5,0,0,0-1.5,1.5v5.422a1.5,1.5,0,0,0,1.5,1.5h7.645v7.648a1.5,1.5,0,0,0,1.5,1.5h5.418a1.5,1.5,0,0,0,1.5-1.5V85.608h7.648a1.5,1.5,0,0,0,1.5-1.5V78.687a1.5,1.5,0,0,0-1.5-1.5h-7.648V69.541a1.5,1.5,0,0,0-1.5-1.5h-5.418a1.5,1.5,0,0,0-1.5,1.5v7.645Z" transform="translate(-266.221 4.386)" fill="#fff"/>
        <path id="Path_827" data-name="Path 827" d="M405.769,82.671h-4.094a1.565,1.565,0,0,1-1.566-1.564V75.755h-5.353a1.564,1.564,0,0,1-1.561-1.561V70.1a1.564,1.564,0,0,1,1.561-1.561h5.353v-5.35a1.565,1.565,0,0,1,1.566-1.564h4.094a1.565,1.565,0,0,1,1.564,1.564v5.35h5.35a1.561,1.561,0,0,1,1.561,1.561v4.1a1.561,1.561,0,0,1-1.561,1.561h-5.35v5.353A1.565,1.565,0,0,1,405.769,82.671ZM394.756,68.962a1.137,1.137,0,0,0-1.135,1.133v4.1a1.136,1.136,0,0,0,1.135,1.133h5.779v5.781a1.136,1.136,0,0,0,1.14,1.135h4.094a1.133,1.133,0,0,0,1.133-1.135V75.327h5.781a1.133,1.133,0,0,0,1.133-1.133V70.1a1.134,1.134,0,0,0-1.133-1.133H406.9V63.184a1.134,1.134,0,0,0-1.133-1.135h-4.094a1.137,1.137,0,0,0-1.14,1.135v5.779Z" transform="translate(-206.712 1.095)" fill="#fff"/>
        <path id="Path_828" data-name="Path 828" d="M524.016,71.1h6.165v6.16a1.5,1.5,0,0,0,1.494,1.494h4.536a1.5,1.5,0,0,0,1.494-1.494V71.1h6.165a1.5,1.5,0,0,0,1.49-1.494V65.067a1.5,1.5,0,0,0-1.49-1.492H537.7V57.41a1.5,1.5,0,0,0-1.494-1.494h-4.536a1.5,1.5,0,0,0-1.494,1.494v6.165h-6.165a1.5,1.5,0,0,0-1.492,1.492V69.6A1.5,1.5,0,0,0,524.016,71.1Z" transform="translate(-45.914 -3.472)" fill="#fff"/>
        <path id="Path_829" data-name="Path 829" d="M447.854,60.517h6.167v6.162a1.5,1.5,0,0,0,1.5,1.492h4.534a1.5,1.5,0,0,0,1.494-1.492V60.517h6.165a1.5,1.5,0,0,0,1.49-1.492V54.487a1.5,1.5,0,0,0-1.49-1.494h-6.165V46.83a1.5,1.5,0,0,0-1.494-1.494h-4.534a1.5,1.5,0,0,0-1.5,1.494v6.162h-6.167a1.5,1.5,0,0,0-1.49,1.494v4.538A1.5,1.5,0,0,0,447.854,60.517Z" transform="translate(-140.606 -11.472)" fill="#fff"/>
        <path id="Path_830" data-name="Path 830" d="M501.683,45.858h6.165v6.16a1.5,1.5,0,0,0,1.494,1.492h4.536a1.494,1.494,0,0,0,1.492-1.492v-6.16h6.162a1.5,1.5,0,0,0,1.5-1.494V39.826a1.5,1.5,0,0,0-1.5-1.492h-6.162V32.169a1.5,1.5,0,0,0-1.492-1.494h-4.536a1.5,1.5,0,0,0-1.494,1.494v6.165h-6.165a1.5,1.5,0,0,0-1.492,1.492v4.538A1.5,1.5,0,0,0,501.683,45.858Z" transform="translate(-73.681 -20.306)" fill="#fff"/>
        <path id="Path_831" data-name="Path 831" d="M459.708,89.859h13.056v13.054a3.169,3.169,0,0,0,3.165,3.161h9.61a3.172,3.172,0,0,0,3.163-3.161V89.859h13.049a3.166,3.166,0,0,0,3.163-3.163V77.081a3.166,3.166,0,0,0-3.163-3.161H488.7V60.862A3.174,3.174,0,0,0,485.54,57.7h-9.61a3.171,3.171,0,0,0-3.165,3.163V73.92H459.708a3.172,3.172,0,0,0-3.165,3.161V86.7A3.173,3.173,0,0,0,459.708,89.859Z" transform="translate(-127.95 -6.305)" fill="#fff"/>
        <path id="Path_832" data-name="Path 832" d="M495.73,75.733h10.391V86.12a2.518,2.518,0,0,0,2.515,2.513h7.647A2.522,2.522,0,0,0,518.8,86.12V75.733h10.384a2.523,2.523,0,0,0,2.519-2.515V65.566a2.525,2.525,0,0,0-2.519-2.517H518.8V52.663a2.525,2.525,0,0,0-2.515-2.515h-7.647a2.521,2.521,0,0,0-2.515,2.515V63.049H495.73a2.524,2.524,0,0,0-2.515,2.517v7.652A2.522,2.522,0,0,0,495.73,75.733Z" transform="translate(-82.355 -9.599)" fill="#fff"/>
        <path id="Path_833" data-name="Path 833" d="M493.417,74.86h6.436a2.46,2.46,0,0,1,2.456,2.456v8.41h8.406a2.455,2.455,0,0,1,2.452,2.452v6.436a2.46,2.46,0,0,1-2.452,2.459H502.31v8.4a2.46,2.46,0,0,1-2.456,2.454h-6.436a2.458,2.458,0,0,1-2.454-2.454v-8.4h-8.408a2.461,2.461,0,0,1-2.452-2.459V88.179a2.457,2.457,0,0,1,2.452-2.452h8.408v-8.41A2.458,2.458,0,0,1,493.417,74.86Zm17.3,21.538a1.782,1.782,0,0,0,1.777-1.783V88.179a1.782,1.782,0,0,0-1.777-1.783h-9.081V77.316a1.783,1.783,0,0,0-1.781-1.781h-6.436a1.781,1.781,0,0,0-1.781,1.781V86.4h-9.081a1.786,1.786,0,0,0-1.781,1.783v6.436a1.786,1.786,0,0,0,1.781,1.783h9.081v9.076a1.783,1.783,0,0,0,1.781,1.781h6.436a1.784,1.784,0,0,0,1.781-1.781V96.4Z" transform="translate(-98.657 8.63)" fill="#fff"/>
        <path id="Path_834" data-name="Path 834" d="M521.98,66.1h6.432a2.46,2.46,0,0,1,2.459,2.452v8.41h8.4a2.454,2.454,0,0,1,2.452,2.452v6.438a2.456,2.456,0,0,1-2.452,2.454h-8.4v8.4a2.461,2.461,0,0,1-2.459,2.454H521.98a2.458,2.458,0,0,1-2.457-2.454V88.3h-8.41a2.457,2.457,0,0,1-2.452-2.454V79.41a2.455,2.455,0,0,1,2.452-2.452h8.41v-8.41A2.456,2.456,0,0,1,521.98,66.1ZM539.273,87.63a1.784,1.784,0,0,0,1.781-1.781V79.41a1.784,1.784,0,0,0-1.781-1.781H530.2V68.548a1.785,1.785,0,0,0-1.786-1.781H521.98a1.784,1.784,0,0,0-1.786,1.781v9.081h-9.081a1.78,1.78,0,0,0-1.777,1.781v6.438a1.78,1.78,0,0,0,1.777,1.781h9.081v9.076a1.786,1.786,0,0,0,1.786,1.783h6.432a1.787,1.787,0,0,0,1.786-1.783V87.63Z" transform="translate(-63.15 -2.267)" fill="#fff"/>
        <path id="Path_835" data-name="Path 835" d="M452.309,73.465h6.436a2.458,2.458,0,0,1,2.454,2.456v8.4h8.406a2.455,2.455,0,0,1,2.45,2.454v6.438a2.455,2.455,0,0,1-2.45,2.454H461.2v8.406a2.456,2.456,0,0,1-2.454,2.452h-6.436a2.458,2.458,0,0,1-2.456-2.452V95.672h-8.4a2.456,2.456,0,0,1-2.454-2.454V86.779a2.456,2.456,0,0,1,2.454-2.454h8.4v-8.4A2.46,2.46,0,0,1,452.309,73.465ZM469.605,95a1.785,1.785,0,0,0,1.783-1.781V86.779A1.783,1.783,0,0,0,469.605,85h-9.076V75.921a1.79,1.79,0,0,0-1.783-1.786h-6.436a1.788,1.788,0,0,0-1.781,1.786V85h-9.079a1.781,1.781,0,0,0-1.781,1.779v6.438A1.783,1.783,0,0,0,441.449,95h9.079v9.079a1.782,1.782,0,0,0,1.781,1.779h6.436a1.784,1.784,0,0,0,1.783-1.779V95Z" transform="translate(-149.768 6.895)" fill="#fff"/>
        <path id="Path_836" data-name="Path 836" d="M538.827,35.765h5.42a2.069,2.069,0,0,1,2.068,2.066v7.08h7.08a2.069,2.069,0,0,1,2.064,2.068V52.4A2.069,2.069,0,0,1,553.4,54.47h-7.08v7.078a2.069,2.069,0,0,1-2.068,2.066h-5.42a2.071,2.071,0,0,1-2.068-2.066V54.47h-7.08a2.07,2.07,0,0,1-2.066-2.068V46.979a2.07,2.07,0,0,1,2.066-2.068h7.08v-7.08A2.071,2.071,0,0,1,538.827,35.765ZM553.4,53.9a1.5,1.5,0,0,0,1.5-1.5V46.979a1.5,1.5,0,0,0-1.5-1.5h-7.648V37.831a1.5,1.5,0,0,0-1.5-1.5h-5.42a1.5,1.5,0,0,0-1.5,1.5v7.647h-7.648a1.5,1.5,0,0,0-1.5,1.5V52.4a1.5,1.5,0,0,0,1.5,1.5h7.648v7.645a1.5,1.5,0,0,0,1.5,1.5h5.42a1.5,1.5,0,0,0,1.5-1.5V53.9Z" transform="translate(-39.587 -18.916)" fill="#fff"/>
        <path id="Path_837" data-name="Path 837" d="M491.256,44.649h4.1a1.565,1.565,0,0,1,1.564,1.564v5.355h5.35a1.561,1.561,0,0,1,1.561,1.561v4.1a1.563,1.563,0,0,1-1.561,1.564h-5.35v5.348a1.565,1.565,0,0,1-1.564,1.564h-4.1a1.566,1.566,0,0,1-1.561-1.564V58.791h-5.353a1.566,1.566,0,0,1-1.561-1.564v-4.1a1.564,1.564,0,0,1,1.561-1.561h5.353V46.213A1.566,1.566,0,0,1,491.256,44.649ZM502.269,58.36a1.135,1.135,0,0,0,1.133-1.133v-4.1a1.137,1.137,0,0,0-1.133-1.135h-5.781V46.213a1.134,1.134,0,0,0-1.133-1.133h-4.1a1.134,1.134,0,0,0-1.133,1.133v5.781h-5.781a1.136,1.136,0,0,0-1.133,1.135v4.1a1.134,1.134,0,0,0,1.133,1.133h5.781v5.779a1.135,1.135,0,0,0,1.133,1.135h4.1a1.134,1.134,0,0,0,1.133-1.135V58.36Z" transform="translate(-95.328 -11.859)" fill="#fff"/>
      </g>
      <path id="Path_838" data-name="Path 838" d="M923.02,88.927c-.323-2.21-2.889-3.919-5.967-3.877a7.588,7.588,0,0,0-2.342.4L900.672,67.493a3.274,3.274,0,0,0,1.976-2.882c-.04-1.9-2.178-3.425-4.765-3.387-2.4.03-4.321,1.4-4.552,3.109l-30.058-.007c-.229-1.429-1.88-2.533-3.877-2.506a5.254,5.254,0,0,0-1.348.209l-.8.315a2.447,2.447,0,0,0-.074,4.587L842.431,85.749a6.778,6.778,0,0,0-2.208-.336c-2.683.036-4.863,1.571-5.11,3.5l-28.082-.01c-.325-1.7-2.313-3.006-4.7-2.977a5.952,5.952,0,0,0-2.127.429L785.733,67.844a3.671,3.671,0,0,0,2.234-3.237,3.742,3.742,0,0,0-2.324-3.132l14.739-18.832a5.017,5.017,0,0,0,1.716.286c1.956-.03,3.533-1.132,3.74-2.538l-.007-.67c-.251-1.415-1.891-2.5-3.872-2.48a5.134,5.134,0,0,0-1.546.267l-.767.361a2.4,2.4,0,0,0-.029,4.419L784.845,61.153a6.62,6.62,0,0,0-2.2-.328c-2.678.031-4.854,1.56-5.11,3.485L749.07,64.3c-.33-1.7-2.313-3-4.7-2.962-2.582.033-4.646,1.609-4.6,3.516a3.222,3.222,0,0,0,1.727,2.594l-14.559,18.6a6.2,6.2,0,0,0-1.86-.262c-2.38.033-4.307,1.384-4.554,3.091l-30-.008c-.2-1.457-1.869-2.6-3.894-2.564a4.973,4.973,0,0,0-1.548.267L670.493,67.9a3.716,3.716,0,0,0,2.284-3.258,3.789,3.789,0,0,0-2.389-3.174l14.326-18.292a6.143,6.143,0,0,0,2,.308c2.584-.033,4.644-1.609,4.6-3.516s-2.187-3.432-4.763-3.394a6.054,6.054,0,0,0-1.842.306l-.783.336a3.28,3.28,0,0,0-1.976,2.877,3.309,3.309,0,0,0,1.983,2.743L669.587,61.159a7,7,0,0,0-2.133-.31c-2.658.038-4.807,1.535-5.1,3.434l-29.74-.008c-.3-1.377-1.92-2.419-3.852-2.394a5.077,5.077,0,0,0-1.29.194L612.1,42.414A2.745,2.745,0,0,0,613.809,40a2.787,2.787,0,0,0-1.75-2.326l-.828-.293a4.988,4.988,0,0,0-1.344-.171c-2.122.03-3.82,1.329-3.782,2.9s1.8,2.819,3.926,2.786a4.956,4.956,0,0,0,1.252-.185l15.38,19.663a2.747,2.747,0,0,0-1.689,2.4,2.712,2.712,0,0,0,1.563,2.217L611.734,85.9a6.073,6.073,0,0,0-2.017-.316c-2.468.033-4.44,1.482-4.57,3.273l-29.011,0c-.22-2.018-2.524-3.6-5.3-3.551a6.607,6.607,0,0,0-1.92.3l-14.6-18.663a2.665,2.665,0,0,0,1.557-2.321c-.038-1.569-1.806-2.824-3.926-2.791-1.9.025-3.452,1.076-3.726,2.425l-30.778-.007c-.1-1.619-1.927-2.9-4.134-2.869a5.22,5.22,0,0,0-1.5.233l-15.12-19.34a2.673,2.673,0,0,0,1.573-2.331,2.734,2.734,0,0,0-1.606-2.247l-.787-.334a5,5,0,0,0-1.53-.212c-1.945.025-3.515,1.116-3.74,2.506L460.3,39.649c-.283-1.657-2.2-2.93-4.5-2.9a6.038,6.038,0,0,0-1.721.283L439.631,18.559a3.762,3.762,0,0,0,2.5-3.361,3.717,3.717,0,0,0-2.277-3.111l-.877-.359a6.925,6.925,0,0,0-2.167-.321c-2.748.041-4.971,1.649-5.124,3.647l.027.667c.31,1.942,2.582,3.444,5.292,3.4a6.6,6.6,0,0,0,1.815-.272l14.467,18.507a3.135,3.135,0,0,0-1.882,2.75,3.156,3.156,0,0,0,1.849,2.6L438.931,61a6.847,6.847,0,0,0-2.093-.293c-2.7.035-4.886,1.581-5.108,3.521l-28.288-.007c-.35-1.91-2.6-3.377-5.274-3.338a6.671,6.671,0,0,0-2.084.353l-14.476-18.51a3.162,3.162,0,0,0,1.9-2.761,3.154,3.154,0,0,0-1.813-2.581l-.778-.338a5.814,5.814,0,0,0-1.967-.323c-2.259.028-4.083,1.3-4.343,2.91l-30.253,0c-.114-1.523-1.833-2.727-3.915-2.7a4.864,4.864,0,0,0-1.5.248l-.765.353a2.668,2.668,0,0,0-1.516,2.291,2.734,2.734,0,0,0,1.62,2.255L323.155,61.4a5.968,5.968,0,0,0-1.983-.331c-2.3.035-4.141,1.346-4.354,2.995l0,.669c.254,1.679,2.185,2.972,4.509,2.942a5.685,5.685,0,0,0,1.613-.248l4.635,5.923,9.738,12.557a3.352,3.352,0,0,0-.067,6.319L323.2,110.021a6.888,6.888,0,0,0-2.2-.334c-2.721.036-4.908,1.6-5.124,3.553l.011.67c.256,1.988,2.548,3.533,5.3,3.5,2.885-.038,5.184-1.8,5.133-3.927a3.75,3.75,0,0,0-2.32-3.137l14.032-17.775a6.74,6.74,0,0,0,2.351.376c2.672-.036,4.846-1.555,5.106-3.467H375.16c.213,1.442,1.878,2.566,3.881,2.538a5.136,5.136,0,0,0,1.51-.245l.763-.351a2.677,2.677,0,0,0,1.514-2.3,2.7,2.7,0,0,0-1.555-2.207l14.66-18.719a6.847,6.847,0,0,0,2.425.407c2.786-.038,5.018-1.685,5.124-3.712l28.248.007c.233,2,2.528,3.564,5.3,3.528a6.969,6.969,0,0,0,1.9-.293L453.366,86.6a2.825,2.825,0,0,0-1.6,2.434,2.937,2.937,0,0,0,1.84,2.46L439.42,109.612a7.557,7.557,0,0,0-2.768-.473c-3.181.043-5.727,1.945-5.781,4.268l.047.667c.4,2.156,2.928,3.8,5.945,3.763,3.246-.046,5.846-2.033,5.783-4.43a4.173,4.173,0,0,0-2.456-3.44l14.22-18.173a5.465,5.465,0,0,0,1.512.2c1.99-.025,3.614-1.1,3.942-2.5l29.349.008c.132,2.071,2.483,3.707,5.314,3.669a6.845,6.845,0,0,0,2.057-.339l13.778,17.617a3.587,3.587,0,0,0-1.994,3.094c.052,2.131,2.443,3.829,5.323,3.791,2.566-.036,4.659-1.434,5.07-3.238l29.664.01c.33,1.348,1.938,2.367,3.852,2.341a4.664,4.664,0,0,0,1.185-.169l.825-.29a2.768,2.768,0,0,0,1.777-2.435,2.728,2.728,0,0,0-1.593-2.233L569.005,92.75a6.8,6.8,0,0,0,2.021.272c2.692-.036,4.872-1.573,5.11-3.506l29.051.012c.33,1.7,2.317,3.006,4.7,2.97a5.877,5.877,0,0,0,1.653-.257l15.08,19.3a2.65,2.65,0,0,0-1.543,2.316,2.72,2.72,0,0,0,1.575,2.225l-15.03,19.194a6.079,6.079,0,0,0-2.044-.333c-2.389.035-4.307,1.387-4.552,3.1l-.011.666c.222,1.786,2.266,3.182,4.733,3.15,2.58-.035,4.635-1.611,4.6-3.52a3.318,3.318,0,0,0-1.938-2.717l15.032-19.2a5.133,5.133,0,0,0,1.559.228c1.945-.03,3.52-1.131,3.744-2.525l30.148.007c.168,1.821,2.237,3.251,4.738,3.218a6.114,6.114,0,0,0,1.685-.263l.8-.311a3.363,3.363,0,0,0,2.118-2.944,3.41,3.41,0,0,0-2.138-2.833l15.062-19.242a5.077,5.077,0,0,0,1.617.24c1.92-.022,3.477-1.086,3.733-2.447l30.02,0c.215,1.791,2.255,3.19,4.722,3.157a5.919,5.919,0,0,0,1.721-.276L740.92,110.28a4.068,4.068,0,0,0-2.351,3.546,4.151,4.151,0,0,0,2.421,3.429l.767.359a7.647,7.647,0,0,0,2.809.483c3.028-.043,5.485-1.771,5.754-3.948l28.468,0c.3,1.372,1.914,2.415,3.852,2.389,2.127-.025,3.829-1.326,3.785-2.892a2.654,2.654,0,0,0-1.409-2.132l15.006-19.176a6,6,0,0,0,2.479.5c2.468-.038,4.433-1.482,4.567-3.27l28.044,0c.215,2.021,2.526,3.594,5.3,3.558a6.7,6.7,0,0,0,2.059-.341l14.521,18.577a2.836,2.836,0,0,0-1.674,2.483c.038,1.656,1.907,2.982,4.15,2.953,2.055-.03,3.706-1.174,3.955-2.632l31.018.01c.114,1.422,1.732,2.546,3.677,2.525a4.662,4.662,0,0,0,1.406-.238L913.937,134.9a4.178,4.178,0,0,0-2.587,3.675c.061,2.4,2.75,4.311,6,4.268,3.08-.041,5.579-1.836,5.77-4.073l-.018-.669c-.276-2.247-2.865-3.995-5.967-3.958a7.81,7.81,0,0,0-2.414.421L900.3,116.113a2.486,2.486,0,0,0,1.382-2.136,2.6,2.6,0,0,0-1.57-2.146l14.5-18.519a7.619,7.619,0,0,0,2.669.434c3.118-.043,5.631-1.881,5.768-4.149Zm-5.869,45.893c2.748-.041,5.03,1.581,5.079,3.614s-2.147,3.708-4.9,3.742-5.021-1.583-5.077-3.609S914.4,134.857,917.151,134.82Zm-303.712,3.526c.036,1.536-1.62,2.809-3.71,2.836-2.073.025-3.807-1.2-3.847-2.737s1.631-2.806,3.708-2.836S613.4,136.807,613.439,138.347Zm-171.7-24.929c.052,2.028-2.147,3.712-4.895,3.748s-5.023-1.583-5.079-3.611,2.151-3.713,4.9-3.748S441.686,111.391,441.739,113.418Zm-116.332.071c.043,1.761-1.855,3.218-4.244,3.248s-4.359-1.367-4.4-3.129,1.86-3.218,4.24-3.255S325.367,111.732,325.407,113.489Zm50.616-24.277c-.022-1.2,1.27-2.19,2.9-2.212s2.966.934,3,2.132-1.276,2.192-2.9,2.215S376.048,90.411,376.023,89.212ZM340.2,85.9c2.382-.035,4.357,1.371,4.41,3.127.038,1.763-1.866,3.218-4.253,3.251s-4.357-1.372-4.395-3.132S337.811,85.929,340.2,85.9ZM324.813,64.326c.04,1.452-1.532,2.659-3.5,2.687s-3.6-1.136-3.632-2.591,1.53-2.649,3.5-2.679S324.779,62.878,324.813,64.326Zm18.649-24.595c.027,1.2-1.265,2.2-2.889,2.215s-2.97-.932-3-2.131,1.27-2.194,2.887-2.215S343.432,38.538,343.462,39.732ZM379.1,42.66c-1.97.023-3.6-1.137-3.628-2.591s1.532-2.651,3.5-2.677,3.594,1.131,3.632,2.583S381.066,42.629,379.1,42.66Zm16.19,18.906a3.691,3.691,0,0,0-2.255,3.245A3.648,3.648,0,0,0,395.1,67.8L380.423,86.547a4.682,4.682,0,0,0-1.521-.217c-1.934.026-3.5,1.108-3.737,2.48l-29.679,0c-.2-2.028-2.521-3.614-5.3-3.576a6.74,6.74,0,0,0-2.01.324L323.8,67.091a2.85,2.85,0,0,0,.13-5.344l15.145-19.338a4.95,4.95,0,0,0,1.512.21,3.723,3.723,0,0,0,3.695-2.27l30.327.007c.233,1.69,2.169,3,4.507,2.972a6.011,6.011,0,0,0,1.7-.275Zm7.3,3.116c.04,1.758-1.857,3.22-4.242,3.251s-4.361-1.377-4.4-3.134,1.86-3.218,4.244-3.25S402.546,62.927,402.584,64.682ZM436.99,18.458c-2.389.033-4.359-1.372-4.4-3.129s1.862-3.218,4.242-3.25,4.354,1.371,4.4,3.131S439.375,18.428,436.99,18.458Zm112.267,95.181c-.02-1.2,1.27-2.192,2.894-2.213s2.972.939,3,2.136-1.267,2.192-2.894,2.212S549.3,114.841,549.257,113.639Zm-35.741-3.359c2.389-.033,4.359,1.369,4.4,3.131s-1.86,3.218-4.249,3.25-4.354-1.374-4.395-3.132S511.132,110.309,513.517,110.28ZM490.108,89.368c-.038-1.758,1.857-3.215,4.244-3.243s4.359,1.367,4.4,3.132-1.857,3.213-4.244,3.243S490.148,91.126,490.108,89.368Zm-34.323-2.728c1.743-.022,3.2,1.01,3.23,2.3s-1.366,2.362-3.114,2.386-3.194-1.007-3.226-2.3S454.042,86.664,455.785,86.639ZM441.262,64.507c.04,1.761-1.864,3.212-4.256,3.25-2.376.036-4.354-1.376-4.4-3.136s1.866-3.218,4.249-3.248S441.208,62.747,441.262,64.507ZM459.444,40c.047,1.452-1.53,2.659-3.5,2.682s-3.6-1.132-3.634-2.584,1.532-2.652,3.5-2.684S459.412,38.551,459.444,40Zm35.014,2.164c-1.62.023-2.968-.937-3-2.134s1.272-2.194,2.894-2.213,2.966.935,3,2.136S496.084,42.147,494.457,42.165Zm16.56,19.774a2.843,2.843,0,0,0-1.714,2.5,2.936,2.936,0,0,0,1.842,2.463L496.4,85.739a6.726,6.726,0,0,0-2.068-.285c-2.634.035-4.767,1.5-5.086,3.376L459.9,88.823c-.112-1.612-1.931-2.882-4.128-2.851a5.324,5.324,0,0,0-1.584.257L439.779,67.795a3.739,3.739,0,0,0,2.385-3.3,3.8,3.8,0,0,0-2.432-3.184l14.3-18.264a5.966,5.966,0,0,0,1.925.3c2.32-.035,4.168-1.367,4.361-3.036h1.173l29.109.008c.224,1.434,1.875,2.538,3.87,2.511a4.948,4.948,0,0,0,1.434-.23Zm5.53,2.4c.038,1.293-1.362,2.361-3.111,2.386s-3.194-1.013-3.233-2.3,1.366-2.364,3.121-2.386S516.521,63.051,516.547,64.343Zm35.525,2.5c-1.629.022-2.97-.937-3-2.136s1.265-2.192,2.894-2.212,2.968.934,3,2.134S553.7,66.824,552.073,66.846Zm16.042,19.072a3.742,3.742,0,0,0-2.411,3.314,3.8,3.8,0,0,0,2.425,3.187l-14.508,18.539a5.042,5.042,0,0,0-1.483-.2c-2.021.025-3.641,1.21-3.751,2.674l-29.56-.007V113.4c-.049-2.132-2.443-3.831-5.326-3.791a6.618,6.618,0,0,0-2.391.469L497.369,92.5a3.7,3.7,0,0,0,2.29-3.255,3.772,3.772,0,0,0-2.369-3.159l14.77-18.858a5.572,5.572,0,0,0,1.393.174c1.979-.03,3.6-1.1,3.942-2.482l30.8.007c.177,1.472,1.864,2.621,3.892,2.588a5.1,5.1,0,0,0,1.456-.228Zm7.141,3.184c.04,1.763-1.864,3.222-4.244,3.251s-4.359-1.371-4.4-3.134c-.056-1.757,1.855-3.215,4.242-3.246S575.215,87.343,575.255,89.1Zm34.751-46.873c-1.622.025-2.968-.934-2.993-2.132s1.27-2.19,2.885-2.215c1.631-.022,2.981.937,3,2.134S611.637,42.208,610.007,42.228Zm72.841-2.144c-.034-1.543,1.626-2.816,3.706-2.843s3.809,1.2,3.847,2.735-1.62,2.809-3.708,2.838S682.888,41.616,682.847,40.084Zm-19.079,73.857c-.034-1.535,1.629-2.809,3.708-2.834s3.809,1.2,3.847,2.733-1.629,2.809-3.706,2.834S663.808,115.479,663.768,113.941Zm-34.888-2.318c1.626-.02,2.968.935,2.995,2.136s-1.27,2.19-2.889,2.213-2.97-.939-3-2.134S627.251,111.646,628.88,111.623Zm-15.3-22.629c.04,1.54-1.624,2.809-3.7,2.836s-3.809-1.2-3.845-2.74,1.629-2.806,3.7-2.839S613.547,87.452,613.58,88.994Zm18.193-24.31c.034,1.2-1.267,2.192-2.892,2.215s-2.966-.935-2.995-2.136,1.261-2.19,2.889-2.21S631.749,63.487,631.774,64.684ZM667.626,67.9c-2.385.031-4.354-1.376-4.4-3.134s1.86-3.218,4.244-3.246,4.359,1.371,4.4,3.129S670.009,67.866,667.626,67.9Zm16.7,19.029a2.638,2.638,0,0,0-1.474,2.271,2.677,2.677,0,0,0,1.451,2.157L669.2,110.66a6.208,6.208,0,0,0-1.734-.222c-2.358.031-4.26,1.348-4.541,3.025l-30.188-.008c-.236-1.427-1.887-2.526-3.876-2.5a4.99,4.99,0,0,0-1.4.223L612.4,91.912a3,3,0,0,0,.121-5.677l14.8-18.9a4.886,4.886,0,0,0,1.584.238c2-.026,3.6-1.185,3.755-2.626l29.681,0c.173,2.045,2.5,3.655,5.308,3.619a6.63,6.63,0,0,0,2.055-.344Zm5.323,2.182c.029,1.2-1.261,2.192-2.892,2.215s-2.972-.937-3-2.136S685.03,87,686.65,86.977,689.624,87.914,689.649,89.113ZM799.085,40.126c-.031-1.2,1.265-2.192,2.889-2.213s2.97.934,3,2.134-1.27,2.2-2.894,2.217S799.11,41.323,799.085,40.126Zm-19.452,73.618c-.034-1.2,1.263-2.192,2.887-2.215s2.966.932,2.995,2.136-1.265,2.194-2.883,2.207S779.658,114.941,779.633,113.744Zm-35.27-3.67c2.753-.035,5.032,1.576,5.081,3.606s-2.145,3.713-4.893,3.748-5.03-1.583-5.081-3.609S741.616,110.107,744.364,110.073ZM728.95,89.2c.031,1.535-1.631,2.811-3.71,2.838s-3.809-1.2-3.847-2.735,1.624-2.809,3.708-2.841S728.907,87.656,728.95,89.2ZM748.234,64.74c.036,1.538-1.624,2.809-3.7,2.841s-3.807-1.2-3.854-2.737c-.027-1.54,1.631-2.816,3.715-2.843S748.193,63.2,748.234,64.74Zm34.583,3.132c-2.378.03-4.354-1.374-4.395-3.132s1.86-3.217,4.235-3.247c2.391-.04,4.363,1.371,4.408,3.127S785.2,67.839,782.817,67.872ZM799.4,86.754a2.889,2.889,0,0,0-.112,5.185l-15.041,19.217a4.947,4.947,0,0,0-1.747-.295c-2,.026-3.6,1.182-3.751,2.626l-28.416-.007c-.2-2.306-2.824-4.124-5.985-4.078a7.534,7.534,0,0,0-2.656.513l-13.922-17.8a3.309,3.309,0,0,0,2.082-2.929,3.378,3.378,0,0,0-2.1-2.821l14.508-18.54a5.937,5.937,0,0,0,2.286.422c2.465-.03,4.442-1.487,4.57-3.278l28.423.012c.206,2.016,2.517,3.6,5.3,3.558a6.684,6.684,0,0,0,2.059-.339Zm6.788,2.579c.04,1.533-1.624,2.809-3.706,2.834s-3.811-1.2-3.85-2.735,1.629-2.814,3.708-2.839S806.152,87.793,806.19,89.333Zm89.141,24.732c-.029-1.1,1.171-2.028,2.67-2.045s2.739.866,2.771,1.972-1.171,2.021-2.667,2.038S895.362,115.168,895.33,114.065Zm-35.987-2.609c1.743-.03,3.19,1,3.228,2.295s-1.366,2.362-3.114,2.384-3.2-1.008-3.237-2.3S857.591,111.474,859.343,111.456Zm-14.7-22.242c.043,1.763-1.857,3.22-4.247,3.25s-4.361-1.371-4.406-3.131,1.864-3.215,4.247-3.248S844.6,87.457,844.643,89.214Zm17.776-24.59c.027,1.2-1.267,2.192-2.9,2.215s-2.966-.937-3-2.136,1.27-2.192,2.889-2.212S862.383,63.426,862.419,64.624Zm35.62,2.841c-2.086.028-3.809-1.2-3.847-2.74s1.624-2.808,3.7-2.838,3.812,1.2,3.85,2.737S900.122,67.437,898.038,67.465Zm15.878,18.313a3.783,3.783,0,0,0-.157,7.163l-14.53,18.563a4.838,4.838,0,0,0-1.243-.157,3.513,3.513,0,0,0-3.491,2.164l-31.059,0c-.2-1.55-1.974-2.753-4.119-2.722a5.243,5.243,0,0,0-1.543.247l-14.517-18.57a3.355,3.355,0,0,0,.054-6.344L858.04,67.3a4.868,4.868,0,0,0,1.5.2c1.949-.028,3.522-1.124,3.744-2.511l30.045,0c.231,1.778,2.27,3.167,4.727,3.134a6.033,6.033,0,0,0,1.835-.3Zm8.237,3.554c.045,2.031-2.149,3.708-4.9,3.745s-5.025-1.579-5.077-3.611,2.151-3.708,4.9-3.748S922.1,87.3,922.154,89.333Z" transform="translate(-276.819 -11.407)" opacity="0.33"/>
      <g id="Group_871" data-name="Group 871" transform="translate(114.001 23.8)">
        <path id="Path_839" data-name="Path 839" d="M855.094,75.574a3.979,3.979,0,0,0-4.166-3.4,4.9,4.9,0,0,0-1.927.352l-10.463-15.2a2.127,2.127,0,0,0,1.135-1.76,2.084,2.084,0,0,0-1-1.753l10.418-15.147a4.961,4.961,0,0,0,1.739.346,4.065,4.065,0,0,0,4.309-3.248l.009-.55a4,4,0,0,0-4.159-3.34c-2.349-.04-4.294,1.532-4.334,3.5a3.43,3.43,0,0,0,1.871,3.014l-10.4,15.132a2.985,2.985,0,0,0-1.014-.192,2.484,2.484,0,0,0-2.658,2.071l-22.384.006a3.017,3.017,0,0,0-5.851.265,2.365,2.365,0,0,0,1.207,2.035L796.94,72.953a4.254,4.254,0,0,0-1.481-.281,3.585,3.585,0,0,0-3.829,2.918l-20.239.006a3.164,3.164,0,0,0-3.3-2.685,3.85,3.85,0,0,0-1.792.412L755.472,57.583a2.2,2.2,0,0,0,1.021-1.751,2.565,2.565,0,0,0-2.728-2.374,2.689,2.689,0,0,0-2.786,1.96l-20.542.006a4.022,4.022,0,0,0-4.152-3.24,4.922,4.922,0,0,0-2.03.4l-.552.29a3.441,3.441,0,0,0-1.747,2.816,3.378,3.378,0,0,0,1.7,2.909L713.587,73.25a3.76,3.76,0,0,0-1.243-.226,3.21,3.21,0,0,0-3.412,2.589l-21.659,0a2.661,2.661,0,0,0-2.7-2.011,3.289,3.289,0,0,0-1.167.2l-10.873-15.8a2.6,2.6,0,0,0,.016-4.739l-.579-.256a4.012,4.012,0,0,0-1.214-.218,3.2,3.2,0,0,0-3.423,2.643l-21.756,0a2.646,2.646,0,0,0-2.7-2.069,3.32,3.32,0,0,0-1.126.186L630.905,37.81a2.744,2.744,0,0,0,1.4-2.233,3.132,3.132,0,0,0-3.316-2.89,3.222,3.222,0,0,0-3.419,2.589l.007.55a3.2,3.2,0,0,0,3.286,2.536,4.057,4.057,0,0,0,1.474-.269l10.849,15.752a2.11,2.11,0,0,0-.029,3.728L630.284,73.4a3.739,3.739,0,0,0-1.2-.211,3.244,3.244,0,0,0-3.39,2.44l-20.968.009a3.568,3.568,0,0,0-3.686-2.877,4.507,4.507,0,0,0-1.46.217l-10.5-15.234a2.252,2.252,0,0,0,1.155-1.832,2.284,2.284,0,0,0-1.279-2l-.6-.237a3.134,3.134,0,0,0-.857-.137,2.7,2.7,0,0,0-2.782,1.922l-21.406.006a3.639,3.639,0,0,0-3.661-2.654c-2.08-.034-3.8,1.363-3.843,3.11a3,3,0,0,0,1.443,2.538l-9.947,14.458a4.362,4.362,0,0,0-1.481-.279A3.555,3.555,0,0,0,542,75.654l-21.186.008a2.833,2.833,0,0,0-2.845-2.05,3.331,3.331,0,0,0-1.09.16L506.614,58.86a3.44,3.44,0,0,0,1.775-2.824c.038-1.969-1.835-3.6-4.179-3.639a4.106,4.106,0,0,0-4.289,3.091l-.031.548c.038,1.905,1.875,3.464,4.17,3.5a4.881,4.881,0,0,0,2-.386l10.234,14.875a2.39,2.39,0,0,0-1.324,2.011,2.348,2.348,0,0,0,1.158,2L505.7,93.191a4.557,4.557,0,0,0-1.373-.241,3.6,3.6,0,0,0-3.825,2.894l-20.383.006a3.528,3.528,0,0,0-3.7-3.042,4.43,4.43,0,0,0-1.754.329L464.094,77.78a2.1,2.1,0,0,0,.027-3.7l-.556-.286a3.151,3.151,0,0,0-1.081-.2,2.642,2.642,0,0,0-2.8,2.082l-21.424,0a3.585,3.585,0,0,0-3.69-2.854,4.43,4.43,0,0,0-1.689.313L422.754,58.547a3.08,3.08,0,0,0,1.676-2.572c.038-1.745-1.624-3.195-3.7-3.223A3.6,3.6,0,0,0,416.9,55.62l-.009.55a3.569,3.569,0,0,0,3.695,2.92,4.387,4.387,0,0,0,1.595-.279l10.142,14.605a2.891,2.891,0,0,0,.045,5.187l-7.026,10.305L422,93.769a3.646,3.646,0,0,0-1.167-.207,3.081,3.081,0,0,0-3.251,2.415l-.009.546a3.054,3.054,0,0,0,3.145,2.461,3.848,3.848,0,0,0,1.431-.271l10.918,15.863a2.1,2.1,0,0,0-.081,3.728l.556.29a3.276,3.276,0,0,0,1.086.205,2.639,2.639,0,0,0,2.824-2.214l21.83,0a3.078,3.078,0,0,0,3.136,2.391,3.789,3.789,0,0,0,1.418-.269l.565-.275a2.46,2.46,0,0,0-.067-4.385l10.449-15.195a4.254,4.254,0,0,0,1.5.29,3.632,3.632,0,0,0,3.809-2.739l20.412,0a3.572,3.572,0,0,0,3.693,2.89,4.342,4.342,0,0,0,1.505-.245L516.04,114.06a2.455,2.455,0,0,0,.027,4.381l-10.438,15.191a4.416,4.416,0,0,0-1.312-.222,3.622,3.622,0,0,0-3.82,2.794l-.018.548a3.552,3.552,0,0,0,3.695,2.993,4.544,4.544,0,0,0,1.568-.264l.628-.294a2.909,2.909,0,0,0-.157-5.313l10.425-15.159a3.66,3.66,0,0,0,1.243.232,3.091,3.091,0,0,0,3.248-2.38l21.864-.006a2.64,2.64,0,0,0,2.7,2.056,3.174,3.174,0,0,0,1.106-.177l.568-.271a2.115,2.115,0,0,0,.027-3.758L558.3,98.54a3.3,3.3,0,0,0,1.079.192,2.765,2.765,0,0,0,2.986-2.353l22.214,0a2.661,2.661,0,0,0,2.692,1.986,2.609,2.609,0,0,0,2.831-2.289,2.225,2.225,0,0,0-1.119-1.9l10.532-15.319a4.14,4.14,0,0,0,1.389.248,3.583,3.583,0,0,0,3.823-2.912l20.939,0a3.159,3.159,0,0,0,3.3,2.683,3.843,3.843,0,0,0,1.452-.262L641.1,94.121a2.118,2.118,0,0,0,.092,3.79l-11.1,16.143a3.082,3.082,0,0,0-.9-.154,2.607,2.607,0,0,0-2.833,2.289,2.574,2.574,0,0,0,2.726,2.378,3.308,3.308,0,0,0,.978-.139l.592-.239a2.29,2.29,0,0,0,1.263-1.913,2.256,2.256,0,0,0-1.234-1.977l11.1-16.138a3.212,3.212,0,0,0,.929.158,2.677,2.677,0,0,0,2.777-1.965l21.469,0a3.578,3.578,0,0,0,3.675,2.816,4.424,4.424,0,0,0,1.546-.254l10.351,15.036a2.577,2.577,0,0,0-.011,4.616l.568.275a3.933,3.933,0,0,0,1.326.25,3.173,3.173,0,0,0,3.441-2.781,3.128,3.128,0,0,0-3.322-2.892,3.848,3.848,0,0,0-1.438.256L672.752,98.658a3.088,3.088,0,0,0,1.721-2.6,3.047,3.047,0,0,0-1.647-2.671l10.537-15.328a3.048,3.048,0,0,0,1.108.216,2.641,2.641,0,0,0,2.811-2.1l21.655-.009a3.206,3.206,0,0,0,3.289,2.542,4.178,4.178,0,0,0,1.344-.215L724.075,93.75a2.674,2.674,0,0,0-1.247,2.127,3.119,3.119,0,0,0,3.318,2.888,3.238,3.238,0,0,0,3.387-2.43l20.547-.008a3.571,3.571,0,0,0,3.686,2.86,4.257,4.257,0,0,0,1.586-.269L766.014,114.4a2.086,2.086,0,0,0,.02,3.622l.554.3a3.211,3.211,0,0,0,1.117.218,2.658,2.658,0,0,0,2.8-2.035l0-.55a2.629,2.629,0,0,0-2.7-2.08,3.237,3.237,0,0,0-1.241.233L755.928,98.654a2.9,2.9,0,0,0,.07-5.228l10.436-15.191a3.872,3.872,0,0,0,1.541.354,3.241,3.241,0,0,0,3.387-2.444l20.271-.011a3.583,3.583,0,0,0,3.688,2.873,4.35,4.35,0,0,0,1.593-.277l10.638,15.447a2.115,2.115,0,0,0,.054,3.765l.576.254a3.39,3.39,0,0,0,.976.173,2.656,2.656,0,0,0,2.8-2.058L833.65,96.3a3.451,3.451,0,0,0,6.719-.224,2.7,2.7,0,0,0-1.422-2.366l10.131-14.735a4.915,4.915,0,0,0,1.694.326,4.063,4.063,0,0,0,4.3-3.18ZM847.31,35.385a3.366,3.366,0,0,1,3.659-2.959A3.32,3.32,0,0,1,854.5,35.5a3.377,3.377,0,0,1-3.666,2.963A3.319,3.319,0,0,1,847.31,35.385ZM628.868,37.812a2.521,2.521,0,0,1-2.672-2.329,2.562,2.562,0,0,1,2.777-2.244,2.522,2.522,0,0,1,2.676,2.327A2.564,2.564,0,0,1,628.868,37.812Zm-124.8,21.176a3.326,3.326,0,0,1-3.531-3.074,3.377,3.377,0,0,1,3.663-2.965,3.322,3.322,0,0,1,3.529,3.074A3.372,3.372,0,0,1,504.068,58.988Zm-83.467-.45a2.883,2.883,0,0,1-3.064-2.668,2.926,2.926,0,0,1,3.179-2.57,2.883,2.883,0,0,1,3.06,2.668A2.932,2.932,0,0,1,420.6,58.538Zm41.874,15.6a1.811,1.811,0,1,1-2.167,1.751A1.974,1.974,0,0,1,462.474,74.139Zm-31.083,1.8a2.921,2.921,0,0,1,3.174-2.566,2.887,2.887,0,0,1,3.064,2.664,2.935,2.935,0,0,1-3.181,2.568A2.877,2.877,0,0,1,431.391,75.943ZM420.73,98.434a2.383,2.383,0,0,1-2.533-2.2,2.42,2.42,0,0,1,2.625-2.125,2.38,2.38,0,0,1,2.526,2.2A2.42,2.42,0,0,1,420.73,98.434Zm13.9,19.811a1.961,1.961,0,0,1-2.082-1.817,1.989,1.989,0,0,1,2.167-1.745,1.965,1.965,0,0,1,2.086,1.813A2,2,0,0,1,434.634,118.245Zm30.422-1.945a2.418,2.418,0,0,1-2.627,2.118,2.381,2.381,0,0,1-2.526-2.2,2.412,2.412,0,0,1,2.618-2.118A2.38,2.38,0,0,1,465.056,116.3Zm-1.292-2.528a3.683,3.683,0,0,0-1.232-.22,3.064,3.064,0,0,0-3.251,2.434l-21.888.008a2.693,2.693,0,0,0-2.665-1.864,3.1,3.1,0,0,0-1.092.173L422.7,98.43a2.461,2.461,0,0,0-.092-4.386l10.373-15.151a4.447,4.447,0,0,0,1.454.267,3.576,3.576,0,0,0,3.825-2.935l21.421-.006a2.643,2.643,0,0,0,2.7,2.035,2.988,2.988,0,0,0,1.095-.177L474.068,93.46a3.023,3.023,0,0,0-1.487,2.453,3.053,3.053,0,0,0,1.629,2.668ZM476.3,98.588a2.881,2.881,0,0,1-3.064-2.666,2.922,2.922,0,0,1,3.177-2.568,2.882,2.882,0,0,1,3.062,2.668A2.928,2.928,0,0,1,476.3,98.588Zm31.068,38.034a2.937,2.937,0,0,1-3.181,2.572,2.884,2.884,0,0,1-3.062-2.671,2.928,2.928,0,0,1,3.179-2.566A2.884,2.884,0,0,1,507.367,136.623Zm80.127-82.534a1.963,1.963,0,0,1,2.089,1.817,1.99,1.99,0,0,1-2.163,1.751,1.966,1.966,0,0,1-2.091-1.817A2,2,0,0,1,587.495,54.089Zm-31.021,1.843a2.925,2.925,0,0,1,3.174-2.568,2.875,2.875,0,0,1,3.06,2.666,2.914,2.914,0,0,1-3.174,2.568A2.876,2.876,0,0,1,556.474,55.932ZM545.813,73.19a2.882,2.882,0,0,1,3.064,2.664,2.922,2.922,0,0,1-3.174,2.572,2.888,2.888,0,0,1-3.067-2.666A2.933,2.933,0,0,1,545.813,73.19Zm-30.191,2.856a2.149,2.149,0,0,1,2.331-1.886,2.113,2.113,0,0,1,2.246,1.954A2.146,2.146,0,0,1,517.868,78,2.117,2.117,0,0,1,515.623,76.046ZM504.207,98.737a2.889,2.889,0,0,1-3.067-2.666,2.936,2.936,0,0,1,3.177-2.574,2.894,2.894,0,0,1,3.069,2.666A2.941,2.941,0,0,1,504.207,98.737ZM517.893,118.4a2.375,2.375,0,0,1-2.531-2.2,2.42,2.42,0,0,1,2.622-2.124,2.378,2.378,0,0,1,2.524,2.2A2.408,2.408,0,0,1,517.893,118.4Zm29.975-2.078a2,2,0,0,1-2.165,1.755,1.812,1.812,0,1,1,2.165-1.755Zm-1.041-2.176a3.279,3.279,0,0,0-1.039-.19A2.647,2.647,0,0,0,543,116.012l-21.006.008h-.85a3.04,3.04,0,0,0-3.147-2.491,3.758,3.758,0,0,0-1.391.25L506.284,98.79a2.908,2.908,0,0,0,.034-5.326l10.4-15.125a3.371,3.371,0,0,0,1.142.209,2.773,2.773,0,0,0,2.984-2.338l21.175-.006a3.6,3.6,0,0,0,3.672,2.771,4.448,4.448,0,0,0,1.494-.233L557.827,94.2a2.42,2.42,0,0,0-1.339,2.022,2.378,2.378,0,0,0,1.243,2.052Zm12.567-15.953a2.116,2.116,0,0,1-2.248-1.96,2.151,2.151,0,0,1,2.331-1.884,2.108,2.108,0,0,1,2.245,1.958A2.151,2.151,0,0,1,559.395,98.187Zm30.054-2.127a1.989,1.989,0,0,1-2.163,1.751A1.963,1.963,0,0,1,585.2,96a1.993,1.993,0,0,1,2.165-1.753A1.971,1.971,0,0,1,589.448,96.06Zm-1.023-2.173a3.3,3.3,0,0,0-1.052-.192,2.636,2.636,0,0,0-2.806,2.129l-22.234,0a2.848,2.848,0,0,0-2.847-2.037,3.492,3.492,0,0,0-1.005.143L547.83,78.458a2.9,2.9,0,0,0,.052-5.264L557.8,58.766a4.337,4.337,0,0,0,1.727.384c2.075.034,3.8-1.365,3.843-3.114v-.019l21.329-.006a2.608,2.608,0,0,0,2.71,2.2,3.254,3.254,0,0,0,1.066-.164L598.949,73.26a2.911,2.911,0,0,0-.013,5.333Zm12.491-15.34a2.874,2.874,0,0,1-3.062-2.664,2.922,2.922,0,0,1,3.174-2.572,2.889,2.889,0,0,1,3.064,2.668A2.93,2.93,0,0,1,600.916,78.548Zm30.343,37.718a1.993,1.993,0,0,1-2.167,1.751,1.966,1.966,0,0,1-2.082-1.817,1.989,1.989,0,0,1,2.163-1.751A1.959,1.959,0,0,1,631.26,116.266Zm53.256-2.295a2.514,2.514,0,0,1,2.678,2.323,2.56,2.56,0,0,1-2.779,2.246,2.52,2.52,0,0,1-2.674-2.331A2.558,2.558,0,0,1,684.516,113.971ZM670.749,53.349a2.522,2.522,0,0,1,2.676,2.327,2.564,2.564,0,0,1-2.782,2.246,2.518,2.518,0,0,1-2.672-2.327A2.556,2.556,0,0,1,670.749,53.349ZM640.7,55.68a2,2,0,0,1,2.165-1.747,1.966,1.966,0,0,1,2.093,1.811,2,2,0,0,1-2.165,1.755A1.971,1.971,0,0,1,640.7,55.68ZM628.976,78.318a2.518,2.518,0,0,1-2.674-2.327,2.555,2.555,0,0,1,2.777-2.25,2.511,2.511,0,0,1,2.672,2.327A2.557,2.557,0,0,1,628.976,78.318Zm13.743,19.449a1.954,1.954,0,0,1-2.084-1.813,2,2,0,0,1,2.16-1.756,1.812,1.812,0,1,1-.076,3.569Zm31.1-1.721a2.923,2.923,0,0,1-3.177,2.568,2.879,2.879,0,0,1-3.062-2.662,2.931,2.931,0,0,1,3.174-2.574A2.89,2.89,0,0,1,673.82,96.047Zm-1.57-2.931a4.249,4.249,0,0,0-1.483-.284A3.566,3.566,0,0,0,666.94,95.8l-21.426,0a2.607,2.607,0,0,0-2.705-2.152,3.146,3.146,0,0,0-1.14.194L630.984,78.332a2.583,2.583,0,0,0-.092-4.658l10.876-15.81a3.19,3.19,0,0,0,1.01.184,2.653,2.653,0,0,0,2.8-2.056l21.789,0a3.2,3.2,0,0,0,3.28,2.478,3.93,3.93,0,0,0,1.252-.181l10.9,15.84a2.088,2.088,0,0,0,.013,3.633Zm12.235-15.39a1.966,1.966,0,0,1-2.084-1.819,2.006,2.006,0,0,1,2.167-1.755,1.968,1.968,0,0,1,2.084,1.819A2,2,0,0,1,684.485,77.725Zm83.313,36.7a1.959,1.959,0,0,1,2.082,1.82,1.988,1.988,0,0,1-2.165,1.751,1.964,1.964,0,0,1-2.084-1.819A2,2,0,0,1,767.8,114.421ZM753.752,54.008a1.96,1.96,0,0,1,2.086,1.815,2,2,0,0,1-2.165,1.753,1.964,1.964,0,0,1-2.084-1.819A1.99,1.99,0,0,1,753.752,54.008ZM722.61,55.7a3.367,3.367,0,0,1,3.663-2.961,3.319,3.319,0,0,1,3.529,3.071,3.369,3.369,0,0,1-3.663,2.963A3.318,3.318,0,0,1,722.61,55.7ZM712.234,78.149a2.518,2.518,0,0,1-2.674-2.331,2.555,2.555,0,0,1,2.773-2.244,2.525,2.525,0,0,1,2.681,2.327A2.564,2.564,0,0,1,712.234,78.149Zm13.92,20.071a2.526,2.526,0,0,1-2.678-2.329,2.568,2.568,0,0,1,2.782-2.248,2.529,2.529,0,0,1,2.676,2.331A2.567,2.567,0,0,1,726.154,98.219Zm30.8-2.148a2.926,2.926,0,0,1-3.181,2.568,2.882,2.882,0,0,1-3.062-2.666,2.936,2.936,0,0,1,3.174-2.572A2.893,2.893,0,0,1,756.957,96.071Zm-1.573-2.935a4.366,4.366,0,0,0-1.483-.281,3.577,3.577,0,0,0-3.825,2.922l-20.513.009a3.159,3.159,0,0,0-3.3-2.692,3.832,3.832,0,0,0-1.647.348L714.146,78.228a2.774,2.774,0,0,0,1.519-2.316,2.73,2.73,0,0,0-1.5-2.4L724.207,58.9a4.861,4.861,0,0,0,1.92.424c2.284.038,4.177-1.453,4.314-3.345l20.515-.006a2.606,2.606,0,0,0,2.708,2.154,3.186,3.186,0,0,0,1.259-.243l10.855,15.769a2.525,2.525,0,0,0,.078,4.255Zm12.6-15.1a2.519,2.519,0,0,1-2.679-2.329,2.557,2.557,0,0,1,2.771-2.244,2.523,2.523,0,0,1,2.683,2.329A2.563,2.563,0,0,1,767.986,78.038Zm69.1-24.158a1.808,1.808,0,0,1,1.927,1.674,1.837,1.837,0,0,1-2,1.615,1.8,1.8,0,0,1-1.925-1.674A1.839,1.839,0,0,1,837.089,53.88Zm-30.222,1.8A2.153,2.153,0,0,1,809.2,53.8a2.114,2.114,0,0,1,2.248,1.956,2.153,2.153,0,0,1-2.335,1.886A2.124,2.124,0,0,1,806.867,55.68ZM795.329,78.456a2.879,2.879,0,0,1-3.06-2.662,2.927,2.927,0,0,1,3.176-2.572,2.88,2.88,0,0,1,3.064,2.662A2.929,2.929,0,0,1,795.329,78.456Zm13.839,19.363A1.962,1.962,0,0,1,807.082,96a2,2,0,0,1,2.165-1.751,1.964,1.964,0,0,1,2.091,1.819A2,2,0,0,1,809.168,97.818Zm30.547-1.747a2.554,2.554,0,0,1-2.773,2.242,2.52,2.52,0,0,1-2.677-2.331,2.559,2.559,0,0,1,2.777-2.246A2.515,2.515,0,0,1,839.716,96.071Zm-1.337-2.632a3.864,3.864,0,0,0-1.323-.252,3.227,3.227,0,0,0-3.412,2.572l-21.684.006a2.639,2.639,0,0,0-2.7-2.063,3.187,3.187,0,0,0-1.083.168L797.548,78.428a2.892,2.892,0,0,0-.031-5.205l10.474-15.24a3.386,3.386,0,0,0,1.113.2,2.8,2.8,0,0,0,2.973-2.233l22.409-.008a2.556,2.556,0,0,0,2.524,1.779,3.222,3.222,0,0,0,.893-.128l10.487,15.234a3.258,3.258,0,0,0,.117,5.878Zm12.408-14.682a3.334,3.334,0,0,1-3.538-3.076,3.378,3.378,0,0,1,3.661-2.963,3.33,3.33,0,0,1,3.54,3.076A3.388,3.388,0,0,1,850.787,78.757Z" transform="translate(-265.218 -33.817)" fill="#fff"/>
        <path id="Path_840" data-name="Path 840" d="M477.016,118.033a2.665,2.665,0,0,0-1.173.245L465.014,99.691a3.206,3.206,0,0,0-.105-5.22l10.923-19.084a2.716,2.716,0,0,0,1.054.227,2.759,2.759,0,0,0,2.8-2.45l.007-.653a2.743,2.743,0,0,0-3.951-2.172L465.322,52.451a4.244,4.244,0,0,0,0-7.026l10.315-18.041a2.688,2.688,0,0,0,.942.2,2.783,2.783,0,0,0,.1-5.566,2.992,2.992,0,0,0-1.133.224l-.563.339a2.767,2.767,0,0,0,.072,4.511L464.752,45.1A4.189,4.189,0,0,0,463,44.687a4.254,4.254,0,0,0-4.307,3.93l-19.824.083a3.778,3.778,0,0,0-3.695-3.565,3.856,3.856,0,0,0-1.727.388l-10.6-18.184a2.768,2.768,0,0,0-.029-4.482l-.572-.31a2.818,2.818,0,0,0-1-.211,2.78,2.78,0,1,0-.1,5.559,2.7,2.7,0,0,0,1.137-.229l10.609,18.2a3.756,3.756,0,0,0,.119,6.183L422.941,69.673a3.633,3.633,0,0,0-1.391-.3,3.776,3.776,0,0,0-3.827,3.423l-20.457.081a3.781,3.781,0,0,0-3.69-3.421,3.831,3.831,0,0,0-1.638.345L381.493,51.866a3.188,3.188,0,0,0,1.232-2.456,3.223,3.223,0,0,0-6.425-.422l-.007.655a3.219,3.219,0,0,0,3.138,2.937,3.272,3.272,0,0,0,1.512-.357l10.429,17.9a3.763,3.763,0,0,0,.02,6.225L381.352,93.885a3.658,3.658,0,0,0-1.508-.354,3.782,3.782,0,0,0-3.832,3.549l-21.193.09a2.75,2.75,0,0,0-3.957-2.347l-.554.359a2.771,2.771,0,1,0,4.478,2.64l21.242-.085a3.777,3.777,0,0,0,3.684,3.343,3.715,3.715,0,0,0,1.653-.359l10.584,18.16a3.11,3.11,0,1,0,4.989,2.746l-.018-.707a3.1,3.1,0,0,0-3.017-2.7,3.154,3.154,0,0,0-1.4.319L381.933,100.4a3.781,3.781,0,0,0,1.617-3.028,3.741,3.741,0,0,0-1.57-3.12L392.021,76.7a3.765,3.765,0,0,0,5.245-3.165l20.455-.087a3.778,3.778,0,0,0,3.69,3.477,3.84,3.84,0,0,0,1.568-.314l10.149,17.424.3.516a3.2,3.2,0,0,0-.02,5.193l.563.336a3.209,3.209,0,0,0,4.549-2.636l21.359-.079a3.22,3.22,0,0,0,3.143,2.988,3.114,3.114,0,0,0,1.434-.323l10.831,18.586a2.771,2.771,0,1,0,4.419,2.643l.027-.655A2.775,2.775,0,0,0,477.016,118.033ZM474.5,24.764a2.126,2.126,0,1,1,2.091,2.16A2.133,2.133,0,0,1,474.5,24.764Zm-53.337,2.477a2.125,2.125,0,1,1,2.165-2.084A2.123,2.123,0,0,1,421.164,27.241ZM379.447,51.926a2.576,2.576,0,1,1,2.625-2.528A2.579,2.579,0,0,1,379.447,51.926ZM352.025,99.449a2.127,2.127,0,1,1,2.165-2.091A2.133,2.133,0,0,1,352.025,99.449Zm41.865,19.423a2.467,2.467,0,1,1-2.515,2.421A2.478,2.478,0,0,1,393.89,118.872ZM382.9,97.365a3.121,3.121,0,1,1-3.067-3.179A3.115,3.115,0,0,1,382.9,97.365Zm10.555-21.015a3.12,3.12,0,1,1,3.179-3.064A3.121,3.121,0,0,1,393.452,76.349Zm83.526-5.635a2.125,2.125,0,1,1-2.169,2.084A2.117,2.117,0,0,1,476.978,70.714ZM463,45.342a3.6,3.6,0,1,1-3.663,3.533A3.6,3.6,0,0,1,463,45.342Zm-31.012,3.513a3.122,3.122,0,1,1,3.064,3.174A3.126,3.126,0,0,1,431.988,48.855ZM421.427,76.269A3.122,3.122,0,1,1,424.6,73.2,3.13,3.13,0,0,1,421.427,76.269ZM435.27,99.723a2.574,2.574,0,1,1,2.622-2.53A2.579,2.579,0,0,1,435.27,99.723Zm3.242-2.93a3.2,3.2,0,0,0-4.52-2.582L423.558,76.3a3.768,3.768,0,0,0-.036-6.322l10.07-17.606a3.81,3.81,0,0,0,1.447.314,3.772,3.772,0,0,0,3.811-3.293l19.849-.076a4.239,4.239,0,0,0,6.055,3.464l10.434,17.911a2.75,2.75,0,0,0,.022,4.316L464.27,94.134a3.1,3.1,0,0,0-1.133-.236,3.219,3.219,0,0,0-3.244,2.809Zm24.52,2.905a2.575,2.575,0,1,1,2.625-2.526A2.575,2.575,0,0,1,463.031,99.7Zm13.9,23.236a2.126,2.126,0,1,1,2.167-2.093A2.125,2.125,0,0,1,476.926,122.934Z" transform="translate(-349.281 -22.016)" fill="#fff"/>
      </g>
    </g>
    <g id="Group_873" data-name="Group 873" transform="translate(401.815 33.459)" style="mix-blend-mode: screen;isolation: isolate">
      <path id="Path_841" data-name="Path 841" d="M400.041,60.214A27.753,27.753,0,1,1,372.288,32.46,27.753,27.753,0,0,1,400.041,60.214Z" transform="translate(-344.534 -30.383)" fill="url(#radial-gradient)"/>
      <path id="Path_842" data-name="Path 842" d="M418.5,71.033A27.754,27.754,0,1,1,390.75,43.281,27.756,27.756,0,0,1,418.5,71.033Z" transform="translate(-321.58 -16.929)" fill="url(#radial-gradient-2)"/>
      <path id="Path_843" data-name="Path 843" d="M436.871,59.288a27.756,27.756,0,1,1-27.757-27.754A27.754,27.754,0,0,1,436.871,59.288Z" transform="translate(-298.747 -31.534)" fill="url(#radial-gradient-3)"/>
      <path id="Path_844" data-name="Path 844" d="M455.577,70.609a27.757,27.757,0,1,1-27.754-27.752A27.756,27.756,0,0,1,455.577,70.609Z" transform="translate(-275.492 -17.456)" fill="url(#radial-gradient-4)"/>
      <path id="Path_845" data-name="Path 845" d="M474.123,81.548A27.753,27.753,0,1,1,446.37,53.8,27.752,27.752,0,0,1,474.123,81.548Z" transform="translate(-252.426 -3.855)" fill="url(#radial-gradient-5)"/>
      <path id="Path_846" data-name="Path 846" d="M492.77,70.017a27.756,27.756,0,1,1-27.757-27.754A27.756,27.756,0,0,1,492.77,70.017Z" transform="translate(-229.247 -18.194)" fill="url(#radial-gradient-6)"/>
      <path id="Path_847" data-name="Path 847" d="M511.31,81.373a27.754,27.754,0,1,1-27.752-27.752A27.754,27.754,0,0,1,511.31,81.373Z" transform="translate(-206.193 -4.073)" fill="url(#radial-gradient-7)"/>
      <path id="Path_848" data-name="Path 848" d="M529.832,70.206a27.754,27.754,0,1,1-27.759-27.752A27.755,27.755,0,0,1,529.832,70.206Z" transform="translate(-183.164 -17.957)" fill="url(#radial-gradient-8)"/>
      <path id="Path_849" data-name="Path 849" d="M548.96,81.305a27.755,27.755,0,1,1-27.754-27.754A27.757,27.757,0,0,1,548.96,81.305Z" transform="translate(-159.384 -4.16)" fill="url(#radial-gradient-9)"/>
      <circle id="Ellipse_354" data-name="Ellipse 354" cx="27.754" cy="27.754" r="27.754" transform="matrix(0.161, -0.987, 0.987, 0.161, 370.492, 75.873)" fill="url(#radial-gradient-10)"/>
    </g>
    <g id="Group_888" data-name="Group 888" transform="translate(422.817 51.741)" opacity="0.7">
      <g id="Group_874" data-name="Group 874" transform="translate(204.45 21.985)">
        <path id="Path_850" data-name="Path 850" d="M454.224,56.546h-1.741V54.8a.423.423,0,0,0-.422-.424h-1.281a.424.424,0,0,0-.424.424v1.741h-1.739a.426.426,0,0,0-.426.424v1.281a.423.423,0,0,0,.426.42h1.739v1.743a.425.425,0,0,0,.424.422h1.281a.424.424,0,0,0,.422-.422V58.67h1.741a.422.422,0,0,0,.422-.42V56.97A.425.425,0,0,0,454.224,56.546Z" transform="translate(-441.105 -43.844)" fill="aqua"/>
        <path id="Path_851" data-name="Path 851" d="M459.68,54.364h-1.4c0-1.622-.6-3.282-5.068-3.282s-5.068,1.66-5.068,3.282h-1.4c0-4.68,4.864-4.68,6.463-4.68S459.68,49.684,459.68,54.364Z" transform="translate(-442.898 -49.684)" fill="aqua"/>
        <path id="Path_852" data-name="Path 852" d="M461.468,52.052H449.226a4.2,4.2,0,0,0-4.193,4.2v8.509a4.2,4.2,0,0,0,4.193,4.2h12.242a4.2,4.2,0,0,0,4.2-4.2V56.249A4.2,4.2,0,0,0,461.468,52.052Zm-6.12,13.455a5,5,0,1,1,5-5A5,5,0,0,1,455.348,65.507Z" transform="translate(-445.033 -46.74)" fill="aqua"/>
      </g>
      <g id="Group_876" data-name="Group 876" transform="translate(286.526 22.335)">
        <path id="Path_853" data-name="Path 853" d="M497.164,56.391a5.982,5.982,0,0,1-8.323,0c-4.224.729-7.221,2.854-7.221,7.67h22.765C504.385,59.245,501.393,57.12,497.164,56.391Z" transform="translate(-481.62 -41.695)" fill="aqua"/>
        <path id="Path_854" data-name="Path 854" d="M484.183,53.035a5.782,5.782,0,0,0-.159,1.357,5.991,5.991,0,1,0,11.825-1.357Z" transform="translate(-478.631 -45.868)" fill="aqua"/>
        <g id="Group_875" data-name="Group 875" transform="translate(4.897)">
          <path id="Path_855" data-name="Path 855" d="M493.546,49.84h-6.51a3.243,3.243,0,0,0-3.233,3.235l.657,3.251h11.654l.66-3.251A3.242,3.242,0,0,0,493.546,49.84Zm-3.26,5.788a2.544,2.544,0,1,1,2.551-2.544A2.541,2.541,0,0,1,490.286,55.628Z" transform="translate(-483.803 -49.84)" fill="aqua"/>
          <path id="Path_856" data-name="Path 856" d="M489.4,51.714h-1.023V50.687a.252.252,0,0,0-.254-.249h-.754a.253.253,0,0,0-.249.249v1.027H486.1a.249.249,0,0,0-.249.247v.758a.25.25,0,0,0,.249.249h1.027v1.025a.253.253,0,0,0,.249.249h.754a.252.252,0,0,0,.254-.249V52.968H489.4a.25.25,0,0,0,.249-.249v-.758A.249.249,0,0,0,489.4,51.714Z" transform="translate(-481.263 -49.096)" fill="aqua"/>
        </g>
      </g>
      <g id="Group_883" data-name="Group 883" transform="translate(74.974 1.846)">
        <g id="Group_878" data-name="Group 878" transform="translate(20.881 4.46)">
          <path id="Path_857" data-name="Path 857" d="M401.19,45.593a2.653,2.653,0,0,1-3.681,0,6.182,6.182,0,0,0-.767.179,4.64,4.64,0,0,1,1.081,3.212h6.562C404.384,46.852,403.06,45.914,401.19,45.593Z" transform="translate(-396.481 -39.092)" fill="aqua"/>
          <path id="Path_858" data-name="Path 858" d="M396.792,44.108a2.65,2.65,0,1,0,5.231.6,2.919,2.919,0,0,0-.065-.6Z" transform="translate(-396.504 -40.938)" fill="aqua"/>
          <g id="Group_877" data-name="Group 877">
            <path id="Path_859" data-name="Path 859" d="M400.932,42.695h-2.878a1.431,1.431,0,0,0-1.429,1.429l.289,1.438h5.157l.289-1.438A1.431,1.431,0,0,0,400.932,42.695Zm-1.44,2.56a1.126,1.126,0,1,1,1.126-1.126A1.127,1.127,0,0,1,399.492,45.255Z" transform="translate(-396.625 -42.695)" fill="aqua"/>
            <path id="Path_860" data-name="Path 860" d="M399.1,43.524h-.453v-.455a.11.11,0,0,0-.11-.11H398.2a.11.11,0,0,0-.108.11v.455h-.453a.114.114,0,0,0-.114.11v.334a.112.112,0,0,0,.114.108h.453v.458a.111.111,0,0,0,.108.108h.339a.111.111,0,0,0,.11-.108v-.458h.453a.108.108,0,0,0,.11-.108v-.334A.11.11,0,0,0,399.1,43.524Z" transform="translate(-395.503 -42.367)" fill="aqua"/>
          </g>
        </g>
        <g id="Group_880" data-name="Group 880" transform="translate(7.087)">
          <path id="Path_861" data-name="Path 861" d="M400.452,44.91a3.839,3.839,0,0,1-5.341,0c-2.712.469-4.635,1.833-4.635,4.924h14.611C405.087,46.743,403.164,45.379,400.452,44.91Z" transform="translate(-390.476 -35.481)" fill="aqua"/>
          <path id="Path_862" data-name="Path 862" d="M392.119,42.756a3.738,3.738,0,0,0-.1.87,3.842,3.842,0,1,0,7.683,0,3.738,3.738,0,0,0-.1-.87Z" transform="translate(-388.556 -38.159)" fill="aqua"/>
          <g id="Group_879" data-name="Group 879" transform="translate(3.145)">
            <path id="Path_863" data-name="Path 863" d="M398.126,40.707h-4.177a2.078,2.078,0,0,0-2.071,2.073l.419,2.089h7.484l.42-2.089A2.081,2.081,0,0,0,398.126,40.707Zm-2.089,3.717a1.635,1.635,0,1,1,1.635-1.638A1.634,1.634,0,0,1,396.037,44.424Z" transform="translate(-391.878 -40.707)" fill="aqua"/>
            <path id="Path_864" data-name="Path 864" d="M395.468,41.908h-.659V41.25a.156.156,0,0,0-.153-.159h-.489a.157.157,0,0,0-.159.159v.657h-.659a.16.16,0,0,0-.159.159v.485a.157.157,0,0,0,.159.159h.659v.66a.161.161,0,0,0,.159.164h.489a.16.16,0,0,0,.153-.164v-.66h.659a.158.158,0,0,0,.162-.159v-.485A.16.16,0,0,0,395.468,41.908Z" transform="translate(-390.248 -40.23)" fill="aqua"/>
          </g>
        </g>
        <g id="Group_882" data-name="Group 882" transform="translate(0 4.46)">
          <path id="Path_865" data-name="Path 865" d="M394.191,45.593a2.65,2.65,0,0,1-3.679,0c-1.873.321-3.195,1.259-3.195,3.392h6.562a4.64,4.64,0,0,1,1.079-3.212A6,6,0,0,0,394.191,45.593Z" transform="translate(-387.317 -39.092)" fill="aqua"/>
          <path id="Path_866" data-name="Path 866" d="M388.45,44.108a2.647,2.647,0,1,0,5.16,0Z" transform="translate(-385.995 -40.938)" fill="aqua"/>
          <g id="Group_881" data-name="Group 881" transform="translate(2.165)">
            <path id="Path_867" data-name="Path 867" d="M392.587,42.695h-2.874a1.433,1.433,0,0,0-1.431,1.429l.292,1.438h5.153l.294-1.438A1.432,1.432,0,0,0,392.587,42.695Zm-1.436,2.56a1.126,1.126,0,1,1,1.128-1.126A1.127,1.127,0,0,1,391.151,45.255Z" transform="translate(-388.282 -42.695)" fill="aqua"/>
            <path id="Path_868" data-name="Path 868" d="M390.762,43.524h-.455v-.455a.111.111,0,0,0-.112-.11h-.337a.111.111,0,0,0-.108.11v.455H389.3a.112.112,0,0,0-.112.11v.334a.11.11,0,0,0,.112.108h.453v.458a.112.112,0,0,0,.108.108h.337a.112.112,0,0,0,.112-.108v-.458h.455a.108.108,0,0,0,.108-.108v-.334A.11.11,0,0,0,390.762,43.524Z" transform="translate(-387.159 -42.367)" fill="aqua"/>
          </g>
        </g>
      </g>
      <g id="Group_884" data-name="Group 884" transform="translate(374.02 22.945)">
        <path id="Path_869" data-name="Path 869" d="M528.275,57.069h-1.662V55.4a.407.407,0,0,0-.406-.4h-1.225a.4.4,0,0,0-.4.4v1.665h-1.66a.4.4,0,0,0-.4.4V58.7a.4.4,0,0,0,.4.4h1.66v1.662a.4.4,0,0,0,.4.4h1.225a.407.407,0,0,0,.406-.4V59.1h1.662a.4.4,0,0,0,.4-.4V57.471A.4.4,0,0,0,528.275,57.069Z" transform="translate(-518.27 -44.034)" fill="aqua"/>
        <path id="Path_870" data-name="Path 870" d="M531.161,53.11h-.083v-.931h-6.259v.931h-.085a4.11,4.11,0,0,0-4.112,4.112v8.74a4.11,4.11,0,0,0,4.112,4.112h6.427a4.112,4.112,0,0,0,4.112-4.112v-8.74A4.112,4.112,0,0,0,531.161,53.11Zm-3.213,13.11a4.629,4.629,0,1,1,4.628-4.628A4.63,4.63,0,0,1,527.949,66.22Z" transform="translate(-520.622 -47.543)" fill="aqua"/>
        <path id="Rectangle_2460" data-name="Rectangle 2460" d="M.37,0H7.154a.371.371,0,0,1,.371.371V3.733a.371.371,0,0,1-.371.371H.371A.371.371,0,0,1,0,3.732V.37A.37.37,0,0,1,.37,0Z" transform="translate(3.562)" fill="aqua"/>
      </g>
      <path id="Path_871" data-name="Path 871" d="M517.856,70.768a6.588,6.588,0,1,0-9.7,1.949l-1.018,1.772-.433-.256a.056.056,0,0,0-.076.027l-4.5,7.8a.047.047,0,0,0,.016.07l2.308,1.337a.064.064,0,0,0,.078-.022l4.5-7.8a.052.052,0,0,0-.02-.074l-.431-.251,1.025-1.77A6.6,6.6,0,0,0,517.856,70.768Zm-9.972-5.756a4.925,4.925,0,1,1,1.8,6.73A4.939,4.939,0,0,1,507.884,65.012Z" transform="translate(-169.607 -13.767)" fill="aqua"/>
      <g id="Group_885" data-name="Group 885">
        <path id="Path_872" data-name="Path 872" d="M361.517,50.984c2.97-2.685,5.884-5.588,5.884-11.1h-1.162c0,5.068-2.663,7.679-5.59,10.319-2.923-2.64-5.59-5.252-5.59-10.319H353.9c0,5.512,2.916,8.415,5.886,11.1-2.97,2.69-5.886,5.59-5.886,11.1h1.162c0-5.068,2.667-7.677,5.59-10.319,2.927,2.643,5.59,5.252,5.59,10.319H367.4C367.4,56.574,364.487,53.674,361.517,50.984Z" transform="translate(-353.896 -39.884)" fill="aqua"/>
        <path id="Path_873" data-name="Path 873" d="M362.833,47.783a.388.388,0,0,1-.408.361h-6.808a.365.365,0,1,1,0-.725h6.808A.389.389,0,0,1,362.833,47.783Z" transform="translate(-352.267 -30.514)" fill="aqua"/>
        <path id="Path_874" data-name="Path 874" d="M364.391,49.02a.391.391,0,0,1-.413.366h-8.81a.367.367,0,1,1,0-.729h8.81A.391.391,0,0,1,364.391,49.02Z" transform="translate(-352.822 -28.976)" fill="aqua"/>
        <path id="Path_875" data-name="Path 875" d="M359.707,46.549a.392.392,0,0,1-.415.359h-2.779a.365.365,0,1,1,0-.725h2.779A.4.4,0,0,1,359.707,46.549Z" transform="translate(-351.151 -32.052)" fill="aqua"/>
        <rect id="Rectangle_2461" data-name="Rectangle 2461" width="9.604" height="0.846" rx="0.184" transform="translate(1.951 1.735)" fill="aqua"/>
        <path id="Path_876" data-name="Path 876" d="M362.839,42.284a.391.391,0,0,1-.411.363h-6.815a.366.366,0,1,1,0-.727h6.815A.39.39,0,0,1,362.839,42.284Z" transform="translate(-352.268 -37.351)" fill="aqua"/>
        <path id="Path_877" data-name="Path 877" d="M359.707,43.52a.392.392,0,0,1-.413.363h-2.782a.365.365,0,1,1,0-.725h2.782A.392.392,0,0,1,359.707,43.52Z" transform="translate(-351.151 -35.812)" fill="aqua"/>
      </g>
      <path id="Path_878" data-name="Path 878" d="M477.872,68.406V61.121h-7.284v7.285H463.3v7.286h7.286V82.98h7.284V75.692h7.286V68.406Z" transform="translate(-217.869 -13.48)" fill="aqua"/>
      <g id="Group_886" data-name="Group 886" transform="translate(160.792 47.852)">
        <path id="Path_879" data-name="Path 879" d="M433.078,71.281a.436.436,0,0,1,.357.184l1.1,1.559.386-1.42,1.364-5.1a.43.43,0,0,1,.419-.323.444.444,0,0,1,.424.323l2.3,8.623.944-3.52.619-2.32a.437.437,0,0,1,.781-.139l1.508,2.133h5.956a7.118,7.118,0,0,0-11.513-7.98,7.118,7.118,0,0,0-11.513,7.98Z" transform="translate(-425.572 -61.215)" fill="aqua"/>
        <path id="Path_880" data-name="Path 880" d="M442.44,68.222a.447.447,0,0,1-.359-.184l-1.1-1.561L440.6,67.9,439.234,73a.433.433,0,0,1-.839,0l-2.306-8.623-.942,3.524-.628,2.322a.436.436,0,0,1-.346.314.443.443,0,0,1-.431-.179l-1.505-2.133h-6.171a7.013,7.013,0,0,0,.974,1.216L437.108,79.5l10.066-10.066a7,7,0,0,0,.971-1.216Z" transform="translate(-424.957 -57.286)" fill="aqua"/>
      </g>
      <path id="Path_881" data-name="Path 881" d="M398.591,58a1.8,1.8,0,0,0-1.691,1.2h-5.586l-2.037-2.878a.593.593,0,0,0-.581-.238.573.573,0,0,0-.462.426l-.841,3.125-1.265,4.749L383.018,52.76a.587.587,0,0,0-1.133,0l-1.835,6.874-.523,1.916-1.481-2.1a.587.587,0,0,0-.478-.249h-5.893a1.79,1.79,0,1,0,0,1.176h5.584l2.028,2.871a.588.588,0,0,0,.581.245.6.6,0,0,0,.469-.426l.846-3.127,1.27-4.749,3.107,11.623a.585.585,0,0,0,1.131,0l1.84-6.874.511-1.914,1.485,2.1a.609.609,0,0,0,.485.249H396.9A1.79,1.79,0,1,0,398.591,58Z" transform="translate(-336.119 -24.413)" fill="aqua"/>
      <g id="Group_887" data-name="Group 887" transform="translate(122.542 23.317)">
        <path id="Path_882" data-name="Path 882" d="M412.819,57.086a1.109,1.109,0,1,0-1.108-1.11A1.107,1.107,0,0,0,412.819,57.086Z" transform="translate(-404.555 -44.572)" fill="aqua"/>
        <path id="Path_883" data-name="Path 883" d="M412.987,55.311a.855.855,0,1,0-.852-.855A.854.854,0,0,0,412.987,55.311Z" transform="translate(-404.028 -46.145)" fill="aqua"/>
        <path id="Path_884" data-name="Path 884" d="M424.507,60.045a8.806,8.806,0,0,0-3.845-3.089V51.22a.471.471,0,1,0,0-.942h-6.717a.471.471,0,0,0,0,.942v5.736a8.792,8.792,0,0,0-1.436,15.486l.083.052h9.424l.079-.052a8.785,8.785,0,0,0,2.412-12.4Zm-2.687,11.786H412.79A8.124,8.124,0,0,1,414.4,57.49l.209-.083V51.22H420v6.187l.209.083a8.124,8.124,0,0,1,1.611,14.342Z" transform="translate(-408.521 -50.278)" fill="aqua"/>
        <path id="Path_885" data-name="Path 885" d="M416.071,58.659a1.65,1.65,0,0,0,.013-.3,1.52,1.52,0,0,0-1.613-1.411,1.788,1.788,0,0,0-.3.052,1.1,1.1,0,0,0,.137-.527,1.112,1.112,0,1,0-1.113,1.113,1.238,1.238,0,0,0,.159-.013,1.492,1.492,0,0,0-.3.992l.018.1h-3.991a7.511,7.511,0,0,0,3.338,6.252h8.354a7.511,7.511,0,0,0,3.345-6.252Zm-.289,5.4a1.515,1.515,0,0,1-1.516-1.516,1.549,1.549,0,0,1,.038-.323,1.268,1.268,0,0,1-.211.02,1.211,1.211,0,1,1,1.211-1.211c0,.029,0,.056-.007.09a1.4,1.4,0,0,1,.485-.09,1.515,1.515,0,0,1,0,3.031Zm3.329-1.516a1.211,1.211,0,1,1,1.216-1.211A1.212,1.212,0,0,1,419.11,62.54Z" transform="translate(-407.82 -43.958)" fill="aqua"/>
      </g>
    </g>
  </g>
</svg>
