<svg xmlns="http://www.w3.org/2000/svg" width="44.097" height="36.563" viewBox="0 0 44.097 36.563">
  <g id="Group_654" data-name="Group 654" transform="translate(7.473) rotate(16)">
    <path id="Path_326" data-name="Path 326" d="M392.626,725.308a6.6,6.6,0,0,1,2.044,2.135c1.271,2.045,1.318,3.864.683,5.045a3.06,3.06,0,0,1-1.093,1.182,2.886,2.886,0,0,1-1.543.408c-1.365.048-3-.817-4.227-2.861a6.4,6.4,0,0,1-1-2.818v-.048a3.889,3.889,0,0,1,.454-2.317l-.228-.363a.348.348,0,0,1-.091-.225h0v-.274h0c.048-.09.091-.136.138-.227h0c.044-.047.091-.138.182-.182h0l.138-.047-2.956-5a3.443,3.443,0,0,0-4.681-1.182,3.227,3.227,0,0,0-1.544,2.09,3.278,3.278,0,0,0,.363,2.59c.273.456.546.911.818,1.409.272.456.5.911.817,1.365v.044h0a4.769,4.769,0,0,1,.5,3.682,4.631,4.631,0,0,1-2.227,2.953v.048h0a4.828,4.828,0,0,1-3.681.5,4.911,4.911,0,0,1-3-2.226h0l-2.864-5.317a9.625,9.625,0,1,1,1.819-.726,1.614,1.614,0,0,1-.41.182,21.168,21.168,0,0,1,2.273,4.271h0c.182.363.272.635.364.819a3.549,3.549,0,0,0,2.135,1.591,3.828,3.828,0,0,0,2.637-.365,3.337,3.337,0,0,0,1.544-2.089,3.268,3.268,0,0,0-.363-2.591c-.273-.455-.545-.91-.818-1.409-.272-.455-.5-.91-.817-1.408h0a4.772,4.772,0,0,1-.5-3.682,4.607,4.607,0,0,1,2.226-3h0a4.833,4.833,0,0,1,3.683-.5,4.615,4.615,0,0,1,3,2.228h0l2.905,4.954a.34.34,0,0,1,.182-.047h0a.211.211,0,0,1,.229,0h0a.36.36,0,0,1,.228.091h0a.367.367,0,0,1,.182.182h.044l.229.41a4.3,4.3,0,0,1,2.227.726Z" transform="translate(-357.654 -706.97)" fill="#546f88" fill-rule="evenodd"/>
    <path id="Path_327" data-name="Path 327" d="M363.027,720.437l-.182-.363-.046.5Zm.5-.863c-.046,0-.046.046-.091.046v.138c.045.044.045.135.136.226a.707.707,0,0,0,.136.272c.047.048.047.048.091.048h.09a.047.047,0,0,1,.048-.048v-.091c-.048-.091-.048-.181-.138-.272a.734.734,0,0,0-.136-.272c-.046,0-.046-.046-.091-.046Zm-.091-.136c.091-.045.181-.091.272-.045a.847.847,0,0,1,.319.364.738.738,0,0,1,.091.5.237.237,0,0,1-.181.229.3.3,0,0,1-.274,0,.872.872,0,0,1-.318-.363.7.7,0,0,1-.09-.5c0-.09.09-.136.182-.182Zm-.817-3.5c.045.046.091.091.136.091.045.046.045.046.091,0a.1.1,0,0,0,.091-.091V715.8c-.045-.047-.091-.091-.136-.091-.045-.047-.045-.047-.09,0a.1.1,0,0,0-.091.091v.136Zm-.182-.455a.1.1,0,0,0,.091.09h.091c.045-.044.045-.044.045-.09a.084.084,0,0,0,0-.135.156.156,0,0,0-.091-.047h-.091c-.045.047-.045.047-.045.091-.047.047-.047.047,0,.091Zm.045.228a.162.162,0,0,1-.136-.047.1.1,0,0,1-.091-.091.394.394,0,0,1-.047-.225.35.35,0,0,1,.182-.181c.138-.048.183-.091.274-.048.091,0,.136.048.182.137a.165.165,0,0,1,.046.135c0,.047-.046.091-.091.137.091,0,.136,0,.182.044s.091.091.136.138a.575.575,0,0,1,.046.273c-.046.09-.136.136-.227.226a.573.573,0,0,1-.272.046.453.453,0,0,1-.227-.182c0-.09-.047-.136-.047-.182.047-.091.047-.138.092-.182Zm.817-.817c-.045.043-.045.043-.045.09-.046,0-.046.044,0,.091a1.9,1.9,0,0,0,.09.272.955.955,0,0,0,.136.225.139.139,0,0,0,.091.047c.045.044.045.044.091,0a.045.045,0,0,0,.046-.047v-.09a.72.72,0,0,0-.136-.272.477.477,0,0,0-.136-.226.1.1,0,0,0-.091-.09Zm-.091-.138a.3.3,0,0,1,.272,0c.136.047.227.138.318.363a.583.583,0,0,1,.09.454.252.252,0,0,1-.135.229.4.4,0,0,1-.319,0,1.374,1.374,0,0,1-.318-.363.62.62,0,0,1-.091-.454.308.308,0,0,1,.182-.229Zm2.045-1.635-.227.091-.363-.729a.939.939,0,0,1-.181.274l-.091-.182a.64.64,0,0,0,.136-.183.406.406,0,0,0,.045-.225l.136-.091Zm.864-.682.091.181-.681.364a.4.4,0,0,1-.047-.227,2.257,2.257,0,0,1,.091-.365,1.819,1.819,0,0,0,.091-.225c0-.091,0-.138-.044-.138a.1.1,0,0,0-.091-.09h-.092c-.045.047-.091.047-.091.09a.17.17,0,0,0,.046.138l-.227.091c-.046-.138-.046-.229,0-.273a.464.464,0,0,1,.182-.228.3.3,0,0,1,.274,0c.091,0,.182.047.182.138a.167.167,0,0,1,.044.134v.182c0,.047-.044.091-.044.182-.047.091-.047.183-.091.183v.09Zm.091-.909a.044.044,0,0,1-.045.044v.137a.716.716,0,0,0,.136.272.937.937,0,0,0,.136.226c0,.047.045.047.091.047h.046a.046.046,0,0,0,.045-.047c.045-.044.045-.044,0-.091a.644.644,0,0,0-.091-.273c-.046-.135-.091-.225-.136-.225-.046-.047-.091-.091-.091-.091Zm-.091-.137a.911.911,0,0,1,.318-.044,2.936,2.936,0,0,1,.318.363.729.729,0,0,1,.091.5.308.308,0,0,1-.182.229.3.3,0,0,1-.272,0,.647.647,0,0,1-.318-.363.62.62,0,0,1-.091-.454.212.212,0,0,1,.136-.229Zm2.908,1.682-.182.137-.408-.773a.387.387,0,0,1-.136.272l-.091-.182a.681.681,0,0,1,.091-.137.489.489,0,0,0,.046-.225l.181-.091Zm.319-.592c.046.093.091.093.136.137h.136c.046,0,.046-.045.046-.091.046-.047,0-.09,0-.137-.046-.091-.091-.135-.136-.135a.083.083,0,0,0-.136,0,.152.152,0,0,0-.046.09v.135Zm.227-.636-.182.091-.046-.044h-.09c-.047.044-.091.044-.091.134a.513.513,0,0,0,.044.229.639.639,0,0,1,.137-.182.278.278,0,0,1,.272,0,.443.443,0,0,1,.227.182.387.387,0,0,1,0,.318.3.3,0,0,1-.182.226.383.383,0,0,1-.318,0,.833.833,0,0,1-.272-.363.586.586,0,0,1-.091-.455c0-.09.091-.181.182-.272.091,0,.181-.046.227,0,.091,0,.136.044.182.135Zm.454-.316c-.046,0-.046,0-.091.044v.091c.045.046.045.137.136.272a.493.493,0,0,0,.136.229c.046.044.046.091.091.091a.139.139,0,0,0,.091-.047l.045-.044v-.091c-.045-.048-.045-.138-.136-.272a1.017,1.017,0,0,0-.136-.229l-.091-.091a.045.045,0,0,0-.045.047Zm-.091-.182a.283.283,0,0,1,.272,0,.854.854,0,0,1,.318.363.612.612,0,0,1,.091.455.3.3,0,0,1-.182.225.28.28,0,0,1-.272,0,.634.634,0,0,1-.318-.364.589.589,0,0,1-.091-.454.3.3,0,0,1,.182-.226Zm2.818,4.406.091.183-.728.364v-.227a2.075,2.075,0,0,1,.091-.363c.047-.138.047-.228.091-.228,0-.091,0-.135-.044-.182a.167.167,0,0,0-.092-.044c-.046-.046-.046-.046-.091,0a.1.1,0,0,0-.09.091v.135l-.182.09a.384.384,0,0,1,0-.317c.046-.046.091-.137.182-.181a.56.56,0,0,1,.274-.047.366.366,0,0,1,.182.182.172.172,0,0,1,.044.137v.182c0,.044-.044.091-.044.182-.047.091-.091.135-.091.182v.091Zm.091-.908-.045.048v.134a.739.739,0,0,0,.091.228,2.949,2.949,0,0,0,.182.273c0,.044.046.044.091.044h.045a.043.043,0,0,0,.046-.044v-.091a.642.642,0,0,0-.091-.272c-.045-.138-.136-.229-.136-.272a.157.157,0,0,1-.091-.048Zm-.091-.135a.278.278,0,0,1,.318-.047,1.293,1.293,0,0,1,.408.864.782.782,0,0,1-.182.225.371.371,0,0,1-.318,0,.821.821,0,0,1-.272-.363,1.384,1.384,0,0,1-.138-.5.358.358,0,0,1,.183-.182Zm.908-.274-.091.09v.091c.046.045.046.136.136.274a.964.964,0,0,0,.137.225c.046.048.046.048.092.048h.091s0-.048.044-.048v-.091a1.408,1.408,0,0,0-.135-.272c-.047-.136-.092-.227-.137-.227-.046-.045-.046-.09-.091-.09Zm-.091-.136a.568.568,0,0,1,.272-.046,1.044,1.044,0,0,1,.318.409.582.582,0,0,1,.091.454.232.232,0,0,1-.181.229.3.3,0,0,1-.272,0,.865.865,0,0,1-.318-.363.624.624,0,0,1-.091-.456c0-.136.091-.182.182-.226Zm-.545,6.09.091.182-.681.363a.4.4,0,0,1-.047-.229,1.5,1.5,0,0,1,.091-.363,2.362,2.362,0,0,1,.091-.225v-.182a.135.135,0,0,0-.091-.047.085.085,0,0,0-.135,0c-.047,0-.047.047-.091.091a.174.174,0,0,0,.044.137l-.227.091a.389.389,0,0,1,0-.319c.046-.044.091-.135.183-.181a.87.87,0,0,1,.316-.046c.047.046.138.092.183.183,0,.044.046.091.046.135a.338.338,0,0,1-.046.181.342.342,0,0,1-.045.182.348.348,0,0,0-.045.182c-.046.047-.046.047-.046.091Zm.409-.454-.182-.32-.046.454Zm.182.407-.091-.225-.408.225-.091-.182.091-.864.181-.091.318.639.136-.047.091.137-.137.091.091.182Zm.319-1.271-.047.044v.138a1.977,1.977,0,0,0,.091.273.417.417,0,0,1,.138.228.138.138,0,0,0,.09.044h.091l.044-.044v-.092a.612.612,0,0,0-.091-.272,2.087,2.087,0,0,1-.134-.228l-.091-.091Zm-.092-.137a.607.607,0,0,1,.274-.044.777.777,0,0,1,.318.407,1.025,1.025,0,0,1,.136.457.447.447,0,0,1-.182.226.382.382,0,0,1-.319,0,.821.821,0,0,1-.272-.364,1.194,1.194,0,0,1-.137-.454.322.322,0,0,1,.182-.228Zm-7.089,3.773c-.045.045-.045.045-.045.091-.046,0-.046.045,0,.09a1.721,1.721,0,0,0,.091.272,1.042,1.042,0,0,0,.136.229.143.143,0,0,0,.09.043c.046.047.046,0,.091,0a.044.044,0,0,0,.045-.043V723.3c0-.091-.045-.138-.136-.274-.045-.136-.09-.226-.136-.226a.1.1,0,0,0-.091-.091Zm-.091-.138a.3.3,0,0,1,.273,0c.136.047.227.138.318.365a.586.586,0,0,1,.091.456.245.245,0,0,1-.135.225.378.378,0,0,1-.32,0,1.336,1.336,0,0,1-.318-.363.618.618,0,0,1-.091-.454.308.308,0,0,1,.182-.229Zm7.044-.636h0a.315.315,0,0,0,.137.454l1,.591a9.058,9.058,0,0,1-2.226,1.91c-.047-.047-.047-.047-.047-.092l-.545-1.092a.523.523,0,0,0-.636-.226h0a.477.477,0,0,0-.227.636l.545,1.09a.152.152,0,0,0,.045.091,8.069,8.069,0,0,1-2.727.726v-.044l.182-1.273a.351.351,0,0,0-.317-.365h0a.432.432,0,0,0-.41.365l-.136,1.226v.138a8.348,8.348,0,0,1-2.136-.272l.364-1.181a.493.493,0,0,0-.318-.638.525.525,0,0,0-.683.32l-.363,1.136a7.685,7.685,0,0,1-2.135-1.228l.773-.908a.326.326,0,0,0-.047-.5.358.358,0,0,0-.5.045l-.772.91a8.429,8.429,0,0,1-1.5-1.863l1.09-.547a.571.571,0,0,0,.229-.727.529.529,0,0,0-.728-.226l-1.045.545a7.549,7.549,0,0,1-.638-2.408l1.182-.046a.169.169,0,0,1,.136-.044c.136-.091.227-.182.182-.364a.352.352,0,0,0-.363-.32l-1.182.091a6.887,6.887,0,0,1,.273-2.364l1.136.363a.339.339,0,0,0,.363-.044.4.4,0,0,0,.272-.319.491.491,0,0,0-.318-.636l-1.135-.363a7.666,7.666,0,0,1,1.226-2.136l.909.774a.437.437,0,0,0,.408.044s.046-.044.091-.091a.359.359,0,0,0-.045-.5l-.908-.772a8.318,8.318,0,0,1,1.863-1.5l.545,1.09a.572.572,0,0,0,.726.229.533.533,0,0,0,.229-.728l-.546-1.045a7.546,7.546,0,0,1,2.409-.638l.044,1.182c.047.182.183.363.41.316a.171.171,0,0,0,.136-.044.385.385,0,0,0,.182-.32l-.091-1.228a10.178,10.178,0,0,1,2.362.274l-.363,1.183a.484.484,0,0,0,.363.635.336.336,0,0,0,.363-.045.409.409,0,0,0,.274-.272l.364-1.135a6.66,6.66,0,0,1,2.135,1.226l-.772.909a.349.349,0,0,0,.408.545c.046,0,.091-.047.136-.091l.774-.908a8.417,8.417,0,0,1,1.5,1.863l-1.09.544a.57.57,0,0,0-.227.727.531.531,0,0,0,.726.228l1.092-.547a9.011,9.011,0,0,1,.59,2.363l-1.182.091c-.182.047-.364.182-.318.41a.35.35,0,0,0,.364.316l1.227-.091a10.228,10.228,0,0,1-.272,2.364l-1.137-.364a.513.513,0,0,0-.681.364.49.49,0,0,0,.318.635l1.137.363a7.335,7.335,0,0,1-.864,1.682l-1.046-.589a.432.432,0,0,0-.545.135Zm-5.725-4.816-3.136-1.182,2.59,2.137a1.109,1.109,0,0,0,.592,1.09,1.175,1.175,0,0,0,1.636-.454,1.233,1.233,0,0,0-.408-1.638,1.179,1.179,0,0,0-1.273.047Zm-4.772,3.679-.091-.182-.454.228-.091-.182.136-.863.182-.091.318.635.136-.043.091.134-.136.091.091.182Z" transform="translate(-358.821 -708.098)" fill="#6b98c1" fill-rule="evenodd"/>
  </g>
</svg>
