<svg xmlns="http://www.w3.org/2000/svg" width="72.423" height="39.816" viewBox="0 0 72.423 39.816">
  <g id="Group_742" data-name="Group 742" transform="translate(-342.805 -1691.855)">
    <path id="Path_731" data-name="Path 731" d="M623.2,1805.981a3.586,3.586,0,0,1-.029.021,11.857,11.857,0,0,0-.023.027s0,.006,0,.008a.11.11,0,0,0-.007.022.084.084,0,0,0,0,.042.119.119,0,0,0,.006.023.082.082,0,0,0,0,.008.085.085,0,0,0,.007.01.11.11,0,0,0,.014.019.114.114,0,0,0,.017.015.09.09,0,0,0,.01.008,2.386,2.386,0,1,1-3.371,2.972s0-.007-.007-.01a.112.112,0,0,0-.013-.019.114.114,0,0,0-.017-.016s-.005-.006-.009-.009l-.008,0a.112.112,0,0,0-.022-.009l-.02,0H619.7l-.023,0-.009,0a.073.073,0,0,0-.01.007l-.02.012a.126.126,0,0,0-.016.017s-.006.005-.009.009a8.516,8.516,0,0,0,7.2,13.069h.069a8.516,8.516,0,1,0-3.683-16.226Z" transform="translate(-247.797 -101.928)" fill="#6b98c1"/>
    <path id="Path_732" data-name="Path 732" d="M415.013,1712.575c.009-.016.019-.032.028-.049s.026-.054.039-.081.021-.044.03-.066.015-.042.023-.063.021-.058.03-.088.008-.031.012-.047c.009-.035.018-.07.025-.1,0-.014,0-.029.007-.043.006-.036.012-.072.015-.109,0-.02,0-.041,0-.061s0-.061,0-.091,0-.06,0-.09,0-.041,0-.062c0-.036-.009-.072-.015-.108,0-.015,0-.03-.007-.044-.007-.035-.016-.07-.025-.1,0-.016-.007-.031-.012-.047s-.02-.058-.03-.087-.014-.042-.023-.063-.02-.044-.03-.066-.025-.055-.039-.082-.019-.032-.028-.049-.036-.062-.056-.092l-.007-.012a43.471,43.471,0,0,0-35.929-19.012h-.005a43.453,43.453,0,0,0-33.657,15.972c-.028.032-.055.065-.08.1q-1.152,1.417-2.193,2.942l-.008.012c-.02.03-.038.061-.056.092-.009.016-.019.032-.028.049s-.027.054-.039.082-.021.043-.03.066-.015.042-.023.063-.021.058-.03.087-.008.031-.012.047c-.009.035-.018.07-.025.1,0,.015,0,.029-.007.044-.006.036-.012.072-.015.108,0,.02,0,.041,0,.061s0,.06,0,.09,0,.06,0,.09,0,.041,0,.062c0,.036.009.072.015.108,0,.014,0,.029.007.044.007.035.016.07.025.1,0,.016.007.031.012.047s.02.058.03.087.014.042.023.063.02.044.03.066.025.055.039.082.019.032.028.048.036.062.056.092l.008.012a43.487,43.487,0,0,0,71.865,0l.007-.012C414.976,1712.637,414.995,1712.606,415.013,1712.575Zm-19.337-.812a16.659,16.659,0,1,1-16.66-16.691h0A16.694,16.694,0,0,1,395.676,1711.763Zm-47.076,2.812a5.726,5.726,0,0,0,.006-5.613,40.272,40.272,0,0,1,16.508-11.413,19.895,19.895,0,0,0,.008,28.435A40.234,40.234,0,0,1,348.6,1714.575Zm44.31,11.409a19.894,19.894,0,0,0,.009-28.435,40.3,40.3,0,0,1,18.735,14.223A40.237,40.237,0,0,1,392.91,1725.985Z" fill="#6b98c1"/>
  </g>
</svg>
