<svg xmlns="http://www.w3.org/2000/svg" width="59.22" height="56.13" viewBox="0 0 59.22 56.13">
  <g id="Group_743" data-name="Group 743" transform="translate(-1494.852 -378.509)">
    <path id="Path_733" data-name="Path 733" d="M1553.588,427.709l0,0-.016-.03-.006-.012h0a6.2,6.2,0,0,0-2.709-2.727l0,0-.045-.023-.038-.017-.036-.017-.043-.017-.01,0a5.774,5.774,0,0,0-.816-.264l-.022,0-.022-.006a15.365,15.365,0,0,0-2.682-.349c-.48-.013-.943,0-1.488.031l-.02,0h-.021a4.647,4.647,0,0,1-1.5-.141c-6.477-1.587-15.152-4.963-19.712-12.035a39.111,39.111,0,0,1-5.633-19.732V379.824a1.315,1.315,0,1,0-2.629,0v12.544s0,.005,0,.008,0,.005,0,.008a41.744,41.744,0,0,0,6.022,21.082l.013.02.007.011c5.027,7.811,14.361,11.478,21.307,13.18a7.524,7.524,0,0,0,1.8.229c.166,0,.332-.007.5-.019h0c.484-.025.887-.039,1.282-.028a12.826,12.826,0,0,1,2.2.291,3.164,3.164,0,0,1,.406.131,3.558,3.558,0,0,1,1.558,1.585l.015.027.007.015a1.427,1.427,0,0,1,.141,1.11,1.317,1.317,0,0,1-.667.8,12.084,12.084,0,0,1-5.875.516h-.011a8.46,8.46,0,0,0-1.235-.081,5.974,5.974,0,0,0-.959.1l-.108.018h0a46.245,46.245,0,0,1-16.475-.215,40.407,40.407,0,0,0-13.45-1.041,44.33,44.33,0,0,0-7.386,1.45l-.039.013-.039.011a7.634,7.634,0,0,1-2.972.4h-.007a4.889,4.889,0,0,1-4.6-4.145,25.114,25.114,0,0,1,1.146-9.394l0-.007,0-.008a94.862,94.862,0,0,0,3.348-25.9V379.921a1.315,1.315,0,1,0-2.629,0v12.617s0,0,0,.006,0,0,0,.006a92.229,92.229,0,0,1-3.254,25.194h0a27.568,27.568,0,0,0-1.229,10.38c0,.008,0,.015,0,.023s0,.014,0,.022a7.52,7.52,0,0,0,7.037,6.447h.017q.327.022.655.022a10.329,10.329,0,0,0,3.265-.539,41.807,41.807,0,0,1,6.935-1.366,37.8,37.8,0,0,1,12.613.989l.031.006.03.007a48.861,48.861,0,0,0,17.427.231h0l.112-.019a3.745,3.745,0,0,1,.55-.068,5.875,5.875,0,0,1,.843.055h0a16.133,16.133,0,0,0,2.351.171,13.033,13.033,0,0,0,4.976-.889l.031-.015.026-.011a3.953,3.953,0,0,0,2.055-2.427A4.07,4.07,0,0,0,1553.588,427.709Z" fill="#6b98c1"/>
    <path id="Path_734" data-name="Path 734" d="M1610.935,808.377a5.241,5.241,0,0,0,1.857-.34,1.027,1.027,0,1,0-.727-1.921,3.24,3.24,0,0,1-2.719-5.863,1.027,1.027,0,0,0-1-1.8,5.292,5.292,0,0,0,2.586,9.92Z" transform="translate(-101.674 -385.324)" fill="#6b98c1"/>
  </g>
</svg>
