<svg xmlns="http://www.w3.org/2000/svg" width="62.786" height="46.634" viewBox="0 0 62.786 46.634">
  <path id="Path_726" data-name="Path 726" d="M717.824,386.645c-7.13,9.385-8.6,25.215-8.937,31.321a5.009,5.009,0,0,0,1.807,4.186,5.074,5.074,0,0,0,3.959,1.02l13.691-1.925c8.025-1.243,6.327-15.265,6.553-20.806,1.357-1.358,2.945-3.394,5.206-5.543,2.376,2.374,4.292,4.412,5.765,5.881.226,5.427-1.581,19.224,6.335,20.467l13.681,1.925a5.065,5.065,0,0,0,3.959-1.02,4.964,4.964,0,0,0,1.808-4.186c-.225-6.106-1.7-21.935-8.821-31.321-16.058-21.15-17.523-4.751-17.071,11.305-1.815-2.146-3.505-4.185-3.624-4.3l.118-11.986H738.4l-.225,11.986c.225-.226-1.465,1.7-3.39,3.846.452-15.944-1.131-31.776-16.963-10.855Z" transform="translate(-708.875 -376.604)" fill="#6b98c1" fill-rule="evenodd"/>
</svg>
