<svg id="Group_653" data-name="Group 653" xmlns="http://www.w3.org/2000/svg" width="62.126" height="57.161" viewBox="0 0 62.126 57.161">
  <path id="Path_324" data-name="Path 324" d="M492.673,620.612h0l3.919-14.529h3.437l6.79,25.33,2.484-9.465,1.724-1.336h6.494l3.919-14.529h3.445l3.918,14.529h11.283a27.072,27.072,0,0,0,1.237-7.937c0-10.415-8.028-18.829-17.874-18.829a17.877,17.877,0,0,0-13.192,6.027,17.638,17.638,0,0,0-13.093-6.027c-9.846,0-17.967,8.414-17.967,18.829a27.047,27.047,0,0,0,1.338,7.937Z" transform="translate(-479.197 -593.846)" fill="#fff"/>
  <path id="Path_325" data-name="Path 325" d="M527.367,624.244h11.282c-7.553,16.251-28.392,26.763-28.392,26.763s-20.739-10.512-28.294-26.763h12.046l1.718-1.34,2.583-9.461,6.791,25.333h3.437l3.919-14.532h6.408l1.719-1.34,2.483-9.461,2.581,9.461Z" transform="translate(-479.197 -593.846)" fill="#fff"/>
</svg>
