<svg xmlns="http://www.w3.org/2000/svg" width="53" height="53" viewBox="0 0 53 53">
  <g id="Group_741" data-name="Group 741" transform="translate(-284.451 -149.848)">
    <g id="Group_738" data-name="Group 738" transform="translate(284.451 149.848)">
      <path id="Path_728" data-name="Path 728" d="M310.952,149.848a26.5,26.5,0,1,0,26.5,26.5A26.531,26.531,0,0,0,310.952,149.848Zm0,51.1a24.627,24.627,0,0,1-24.545-23.007,3.206,3.206,0,0,0,.713.322.382.382,0,0,0,.073.017c.021.04.052.094.1.165a2.041,2.041,0,0,0,.47.543,6.8,6.8,0,0,0,1.839.949c-.013.031-.027.059-.042.1a2.292,2.292,0,0,0-.176.47,3.13,3.13,0,0,0-.13.7,4.336,4.336,0,0,0,0,.807,4.392,4.392,0,0,0,.169.782,3.274,3.274,0,0,0,.253.648,3,3,0,0,0,.242.424l.1.157s-.031-.059-.092-.163a3.136,3.136,0,0,1-.215-.437,3.75,3.75,0,0,1-.217-.65,4.56,4.56,0,0,1-.119-.773,4.654,4.654,0,0,1,.04-.773,3.12,3.12,0,0,1,.157-.656,2.642,2.642,0,0,1,.188-.431c.023-.044.04-.075.052-.1a4.925,4.925,0,0,1,.761.422,2.316,2.316,0,0,1,.38.32,2.681,2.681,0,0,1,.291.345,2.647,2.647,0,0,1,.305.6c.054.153.09.245.09.245s-.031-.092-.077-.249a2.826,2.826,0,0,0-.282-.619,2.485,2.485,0,0,0-.278-.364,2.321,2.321,0,0,0-.376-.349,5.254,5.254,0,0,0-.953-.571,6.826,6.826,0,0,1-1.753-1.005,1.8,1.8,0,0,1-.364-.451c.044.006.081.021.123.025a2.234,2.234,0,0,0,.589-.031,3.157,3.157,0,0,0,1.668-1.216c.336-.445.527-.765.527-.765a9.121,9.121,0,0,1-.583.719,3.031,3.031,0,0,1-1.651,1.028,1.71,1.71,0,0,1-.577-.033c.025-.027.038-.044.067-.079a1.609,1.609,0,0,0,.274-.393,2.139,2.139,0,0,0,.261-.568,2.861,2.861,0,0,0,.14-.725,3.435,3.435,0,0,0-.065-.807,3.922,3.922,0,0,0-.128-.52l.023-.013s-.027-.038-.059-.088c-.109-.336-.242-.669-.326-.993a3.976,3.976,0,0,1-.1-.817,4.052,4.052,0,0,1,.084-.8,6.767,6.767,0,0,1,.431-1.381c.332-.788.589-1.3.589-1.3s-.284.5-.66,1.267a7.077,7.077,0,0,0-.506,1.381,4.531,4.531,0,0,0-.13.828,5.286,5.286,0,0,0,.033.627c-.069-.163-.138-.326-.2-.493a8.442,8.442,0,0,1-.391-1.3,3.065,3.065,0,0,1-.056-.617,2.717,2.717,0,0,0,.021.619,8.344,8.344,0,0,0,.311,1.336c.159.474.326.945.483,1.29.019.048.038.088.059.132a4.682,4.682,0,0,1,.2.892,3.094,3.094,0,0,1,.023.729,2.2,2.2,0,0,1-.157.619,1.706,1.706,0,0,1-.247.477,1.456,1.456,0,0,1-.255.33c-.1.1-.163.171-.2.215a4.075,4.075,0,0,1-.721-.424c-.025-.017-.042-.036-.069-.052-.019-.37-.027-.738-.027-1.11a24.6,24.6,0,0,1,49.192-.541l-.025-.021a4.255,4.255,0,0,0-.9-.422.4.4,0,0,0-.075-.017l-.092-.165a2.184,2.184,0,0,0-.474-.541,6.877,6.877,0,0,0-1.837-.953.919.919,0,0,1,.046-.1,2.614,2.614,0,0,0,.171-.47,3.15,3.15,0,0,0,.128-.7,4.482,4.482,0,0,0,0-.8,5,5,0,0,0-.165-.784,4.239,4.239,0,0,0-.255-.648,3.86,3.86,0,0,0-.242-.42l-.1-.159s.031.059.09.161a3.2,3.2,0,0,1,.217.435,3.83,3.83,0,0,1,.215.65,4.207,4.207,0,0,1,.121.775,4.257,4.257,0,0,1-.04.773,2.951,2.951,0,0,1-.157.654,2.045,2.045,0,0,1-.188.433l-.05.1a4.749,4.749,0,0,1-.761-.42,2.612,2.612,0,0,1-.669-.665,2.485,2.485,0,0,1-.309-.6c-.054-.153-.09-.24-.09-.24s.031.088.079.245a2.586,2.586,0,0,0,.28.621,2.955,2.955,0,0,0,.654.713,5.456,5.456,0,0,0,.953.571,6.67,6.67,0,0,1,1.751,1.005,1.772,1.772,0,0,1,.366.451c-.042-.006-.079-.019-.121-.027a2.352,2.352,0,0,0-.591.036,3.134,3.134,0,0,0-1.664,1.214,8.156,8.156,0,0,0-.527.765,8.384,8.384,0,0,1,.583-.717,3,3,0,0,1,1.649-1.03,1.717,1.717,0,0,1,.577.033l-.069.082a1.5,1.5,0,0,0-.274.391,2.029,2.029,0,0,0-.261.571,2.757,2.757,0,0,0-.14.723,3.952,3.952,0,0,0,.065.807,4.486,4.486,0,0,0,.132.518l-.021.015.054.086c.113.336.238.671.322.995a3.84,3.84,0,0,1,.107.817,4.58,4.58,0,0,1-.086.8,7.34,7.34,0,0,1-.428,1.381c-.334.79-.594,1.3-.594,1.3s.286-.5.658-1.267a6.766,6.766,0,0,0,.51-1.381,4.742,4.742,0,0,0,.13-.83c0-.2-.01-.416-.033-.627.071.163.14.326.207.5a8.244,8.244,0,0,1,.387,1.3,2.9,2.9,0,0,1,.061.614,3.263,3.263,0,0,0-.021-.619,8.44,8.44,0,0,0-.316-1.336,12.568,12.568,0,0,0-.483-1.29c-.019-.05-.038-.09-.059-.134a5.364,5.364,0,0,1-.207-.892,3.577,3.577,0,0,1-.021-.727,2.239,2.239,0,0,1,.157-.617,1.651,1.651,0,0,1,.247-.477,1.37,1.37,0,0,1,.255-.33c.1-.107.163-.173.2-.217a4.148,4.148,0,0,1,.723.422c.1.075.186.144.263.211v.019A24.628,24.628,0,0,1,310.952,200.95Z" transform="translate(-284.451 -149.848)" fill="#6b98c1"/>
    </g>
    <g id="Group_739" data-name="Group 739" transform="translate(292.318 157.713)">
      <path id="Path_729" data-name="Path 729" d="M306.849,153.611a18.634,18.634,0,1,0,18.634,18.634A18.635,18.635,0,0,0,306.849,153.611Zm14.561,11.215-3.994,3.041,4.976-.673-4.418,2.378,5.014.117-4.732,1.659,4.935.9-4.935.9,4.732,1.657-5.014.115,4.418,2.378-4.976-.671,3.994,3.041-4.8-1.442,3.463,3.628-4.523-2.174L318.4,183.8l-4.126-2.855,2.176,4.519L312.827,182l1.442,4.807-3.043-3.994.671,4.974-2.376-4.416-.117,5.016-1.657-4.736-.9,4.939-.9-4.939-1.657,4.736-.117-5.016-2.374,4.416.671-4.974-3.043,3.994L300.87,182l-3.626,3.465,2.176-4.519-4.126,2.855,2.859-4.124-4.523,2.174,3.463-3.628-4.8,1.442,3.986-3.041-4.97.671,4.422-2.378-5.02-.115,4.74-1.657-4.943-.9,4.943-.9-4.74-1.659,5.02-.117-4.422-2.378,4.97.673-3.986-3.041,4.8,1.442-3.463-3.63,4.523,2.178-2.859-4.126,4.126,2.857-2.176-4.521,3.626,3.465-1.44-4.807,3.043,3.992L301.8,156.7l2.374,4.42.117-5.016,1.657,4.732.9-4.934.9,4.934,1.657-4.732.117,5.016,2.376-4.42-.671,4.974,3.043-3.992-1.442,4.807,3.628-3.465-2.176,4.521,4.126-2.857-2.859,4.126,4.523-2.178-3.463,3.63Z" transform="translate(-288.215 -153.611)" fill="#6b98c1"/>
    </g>
    <g id="Group_740" data-name="Group 740" transform="translate(305.752 171.147)">
      <path id="Path_730" data-name="Path 730" d="M299.843,160.039a5.2,5.2,0,1,0,5.2,5.2A5.2,5.2,0,0,0,299.843,160.039Z" transform="translate(-294.643 -160.039)" fill="#6b98c1"/>
    </g>
  </g>
</svg>
