<svg xmlns="http://www.w3.org/2000/svg" width="69.875" height="60.84" viewBox="0 0 69.875 60.84">
  <g id="alert-icon" transform="translate(-605.769 -971.381)">
    <path id="Path_1002" data-name="Path 1002" d="M652.535,979.612h-31.99a2.693,2.693,0,0,0-2.59,1.963l-9.658,34.368h57.213l-10.4-34.416A2.691,2.691,0,0,0,652.535,979.612Zm-2.773,22.927h-8.651v8.651h-8.419v-8.651h-8.649v-8.421h8.649v-8.649h8.419v8.649h8.651Z" transform="translate(2.188 7.128)" fill="#616e7d"/>
    <path id="Path_1003" data-name="Path 1003" d="M605.769,1004.948a1.718,1.718,0,0,0,1.719,1.717h63.2a1.716,1.716,0,0,0,1.719-1.717v-4.057H605.769Z" transform="translate(0 25.556)" fill="#616e7d"/>
    <path id="Path_1004" data-name="Path 1004" d="M607.487,999.083a1.718,1.718,0,0,0-1.719,1.719v1.657H672.41V1000.8a1.716,1.716,0,0,0-1.719-1.719Z" transform="translate(0 23.989)" fill="#6b98c1"/>
    <path id="Path_1005" data-name="Path 1005" d="M633.8,1008.471V999.82h8.65V991.4H633.8v-8.649h-8.419V991.4h-8.65v8.42h8.65v8.651Z" transform="translate(9.496 9.846)" fill="#6b98c1"/>
    <path id="Path_1006" data-name="Path 1006" d="M632.646,975.292l-.2-.013a.69.69,0,0,0-.623.748l.229,2.508a.674.674,0,0,0,.5.592,14.99,14.99,0,0,1,9.542,7.617.674.674,0,0,0,.657.356l2.556-.233a.689.689,0,0,0,.565-.965A18.783,18.783,0,0,0,632.646,975.292Z" transform="translate(22.56 3.376)" fill="#6b98c1"/>
    <path id="Path_1007" data-name="Path 1007" d="M632.7,971.381h-.149a.686.686,0,0,0-.623.745l.226,2.47a.672.672,0,0,0,.571.6A21.126,21.126,0,0,1,649.2,988.524a.672.672,0,0,0,.692.433l2.476-.226a.683.683,0,0,0,.515-.312.691.691,0,0,0,.071-.6A25.021,25.021,0,0,0,632.7,971.381Z" transform="translate(22.65 0)" fill="#616e7d"/>
  </g>
</svg>
