<svg xmlns="http://www.w3.org/2000/svg" width="36.053" height="25.689" viewBox="0 0 36.053 25.689"><defs><style>.a{fill:#c2c2c2;}</style></defs><g transform="translate(-16 48)"><circle class="a" cx="2.754" cy="2.754" r="2.754" transform="translate(20.503 -27.82)"/><circle class="a" cx="2.754" cy="2.754" r="2.754" transform="translate(39.513 -27.82)"/><path class="a" d="M35.766-46.591v2.524H22v-2.524A1.407,1.407,0,0,1,23.409-48H34.356A1.407,1.407,0,0,1,35.766-46.591Z" transform="translate(-2.067)"/><path class="a" d="M51.208-34.177,40.877-42.5a2.245,2.245,0,0,0-1.422-.5H18.275A2.272,2.272,0,0,0,16-40.725v14.461a2.272,2.272,0,0,0,2.275,2.275h.9a4.059,4.059,0,0,1,1.154-2.275,4.138,4.138,0,0,1,5.847,0,4.059,4.059,0,0,1,1.154,2.275H38.189a4.059,4.059,0,0,1,1.154-2.275,4.138,4.138,0,0,1,5.847,0,4.059,4.059,0,0,1,1.154,2.275h3.435a2.272,2.272,0,0,0,2.275-2.275v-6.142A2.287,2.287,0,0,0,51.208-34.177Zm-21.927.144H26.7v2.7H23.9v-2.7H21.415v-2.93H23.9v-2.6H26.7v2.6h2.576Z" transform="translate(0 -1.722)"/></g></svg>