<svg xmlns="http://www.w3.org/2000/svg" width="25.833" height="15.5" viewBox="0 0 25.833 15.5"><defs><style>.a{fill:#c2c2c2;}</style></defs><path class="a" d="M7.1,12.25A3.229,3.229,0,1,0,3.875,9.021,3.233,3.233,0,0,0,7.1,12.25ZM21.313,7.083H12.271a.646.646,0,0,0-.646.646v5.813H2.583v-8.4A.646.646,0,0,0,1.937,4.5H.646A.646.646,0,0,0,0,5.146V19.354A.646.646,0,0,0,.646,20H1.937a.646.646,0,0,0,.646-.646V17.417H23.25v1.938A.646.646,0,0,0,23.9,20h1.292a.646.646,0,0,0,.646-.646V11.6A4.521,4.521,0,0,0,21.313,7.083Z" transform="translate(0 -4.5)"/></svg>