<svg xmlns="http://www.w3.org/2000/svg" width="70.36" height="53.741" viewBox="0 0 70.36 53.741">
  <g id="Group_853" data-name="Group 853" transform="translate(-870.012 -555.732)">
    <g id="Group_839" data-name="Group 839" transform="translate(870.012 555.732)">
      <g id="Group_834" data-name="Group 834" transform="translate(19.932 0)">
        <path id="Path_762" data-name="Path 762" d="M1334.109,558.437l-2.781,6.556-5.473,12.9-.185-.074a14.044,14.044,0,0,0-10.726.206l-.788-1.539v0h0l-5.6-10.945-3.245-6.341a35.272,35.272,0,0,1,28.765-.777h0Z" transform="translate(-1305.309 -555.732)" fill="#a5bbdd"/>
      </g>
      <g id="Group_835" data-name="Group 835" transform="translate(0 16.382)">
        <path id="Path_763" data-name="Path 763" d="M893.742,924.153q-.073.1-.145.207a13.989,13.989,0,0,0-2.454,7.93v.007H870.012a35.015,35.015,0,0,1,5.438-18.8l6.16,3.588Z" transform="translate(-870.012 -913.498)" fill="#88b9ff"/>
      </g>
      <g id="Group_836" data-name="Group 836" transform="translate(5.438 3.468)">
        <path id="Path_764" data-name="Path 764" d="M1012.909,650.3l-.159.071-.03.013a14.108,14.108,0,0,0-5.648,4.655l-12.132-7.066-6.16-3.588a35.334,35.334,0,0,1,14.493-12.913l3.245,6.341,5.6,10.945h0v0Z" transform="translate(-988.78 -631.476)" fill="#afcdfb"/>
      </g>
      <g id="Group_837" data-name="Group 837" transform="translate(46.724 16.52)">
        <path id="Path_765" data-name="Path 765" d="M1892.944,935.174v-.007a13.981,13.981,0,0,0-2.382-7.822c-.04-.061-.082-.121-.123-.181l12.126-7.063,6.159-3.588a35.016,35.016,0,0,1,5.352,18.661Z" transform="translate(-1890.438 -916.513)" fill="#8899b5"/>
      </g>
      <g id="Group_838" data-name="Group 838" transform="translate(40.478 2.705)">
        <path id="Path_766" data-name="Path 766" d="M1778.56,628.631l-6.159,3.588-12.126,7.063a14.093,14.093,0,0,0-6.21-4.991l-.036-.015,5.473-12.9,2.781-6.556A35.31,35.31,0,0,1,1778.56,628.631Z" transform="translate(-1754.029 -614.817)" fill="#98a6bc"/>
      </g>
    </g>
    <g id="Group_840" data-name="Group 840" transform="translate(893.189 562.851)">
      <path id="Path_767" data-name="Path 767" d="M1393.522,726.263l-.036-.015-.185-.074a14.045,14.045,0,0,0-10.726.206l-.159.071-6.232-12.558a28.131,28.131,0,0,1,22.774-.548S1393.522,726.263,1393.522,726.263Z" transform="translate(-1376.185 -711.202)" fill="#b0c6e9"/>
    </g>
    <g id="Group_841" data-name="Group 841" transform="translate(877.137 575.702)">
      <path id="Path_768" data-name="Path 768" d="M1042.088,999.138a13.989,13.989,0,0,0-2.454,7.93h-14.005a28.765,28.765,0,0,1,4.473-15.2Z" transform="translate(-1025.628 -991.864)" fill="#97c6ff"/>
    </g>
    <g id="Group_842" data-name="Group 842" transform="translate(881.61 565.542)">
      <path id="Path_769" data-name="Path 769" d="M1141.124,782.526l-.03.013a14.107,14.107,0,0,0-5.648,4.655l-.146.207-11.987-7.274a28.79,28.79,0,0,1,11.579-10.16Z" transform="translate(-1123.313 -769.968)" fill="#bbd5f9"/>
    </g>
    <g id="Group_843" data-name="Group 843" transform="translate(916.859 575.858)">
      <path id="Path_770" data-name="Path 770" d="M1909.358,1010.319h-13.865a14.351,14.351,0,0,0-2.358-7.909l12-7.139A28.684,28.684,0,0,1,1909.358,1010.319Z" transform="translate(-1893.135 -995.271)" fill="#94a4bf"/>
    </g>
    <g id="Group_844" data-name="Group 844" transform="translate(910.526 564.993)">
      <path id="Path_771" data-name="Path 771" d="M1761.147,776.082c-.04-.061-.082-.121-.124-.181a14.093,14.093,0,0,0-6.21-4.991l5.437-12.918a28.277,28.277,0,0,1,12.9,10.846C1773.19,768.9,1761.147,776.082,1761.147,776.082Z" transform="translate(-1754.814 -757.991)" fill="#a0b0ca"/>
    </g>
    <g id="Group_845" data-name="Group 845" transform="translate(896.076 581.796)">
      <path id="Path_772" data-name="Path 772" d="M1457.465,1134.077h-18.233a9.124,9.124,0,0,1,5.028-8.151q.357-.179.73-.328a9.033,9.033,0,0,1,1.785-.5,9.172,9.172,0,0,1,4.722.424c.075.027.148.056.222.085a9.123,9.123,0,0,1,5.746,8.473Z" transform="translate(-1439.232 -1124.96)" fill="#aec3ff"/>
    </g>
    <g id="Group_846" data-name="Group 846" transform="translate(899.141 584.861)">
      <path id="Path_773" data-name="Path 773" d="M1518.276,1197.952h-12.1a6.043,6.043,0,0,1,5.959-6.051h.092a6.043,6.043,0,0,1,1.928.314q.124.042.245.089a6.055,6.055,0,0,1,3.878,5.649Z" transform="translate(-1506.173 -1191.9)" fill="#88b9ff"/>
    </g>
    <g id="Group_848" data-name="Group 848" transform="translate(903.466 568.12)">
      <g id="Group_847" data-name="Group 847">
        <path id="Path_774" data-name="Path 774" d="M1602.732,848.415a1.574,1.574,0,0,1-.905.036c-.049-.012-.1-.027-.143-.044s-.093-.035-.137-.056a1.585,1.585,0,0,1-.9-1.641.166.166,0,0,1,.008-.035l.193-.619h0l.76-2.437.86-2.759,1.377-4.416.481-1.542v0h0l2.644-8.481a.192.192,0,0,1,.231-.129l.324.082a.192.192,0,0,1,.141.222l-1.979,10.428-.883,4.657-.572,3.012-.448,2.361-.063.333-.013.07a.209.209,0,0,1-.01.036A1.583,1.583,0,0,1,1602.732,848.415Z" transform="translate(-1600.634 -826.282)" fill="#2b478b"/>
      </g>
      <path id="Path_775" data-name="Path 775" d="M1620.091,1258.319a.719.719,0,1,1,.41.93A.719.719,0,0,1,1620.091,1258.319Z" transform="translate(-1619.153 -1238.099)" fill="#f9ddbf"/>
    </g>
    <g id="Group_852" data-name="Group 852" transform="translate(883.835 593.833)">
      <g id="Group_849" data-name="Group 849" transform="translate(0 0)">
        <path id="Path_776" data-name="Path 776" d="M1171.9,1387.832h7.261a5.645,5.645,0,0,1,4.089,1.385,3.855,3.855,0,0,1-.983,6.077c1.81.693,2.927,1.743,2.927,3.888,0,2.86-2.324,4.29-5.854,4.29h-7.44Zm6.524,6.323c1.519,0,2.48-.492,2.48-1.7,0-1.028-.8-1.609-2.256-1.609h-3.4v3.307Zm.916,6.3c1.519,0,2.435-.536,2.435-1.743,0-1.05-.782-1.7-2.547-1.7h-3.977v3.441Z" transform="translate(-1171.904 -1387.832)" fill="#afcdfb"/>
      </g>
      <g id="Group_850" data-name="Group 850" transform="translate(16.131 0)">
        <path id="Path_777" data-name="Path 777" d="M1524.2,1387.832h3.709l4.111,6.614,4.111-6.614h3.709v15.64h-3.418v-10.211l-4.4,6.681h-.089l-4.357-6.614v10.144H1524.2Z" transform="translate(-1524.199 -1387.832)" fill="#afcdfb"/>
      </g>
      <g id="Group_851" data-name="Group 851" transform="translate(35.681 0)">
        <path id="Path_778" data-name="Path 778" d="M1951.158,1387.832h3.441v15.64h-3.441Z" transform="translate(-1951.158 -1387.832)" fill="#afcdfb"/>
      </g>
    </g>
  </g>
</svg>
