<svg xmlns="http://www.w3.org/2000/svg" width="64.126" height="45.631" viewBox="0 0 64.126 45.631"><defs><style>.a{fill:#546f88;}.a,.b{fill-rule:evenodd;}.b{fill:#6b98c1;}</style></defs><g transform="translate(-357.654 -706.97)"><path class="a" d="M416.516,737.836a11.113,11.113,0,0,1,3.441,3.594c2.14,3.442,2.219,6.5,1.149,8.491a5.149,5.149,0,0,1-1.84,1.989,4.857,4.857,0,0,1-2.6.687c-2.3.08-5.049-1.375-7.115-4.816a10.765,10.765,0,0,1-1.681-4.744v-.08a6.545,6.545,0,0,1,.763-3.9l-.384-.611a.586.586,0,0,1-.154-.379h0v-.462h0c.08-.152.154-.229.232-.382h0c.074-.078.153-.232.306-.306h0l.233-.078-4.976-8.412a5.794,5.794,0,0,0-7.879-1.989,5.432,5.432,0,0,0-2.6,3.517,5.517,5.517,0,0,0,.611,4.36c.46.767.919,1.534,1.377,2.371.459.767.843,1.533,1.376,2.3v.074h0a8.027,8.027,0,0,1,.843,6.2,7.8,7.8,0,0,1-3.748,4.969v.08h0a8.125,8.125,0,0,1-6.2.838,8.267,8.267,0,0,1-5.049-3.747h0l-4.82-8.949a16.2,16.2,0,1,1,3.062-1.223,2.716,2.716,0,0,1-.691.306,35.632,35.632,0,0,1,3.826,7.189h0c.306.611.458,1.069.612,1.378a5.973,5.973,0,0,0,3.594,2.677,6.443,6.443,0,0,0,4.438-.615,5.617,5.617,0,0,0,2.6-3.515,5.5,5.5,0,0,0-.611-4.361c-.459-.766-.918-1.531-1.377-2.371-.459-.767-.84-1.531-1.375-2.369h0a8.033,8.033,0,0,1-.843-6.2,7.753,7.753,0,0,1,3.747-5.049h0a8.134,8.134,0,0,1,6.2-.841,7.767,7.767,0,0,1,5.049,3.75h0l4.89,8.337a.573.573,0,0,1,.306-.078h0a.354.354,0,0,1,.385,0h0a.606.606,0,0,1,.384.153h0a.618.618,0,0,1,.306.306h.074l.385.691a7.245,7.245,0,0,1,3.747,1.222Z" transform="translate(0 0)"/><path class="b" d="M365.176,728.168l-.306-.611-.077.843Zm.841-1.452c-.077,0-.077.077-.153.077v.232c.076.074.076.226.229.38a1.187,1.187,0,0,0,.23.458c.078.08.078.08.153.08h.152a.078.078,0,0,1,.08-.08v-.153c-.08-.153-.08-.3-.232-.458a1.234,1.234,0,0,0-.23-.459c-.077,0-.077-.077-.153-.077Zm-.153-.229c.153-.075.3-.153.459-.075a1.426,1.426,0,0,1,.537.613,1.242,1.242,0,0,1,.153.838.4.4,0,0,1-.3.385.51.51,0,0,1-.462,0,1.469,1.469,0,0,1-.535-.611,1.183,1.183,0,0,1-.152-.843c0-.152.152-.229.306-.306Zm-1.376-5.89c.076.078.153.153.229.153.076.077.076.077.153,0a.163.163,0,0,0,.153-.153v-.229c-.076-.079-.153-.153-.23-.153-.076-.078-.076-.078-.152,0a.162.162,0,0,0-.153.153v.229Zm-.306-.766a.162.162,0,0,0,.153.152h.153c.076-.074.076-.074.076-.152a.141.141,0,0,0,0-.227.263.263,0,0,0-.153-.079h-.153c-.076.079-.076.079-.076.154-.079.078-.079.078,0,.153Zm.076.384a.273.273,0,0,1-.229-.078.161.161,0,0,1-.154-.154.664.664,0,0,1-.078-.379.589.589,0,0,1,.306-.3c.232-.08.308-.154.461-.08.153,0,.229.08.306.231a.277.277,0,0,1,.077.228c0,.078-.077.153-.154.231.154,0,.23,0,.306.074s.153.154.229.232a.967.967,0,0,1,.077.459c-.077.152-.23.229-.383.381a.965.965,0,0,1-.459.077.763.763,0,0,1-.382-.306c0-.152-.079-.23-.079-.306.079-.153.079-.232.155-.306Zm1.376-1.375c-.076.073-.076.073-.076.152-.077,0-.077.074,0,.153a3.206,3.206,0,0,0,.152.458,1.611,1.611,0,0,0,.23.379.234.234,0,0,0,.153.079c.076.074.076.074.153,0a.076.076,0,0,0,.077-.079v-.152a1.212,1.212,0,0,0-.23-.458.8.8,0,0,0-.229-.38.162.162,0,0,0-.154-.152Zm-.153-.233a.5.5,0,0,1,.459,0c.229.079.383.233.535.611a.981.981,0,0,1,.152.764.424.424,0,0,1-.226.385.673.673,0,0,1-.537,0,2.312,2.312,0,0,1-.535-.611,1.044,1.044,0,0,1-.153-.764.518.518,0,0,1,.306-.385Zm3.442-2.751-.382.153-.611-1.228a1.583,1.583,0,0,1-.3.462l-.154-.306a1.078,1.078,0,0,0,.23-.309.683.683,0,0,0,.076-.379l.23-.153Zm1.454-1.148.153.3-1.146.612a.669.669,0,0,1-.079-.382,3.786,3.786,0,0,1,.153-.615,3.077,3.077,0,0,0,.153-.379c0-.153,0-.233-.074-.233a.168.168,0,0,0-.153-.152h-.155c-.076.078-.153.078-.153.152a.286.286,0,0,0,.077.233l-.383.153c-.077-.232-.077-.386,0-.459a.781.781,0,0,1,.306-.384.5.5,0,0,1,.461,0c.153,0,.306.079.306.232a.28.28,0,0,1,.074.226v.306c0,.079-.074.153-.074.306-.079.153-.079.309-.153.309v.152Zm.153-1.529a.074.074,0,0,1-.076.074v.231a1.2,1.2,0,0,0,.23.458,1.575,1.575,0,0,0,.229.38c0,.079.076.079.153.079h.077a.077.077,0,0,0,.076-.079c.076-.074.076-.074,0-.153a1.084,1.084,0,0,0-.153-.459c-.077-.226-.153-.378-.229-.378-.077-.079-.153-.154-.153-.154Zm-.153-.231a1.533,1.533,0,0,1,.535-.074,4.957,4.957,0,0,1,.535.611,1.227,1.227,0,0,1,.154.839.517.517,0,0,1-.307.385.5.5,0,0,1-.458,0,1.09,1.09,0,0,1-.535-.611,1.044,1.044,0,0,1-.153-.764.357.357,0,0,1,.229-.385Zm4.894,2.83-.306.231-.687-1.3a.651.651,0,0,1-.229.458l-.153-.306a1.151,1.151,0,0,1,.153-.231.823.823,0,0,0,.077-.379l.3-.153Zm.537-1c.077.156.153.156.23.231h.229c.077,0,.077-.075.077-.153.077-.078,0-.152,0-.231-.077-.153-.153-.227-.23-.227a.14.14,0,0,0-.229,0,.255.255,0,0,0-.077.152v.227Zm.383-1.071-.306.154-.077-.074h-.152c-.079.074-.153.074-.153.226a.864.864,0,0,0,.074.386,1.074,1.074,0,0,1,.231-.306.468.468,0,0,1,.459,0,.745.745,0,0,1,.382.306.651.651,0,0,1,0,.535.505.505,0,0,1-.306.381.644.644,0,0,1-.535,0,1.4,1.4,0,0,1-.459-.611.987.987,0,0,1-.153-.765c0-.152.153-.3.306-.458.153,0,.3-.078.382,0,.153,0,.229.074.306.226Zm.764-.532c-.077,0-.077,0-.153.074v.154c.076.078.076.231.229.458a.829.829,0,0,0,.23.385c.077.074.077.153.153.153a.234.234,0,0,0,.153-.079l.076-.074V714.1c-.076-.08-.076-.232-.229-.459a1.712,1.712,0,0,0-.23-.385c-.076-.074-.076-.074-.153-.153a.075.075,0,0,0-.076.078Zm-.153-.306a.476.476,0,0,1,.459,0,1.437,1.437,0,0,1,.535.611,1.031,1.031,0,0,1,.153.765.5.5,0,0,1-.306.379.472.472,0,0,1-.459,0,1.067,1.067,0,0,1-.535-.612.991.991,0,0,1-.153-.763.5.5,0,0,1,.306-.38Zm4.743,7.416.153.308-1.225.612v-.383a3.493,3.493,0,0,1,.153-.611c.079-.232.079-.384.153-.384,0-.153,0-.227-.074-.306a.281.281,0,0,0-.155-.074c-.077-.078-.077-.078-.154,0a.162.162,0,0,0-.152.154v.227l-.306.152a.645.645,0,0,1,0-.533c.077-.078.154-.231.306-.3a.942.942,0,0,1,.461-.079.616.616,0,0,1,.306.306.29.29,0,0,1,.074.231v.306c0,.074-.074.153-.074.306-.079.153-.153.227-.153.306v.154Zm.153-1.528-.076.08v.226a1.243,1.243,0,0,0,.153.384,4.919,4.919,0,0,0,.306.459c0,.074.077.074.153.074h.076a.073.073,0,0,0,.077-.074v-.153a1.081,1.081,0,0,0-.153-.458c-.076-.233-.23-.386-.23-.458a.265.265,0,0,1-.153-.08Zm-.153-.226a.469.469,0,0,1,.535-.079,1.414,1.414,0,0,1,.459.611,1.4,1.4,0,0,1,.229.843,1.317,1.317,0,0,1-.306.379.625.625,0,0,1-.535,0,1.381,1.381,0,0,1-.459-.611,2.329,2.329,0,0,1-.232-.838.6.6,0,0,1,.308-.307Zm1.528-.461-.153.152v.154c.077.076.077.229.229.462a1.621,1.621,0,0,0,.23.378c.077.08.077.08.155.08h.154s0-.08.074-.08v-.153a2.364,2.364,0,0,0-.227-.459c-.078-.229-.155-.383-.231-.383-.077-.076-.077-.152-.154-.152Zm-.153-.229a.956.956,0,0,1,.459-.078,1.757,1.757,0,0,1,.535.688.979.979,0,0,1,.153.764.391.391,0,0,1-.3.385.5.5,0,0,1-.459,0,1.457,1.457,0,0,1-.535-.611,1.051,1.051,0,0,1-.153-.767c0-.229.153-.306.306-.381ZM382,728.094l.154.306-1.147.611a.676.676,0,0,1-.079-.385,2.522,2.522,0,0,1,.153-.611,4.023,4.023,0,0,1,.153-.379v-.306a.228.228,0,0,0-.153-.079.144.144,0,0,0-.226,0c-.079,0-.079.079-.153.154a.293.293,0,0,0,.074.231l-.383.153a.656.656,0,0,1,0-.538c.077-.074.154-.226.309-.3a1.463,1.463,0,0,1,.532-.077c.079.077.232.155.308.308,0,.074.077.153.077.227a.569.569,0,0,1-.077.3.575.575,0,0,1-.076.306.585.585,0,0,0-.076.306c-.077.079-.077.079-.077.154Zm.688-.764-.306-.538-.077.764Zm.306.685-.153-.379-.687.379-.154-.306.154-1.454.3-.153.535,1.075.229-.078.153.231-.23.153.154.306Zm.537-2.14-.078.074v.232a3.33,3.33,0,0,0,.153.459.7.7,0,0,1,.232.384.232.232,0,0,0,.152.074h.154l.074-.074v-.155a1.03,1.03,0,0,0-.154-.458,3.5,3.5,0,0,1-.226-.383l-.153-.153Zm-.155-.231a1.022,1.022,0,0,1,.462-.074,1.308,1.308,0,0,1,.535.685,1.725,1.725,0,0,1,.23.769.753.753,0,0,1-.306.38.642.642,0,0,1-.537,0,1.383,1.383,0,0,1-.459-.612,2.012,2.012,0,0,1-.23-.764.543.543,0,0,1,.306-.384Zm-11.932,6.351c-.076.076-.076.076-.076.154-.077,0-.077.075,0,.151a2.906,2.906,0,0,0,.153.458,1.753,1.753,0,0,0,.23.386.24.24,0,0,0,.152.073c.077.079.077,0,.154,0a.074.074,0,0,0,.076-.073v-.153c0-.153-.076-.233-.23-.462-.076-.23-.152-.381-.229-.381a.164.164,0,0,0-.153-.154Zm-.153-.232a.505.505,0,0,1,.459,0c.229.079.382.232.535.615a.985.985,0,0,1,.153.767.412.412,0,0,1-.226.379.637.637,0,0,1-.538,0,2.249,2.249,0,0,1-.535-.611,1.04,1.04,0,0,1-.154-.763.518.518,0,0,1,.306-.386Zm11.855-1.07h0a.53.53,0,0,0,.23.764l1.684,1a15.246,15.246,0,0,1-3.747,3.215c-.079-.079-.079-.079-.079-.154l-.917-1.837a.881.881,0,0,0-1.07-.38h0a.8.8,0,0,0-.382,1.071l.917,1.834a.256.256,0,0,0,.076.153,13.585,13.585,0,0,1-4.59,1.223V737.5l.306-2.142a.591.591,0,0,0-.533-.614h0a.727.727,0,0,0-.69.614l-.229,2.063v.232a14.051,14.051,0,0,1-3.6-.459l.612-1.989a.83.83,0,0,0-.535-1.074.884.884,0,0,0-1.149.539l-.611,1.912a12.936,12.936,0,0,1-3.594-2.066l1.3-1.528a.549.549,0,0,0-.078-.843.6.6,0,0,0-.841.075l-1.3,1.531a14.193,14.193,0,0,1-2.525-3.135l1.834-.92a.961.961,0,0,0,.385-1.224.891.891,0,0,0-1.225-.38l-1.758.917a12.7,12.7,0,0,1-1.073-4.053l1.99-.078a.285.285,0,0,1,.229-.074c.23-.154.382-.307.306-.612a.592.592,0,0,0-.611-.538l-1.99.154a11.59,11.59,0,0,1,.459-3.979l1.913.611a.571.571,0,0,0,.611-.074.679.679,0,0,0,.459-.537.827.827,0,0,0-.535-1.071l-1.911-.611a12.9,12.9,0,0,1,2.064-3.595l1.531,1.3a.736.736,0,0,0,.687.074s.077-.074.153-.153a.6.6,0,0,0-.076-.84l-1.528-1.3a14,14,0,0,1,3.135-2.525l.917,1.834a.962.962,0,0,0,1.223.385.9.9,0,0,0,.385-1.225l-.919-1.758a12.7,12.7,0,0,1,4.055-1.073l.074,1.99c.079.307.308.611.691.532a.288.288,0,0,0,.229-.074.648.648,0,0,0,.306-.538l-.153-2.066a17.132,17.132,0,0,1,3.976.461l-.611,1.991a.815.815,0,0,0,.611,1.069.566.566,0,0,0,.611-.076.688.688,0,0,0,.461-.458l.612-1.91a11.209,11.209,0,0,1,3.594,2.063l-1.3,1.531a.587.587,0,0,0,.687.917c.077,0,.153-.079.23-.154l1.3-1.528a14.166,14.166,0,0,1,2.521,3.136l-1.834.916a.959.959,0,0,0-.382,1.224.893.893,0,0,0,1.222.384l1.837-.92a15.166,15.166,0,0,1,.993,3.977l-1.989.153c-.306.079-.612.306-.535.691a.589.589,0,0,0,.612.532l2.065-.153a17.21,17.21,0,0,1-.458,3.979l-1.913-.612a.864.864,0,0,0-1.147.612.825.825,0,0,0,.535,1.069l1.913.611a12.343,12.343,0,0,1-1.455,2.83l-1.76-.991a.727.727,0,0,0-.917.226Zm-9.636-8.105-5.278-1.99,4.359,3.6a1.866,1.866,0,0,0,1,1.834,1.977,1.977,0,0,0,2.754-.763,2.075,2.075,0,0,0-.687-2.757,1.984,1.984,0,0,0-2.143.079Zm-8.032,6.193-.153-.306-.764.384-.153-.307.23-1.453.306-.153.535,1.069.229-.073.154.226-.23.153.153.306Z" transform="translate(-0.445 -0.43)"/></g></svg>