<svg xmlns="http://www.w3.org/2000/svg" width="58.819" height="44.567" viewBox="0 0 58.819 44.567">
  <g id="diagnosis-icon" transform="translate(-1038.455 -907.716)">
    <path id="Path_995" data-name="Path 995" d="M1084.825,909.276h-34.308l2.67,6.638,31.28.026a14.556,14.556,0,0,1,1.764.2l-.065-.022v-5.506A1.341,1.341,0,0,0,1084.825,909.276Z" transform="translate(6.731 0.87)" fill="#616e7d"/>
    <path id="Path_996" data-name="Path 996" d="M1092.963,917.015a14.537,14.537,0,0,0-1.764-.2l-31.28-.026-2.671-6.637-.977-2.43H1041.3a2.842,2.842,0,0,0-2.844,2.842V949.44a2.844,2.844,0,0,0,2.845,2.844h53.129a2.844,2.844,0,0,0,2.845-2.844V922.689A5.905,5.905,0,0,0,1092.963,917.015Zm-14.447,20.694h-7.434v7.435h-6.436v-7.435h-7.435v-6.436h7.435v-7.435h6.436v7.435h7.434Z" transform="translate(0 0)" fill="#6b98c1"/>
    <path id="Path_997" data-name="Path 997" d="M1064.365,939.37v-7.436h7.433V925.5h-7.433v-7.434h-6.437V925.5h-7.435v6.437h7.435v7.436Z" transform="translate(6.718 5.775)" fill="#fff"/>
  </g>
</svg>
