<svg xmlns="http://www.w3.org/2000/svg" xmlns:xlink="http://www.w3.org/1999/xlink" viewBox="0 0 100 100"><defs><style>.cls-1{fill:url(#linear-gradient);}.cls-2{fill:#262262;}.cls-3{fill:#fff;}.cls-4{fill:#d1d3d4;}.cls-5{fill:#e6e7e8;}</style><linearGradient id="linear-gradient" y1="50" x2="100" y2="50" gradientUnits="userSpaceOnUse"><stop offset="0" stop-color="#1a3388"/><stop offset="1" stop-color="#3147ff"/></linearGradient></defs><title>er-icon</title><g id="new_bg_color" data-name="new bg color"><rect class="cls-1" width="100" height="100"/></g><g id="er"><path class="cls-2" d="M36.16,23.49l-1.06.59a2.05,2.05,0,0,0-.74,2.77l2.73,4.71,4.56-2.62-2.73-4.71A2,2,0,0,0,36.16,23.49Z" transform="translate(0)"/><path class="cls-2" d="M69.49,24.08l-1-.59a2,2,0,0,0-2.77.74L63,28.94l4.56,2.62,2.73-4.71A2,2,0,0,0,69.49,24.08Z" transform="translate(0)"/><rect class="cls-2" x="44.28" y="12.81" width="16.04" height="8.62"/><circle class="cls-3" cx="52.3" cy="52.48" r="26.31"/><path class="cls-4" d="M53.56,24.68V21.43H51v3.25a27.84,27.84,0,1,0,2.53,0Zm12.21,48.6-1.28-2.23L62.3,72.33l1.28,2.23a24.66,24.66,0,0,1-10,2.69v-2.6H51v2.6a24.7,24.7,0,0,1-10-2.69l1.28-2.23-2.19-1.28-1.28,2.23A24.86,24.86,0,0,1,31.5,66l2.23-1.28-1.26-2.18-2.24,1.29a24.49,24.49,0,0,1-2.69-10.05h2.59v-2.5H27.54a24.44,24.44,0,0,1,2.69-10l2.24,1.31,1.26-2.21L31.5,39a24.86,24.86,0,0,1,7.33-7.33l1.28,2.24,2.19-1.28L41,30.43a24.25,24.25,0,0,1,10-2.71v2.59h2.53V27.72a24.22,24.22,0,0,1,10,2.71L62.3,32.64l2.19,1.28,1.28-2.24A25.14,25.14,0,0,1,73.11,39l-2.25,1.28,1.27,2.21,2.25-1.31a25.09,25.09,0,0,1,2.7,10H74.49v2.5h2.59a25.13,25.13,0,0,1-2.7,10.05l-2.25-1.29-1.27,2.18L73.11,66A25.14,25.14,0,0,1,65.77,73.28Z" transform="translate(0)"/><path class="cls-5" d="M67,48.49a7.88,7.88,0,0,0-14.67-4,7.88,7.88,0,0,0-14.67,4c0,9.3,14.67,18.24,14.67,18.24S67,57.79,67,48.49Z" transform="translate(0)"/><path class="cls-2" d="M51.29,61.33a1.26,1.26,0,0,1-1.12-.68L47,54.3l-1.73,3.1a1.29,1.29,0,0,1-1.1.65H35.92V55.52H43.4L46,51a1.22,1.22,0,0,1,1.13-.66,1.26,1.26,0,0,1,1.11.69l3.05,6.11,4.65-10.22a1.26,1.26,0,0,1,1.19-.75,1.22,1.22,0,0,1,1.14.78l3.41,8.58h7v2.53H60.78a1.26,1.26,0,0,1-1.18-.8L57,50.63l-4.51,10a1.26,1.26,0,0,1-1.13.74Z" transform="translate(0)"/></g></svg>