<svg xmlns="http://www.w3.org/2000/svg" width="29.679" height="56.299" viewBox="0 0 29.679 56.299">
  <g id="Group_825" data-name="Group 825" transform="translate(-43.327 -251.652)">
    <rect id="Rectangle_2246" data-name="Rectangle 2246" width="5.699" height="18.625" transform="translate(54.975 251.652)" fill="#6b98c1"/>
    <path id="Path_747" data-name="Path 747" d="M62.716,270.005h.254a10.037,10.037,0,0,1,10.035,9.95V299.94a10.055,10.055,0,0,1-10.035,10.035H53.277a9.98,9.98,0,0,1-9.95-10.035V279.955a9.95,9.95,0,0,1,9.609-9.95v4.337h9.781Z" transform="translate(0 -2.024)" fill="#546f88" fill-rule="evenodd"/>
    <path id="Path_748" data-name="Path 748" d="M50.5,277.556H67.248a.75.75,0,0,1,.68.766v9.864a.731.731,0,0,1-.68.681H50.5a.749.749,0,0,1-.767-.681v-9.864a.762.762,0,0,1,.767-.766Z" transform="translate(-0.706 -2.857)" fill="#6b98c1" fill-rule="evenodd"/>
    <path id="Path_749" data-name="Path 749" d="M54.146,293.328H64.354a.732.732,0,0,1,.68.68v4.423a.732.732,0,0,1-.68.681H54.146a.657.657,0,0,1-.6-.681v-4.423a.657.657,0,0,1,.6-.68Z" transform="translate(-1.128 -4.596)" fill="#6b98c1" fill-rule="evenodd"/>
    <path id="Path_750" data-name="Path 750" d="M59.777,294.953a1.386,1.386,0,0,1,1.448,1.446,1.435,1.435,0,0,1-1.448,1.445,1.489,1.489,0,0,1-1.444-1.445,1.433,1.433,0,0,1,1.444-1.446Z" transform="translate(-1.655 -4.776)" fill="#fff" fill-rule="evenodd"/>
    <path id="Path_751" data-name="Path 751" d="M58.757,251.652h1.529a.4.4,0,0,1,.428.425v5.782a.458.458,0,0,1-.428.425H58.757a.455.455,0,0,1-.424-.425v-5.782a.4.4,0,0,1,.424-.425Z" transform="translate(-1.655 0)" fill="#fff" fill-rule="evenodd"/>
  </g>
</svg>
