<svg id="Group_737" data-name="Group 737" xmlns="http://www.w3.org/2000/svg" width="26.771" height="24.632" viewBox="0 0 26.771 24.632">
  <path id="Path_324" data-name="Path 324" d="M485,605.38h0l1.689-6.261h1.481l2.926,10.915,1.07-4.079.743-.576h2.8l1.689-6.261h1.484l1.688,6.261h4.862a11.666,11.666,0,0,0,.533-3.42,7.919,7.919,0,0,0-7.7-8.114,7.7,7.7,0,0,0-5.685,2.6,7.6,7.6,0,0,0-5.642-2.6,7.952,7.952,0,0,0-7.742,8.114,11.654,11.654,0,0,0,.577,3.42Z" transform="translate(-479.197 -593.846)" fill="#e1e1e1"/>
  <path id="Path_325" data-name="Path 325" d="M501.529,618.1h4.862c-3.255,7-12.235,11.533-12.235,11.533s-8.937-4.53-12.192-11.533h5.191l.74-.578,1.113-4.077,2.926,10.917h1.481L495.1,618.1h2.761l.741-.578,1.07-4.077,1.112,4.077Z" transform="translate(-480.771 -604.998)" fill="#e1e1e1"/>
</svg>
