<svg xmlns="http://www.w3.org/2000/svg" width="37.679" height="54.766" viewBox="0 0 37.679 54.766">
  <g id="Group_833" data-name="Group 833" transform="translate(-1044 -479.926)">
    <path id="Path_760" data-name="Path 760" d="M1046.062,535.779l7.309-.068a2.032,2.032,0,0,0,1.749-2.221l-.286-47.5a2.015,2.015,0,0,0-1.776-2.188l-7.308.07A2.029,2.029,0,0,0,1044,486.1l.286,47.5A2.015,2.015,0,0,0,1046.062,535.779Zm-.307-50.815,7.308-.068a1.019,1.019,0,0,1,.9,1.107l.042,6.97-3.048.029c-.467,0-.462.911.006.906l3.047-.028.016,2.6-3.048.029c-.466,0-.461.912.006.908l3.047-.029.016,2.6-3.047.03c-.466,0-.461.911.005.906l3.047-.028.016,2.6-5.176.049c-.467.005-.462.912.006.909l5.175-.05.016,2.6-3.047.03c-.467,0-.462.911.006.906l3.047-.028.016,2.6-3.047.03c-.467,0-.462.911.005.907l3.047-.029.016,2.6-3.047.03c-.466,0-.462.911.006.906l3.047-.028.016,2.6-5.175.05c-.467,0-.462.911.005.907l5.175-.05.016,2.6-3.047.03c-.467,0-.463.911.005.906l3.047-.028.015,2.6-3.047.03c-.466.005-.461.911.006.907l3.047-.028.049,8.046a1.029,1.029,0,0,1-.885,1.124l-7.309.068a1.017,1.017,0,0,1-.9-1.106l-.288-47.5A1.03,1.03,0,0,1,1045.755,484.964Z" transform="translate(0 -1.087)" fill="#546f88"/>
    <g id="Group_832" data-name="Group 832" transform="translate(1060.928 479.926)">
      <circle id="Ellipse_327" data-name="Ellipse 327" cx="5.375" cy="5.375" r="5.375" transform="translate(2.773 7.602) rotate(-45)" fill="#6b98c1"/>
      <path id="Path_761" data-name="Path 761" d="M1080.8,497.952h-5.8c-4.121,0-7.463,2.834-7.463,6.329h-.028v13.713a2.149,2.149,0,0,0,2.149,2.148h0a2.148,2.148,0,0,0,2.148-2.148V504.562a.281.281,0,0,1,.281-.281h0a.281.281,0,0,1,.281.281v32.424a2.658,2.658,0,0,0,2.657,2.657h0a2.658,2.658,0,0,0,2.657-2.657V518.342a.293.293,0,0,1,.294-.294h0a.294.294,0,0,1,.294.294v18.722a2.579,2.579,0,0,0,2.579,2.579h0a2.579,2.579,0,0,0,2.579-2.579V504.548a.267.267,0,0,1,.267-.267h0a.267.267,0,0,1,.267.267v13.446a2.148,2.148,0,0,0,2.148,2.148h0a2.148,2.148,0,0,0,2.149-2.148V504.281C1088.266,500.786,1084.924,497.952,1080.8,497.952Z" transform="translate(-1067.515 -484.975)" fill="#6b98c1"/>
    </g>
  </g>
</svg>
