<svg xmlns="http://www.w3.org/2000/svg" width="308.611" height="588.685" viewBox="0 0 308.611 588.685">
  <path id="Path_741" data-name="Path 741" d="M563.121,358.545a61.951,61.951,0,0,0-7.595-9.3c-.675-.721-1.357-1.439-2.036-2.157-6.029-6.4-6.825-14.424-8.115-22.138a211.8,211.8,0,0,0-4.778-23.141,82.137,82.137,0,0,0-4.019-11.226c-1.441-3.261-3.943-6.428-4.626-9.877-1.024-5.362.038-10.755-1.024-16.117-2.313-11.821-4.512-24.082-7.584-35.966-1.555-6.083-3.906-12.48-5.119-18.814-1.4-7.149.682-14.33-1.175-21.448a32.149,32.149,0,0,0-18.125-21.134c-10.086-4.609-22.03-5.237-33.292-5.958a44.625,44.625,0,0,1-9.176-1.631c-10.276-3.01-27.263-12.543-24-23.141,1.236-4.014,5.805-6.974,8.065-10.617a54.665,54.665,0,0,0,6.112-13.709c3.181-11.044,2.313-22.567-1.02-33.495a30.162,30.162,0,0,0-4.963-9.432,34.775,34.775,0,0,0-10.738-9.131c-8.361-4.641-19.316-6.183-28.787-3.057-9.275,3.064-15.08,9.884-18.341,17.447-6.188,14.355-5.9,31.657,1.441,45.63a51.848,51.848,0,0,0,4.436,6.93c2.01,2.728,5.157,4.7,6.1,7.9,3.261,10.6-13.726,20.134-24,23.144a44.623,44.623,0,0,1-9.176,1.631c-11.262.721-23.206,1.348-33.292,5.958a32.142,32.142,0,0,0-18.125,21.134c-1.858,7.118.228,14.3-1.175,21.448-1.213,6.334-3.564,12.731-5.119,18.814-3.071,11.884-5.271,24.144-7.583,35.966-1.062,5.362,0,10.755-1.024,16.117-.683,3.449-3.185,6.616-4.626,9.877a82.146,82.146,0,0,0-4.019,11.225,211.782,211.782,0,0,0-4.778,23.141c-1.289,7.714-2.086,15.738-8.115,22.134-.679.721-1.361,1.439-2.036,2.16a61.952,61.952,0,0,0-7.6,9.3,34.053,34.053,0,0,0-4.789,16.851c-.083,2.073.72,3.512,2.859,4.66.785.423,2.616,1.254,2.992.019.19-.753-1.934-1.913-2.351-2.822-.152-.379-.341-.784-.531-1.254a11.567,11.567,0,0,0,2.654,3.355,14.882,14.882,0,0,0,1.82,1.439c.872.63,1.972,1.728,3.261,1.035a1.1,1.1,0,0,0,.607-1.282,2.353,2.353,0,0,0-.455-1,7.349,7.349,0,0,0-.758-1.069c-.341-.408-.72-.784-1.062-1.192a14.36,14.36,0,0,1-1.441-1.878,9.886,9.886,0,0,1-.834-1.665,9.66,9.66,0,0,1-.379-4.638,17.887,17.887,0,0,1,1.555-5.522,18.756,18.756,0,0,0-1.289,5.331,11.046,11.046,0,0,0,.834,5.4,12.158,12.158,0,0,0,1.138,2.035,13.443,13.443,0,0,0,.948,1.317c.265.379.607.756.872,1.132.266.408.531.843.759,1.251.227.442.531.85.758,1.257a10.1,10.1,0,0,0,.948,1.223,3.472,3.472,0,0,0,1.024.815,1.257,1.257,0,0,0,1.062,0c1.479-.784.3-2.979-.152-3.982-.8-1.822-2.616-3.2-3.3-5.08a6.935,6.935,0,0,1,.114-4.2,9.424,9.424,0,0,0,.038,2.731,12.152,12.152,0,0,0,2.124,4.547c1.82,3.042,3.526,7.648,8.114,8.466a3.7,3.7,0,0,0,4.4-2.32,4.26,4.26,0,0,0-.379-3.452c-1.137-2-2.958-3.6-3.943-5.672a12.4,12.4,0,0,1,.341-10.79,32.454,32.454,0,0,1,3.223-5.39,18.55,18.55,0,0,1,2.882-3.355c.569-.47.91-.784,1.593-.314,2.844,2,2.692,5.55,1.934,8.275a46.681,46.681,0,0,1-1.744,4.672c-.986,2.574-1.934,5.362,1.365,7.055,2.427,1.289,6.143,1.508,7.735-.812,2.123-3.107,2.806-6.93,3.034-10.442.265-4.076-.569-8.153-.228-12.292.493-6.71-1.441-14.894,2.047-21.071,3.109-5.519,8.759-9.752,11.793-15.271a67.351,67.351,0,0,0,7.106-21.94c1.126-7,.69-14.64,4.975-21a61.824,61.824,0,0,0,8.888-19.933,157.273,157.273,0,0,0,4.084-21.777q.648-5.578.922-11.182.136-2.8.186-5.6c.027-1.687-.432-3.982.2-5.528,4.9.354,5.35,9.561,6.173,12.436,1.323,4.644,2.07,9.382,2.92,14.1a143.466,143.466,0,0,1,1.884,32.049,243.429,243.429,0,0,1-3.848,32.059c-1.934,10.721-5.6,21.517-6.837,32.284a364.644,364.644,0,0,0-1.884,63.65,160.911,160.911,0,0,0,2.992,24.069c1.911,8.893,4.144,18.45.91,27.321-7.091,19.438-7.963,40.7-8.759,60.894-.417,10.849-.758,21.73.493,32.548.683,5.864,2.389,11.661,3.678,17.465q.4,1.787.682,3.571c.228,1.195.379,2.383.531,3.578.152,1.157.227,2.352.265,3.54a28.214,28.214,0,0,1-.038,3.1,2.122,2.122,0,0,1-.038.5,14.54,14.54,0,0,1-.645,3.383,1.219,1.219,0,0,1-.038.16,20.022,20.022,0,0,1-1.441,3.571A33.789,33.789,0,0,1,336.675,580c-1.289,2.132-2.73,4.264-3.981,6.494-3.413,5.989-4.7,12.637-6.332,19.065-2.161,8.529-6.256,15.584-10.731,23.517a17.844,17.844,0,0,0-2.5,6.052c-.531,3.543,1.365,6.146,5.46,7.087,6.674,1.537,15.129-2.132,19.49-6.115,3.109-2.759,5.346-6.052,7.773-9.219,4.133-5.456,8.873-11.414,14.788-15.678,4.778-3.449,11.6-5.268,14.295-10.41,3.716-7.024-2.692-13.957-5.725-20.792A14.658,14.658,0,0,1,368,576.428a5.636,5.636,0,0,1-.152-.784c-.152-.937-.227-1.847-.3-2.787-.076-1.223-.114-2.414-.076-3.543,0-1.192.114-2.414.228-3.609s.265-2.352.493-3.54c.19-1.195.455-2.383.758-3.578.266-1.188.569-2.38.948-3.571,4.892-16.619,15.546-32.893,15.47-50.2-.076-16.117-5.536-32.956-1.934-48.979,2.578-11.511,11.982-21.166,15.433-32.579a342.309,342.309,0,0,0,9.024-34.461c1.1-5.691.914-11.771,1.4-17.622a44.583,44.583,0,0,1,1.327-7.325c.246-.944,2.086-6.873,3.985-5.274a2.158,2.158,0,0,1,.588.972c1.907,5.205,1.373,10.548,1.934,15.885q.779,7.479,2.214,14.9a342.071,342.071,0,0,0,9.025,34.461c3.45,11.414,12.854,21.071,15.432,32.579,3.6,16.023-1.858,32.861-1.934,48.979-.076,17.309,10.579,33.583,15.471,50.2.379,1.192.682,2.383.948,3.575.3,1.192.569,2.383.758,3.575.227,1.192.379,2.352.493,3.543s.228,2.414.228,3.606c.038,1.129,0,2.32-.076,3.543-.076.941-.152,1.85-.3,2.791a5.723,5.723,0,0,1-.152.784,14.746,14.746,0,0,1-1.213,3.575c-3.033,6.836-9.442,13.765-5.726,20.789,2.692,5.143,9.517,6.961,14.3,10.41C472.5,617,477.237,622.96,481.37,628.416c2.427,3.167,4.664,6.459,7.773,9.219,4.36,3.982,12.816,7.651,19.49,6.115,4.1-.941,5.991-3.543,5.46-7.087a17.845,17.845,0,0,0-2.5-6.052c-4.474-7.933-8.569-14.988-10.731-23.517-1.631-6.428-2.92-13.076-6.332-19.065-1.251-2.226-2.692-4.359-3.981-6.491a34.076,34.076,0,0,1-1.972-3.575,20.15,20.15,0,0,1-1.441-3.575,1.152,1.152,0,0,1-.038-.157,14.593,14.593,0,0,1-.645-3.386,2.106,2.106,0,0,1-.038-.5,28.247,28.247,0,0,1-.038-3.1c.038-1.192.114-2.383.266-3.543.152-1.191.3-2.383.531-3.575q.284-1.787.682-3.575c1.289-5.8,3-11.6,3.678-17.465,1.251-10.818.91-21.7.493-32.548-.8-20.193-1.668-41.453-8.759-60.894-3.234-8.871-1-18.425.91-27.321a160.867,160.867,0,0,0,2.992-24.069,364.612,364.612,0,0,0-1.885-63.647c-1.24-10.771-4.9-21.564-6.837-32.288a243.44,243.44,0,0,1-3.849-32.059,143.47,143.47,0,0,1,1.884-32.049c.849-4.716,1.6-9.454,2.92-14.1.823-2.875,1.278-12.078,6.173-12.436.629,1.546.167,3.841.2,5.528q.045,2.8.186,5.606.273,5.6.922,11.179a157.292,157.292,0,0,0,4.084,21.777c1.744,6.648,3.451,13.546,8.342,19.19,3,3.512,4.209,9.313,4.588,13.922.872,10.128,2.92,20.444,8.039,29.757,3.034,5.519,8.683,9.752,11.792,15.27,3.488,6.177,1.555,14.361,2.047,21.071.341,4.139-.493,8.215-.227,12.292.227,3.512.91,7.337,3.033,10.442,1.592,2.32,5.309,2.1,7.735.815,3.3-1.693,2.351-4.484,1.365-7.055a46.644,46.644,0,0,1-1.744-4.672c-.758-2.728-.91-6.271,1.934-8.278.683-.47,1.024-.157,1.593.314a18.55,18.55,0,0,1,2.882,3.355,32.484,32.484,0,0,1,3.223,5.393,12.389,12.389,0,0,1,.341,10.787c-.986,2.069-2.806,3.669-3.944,5.675a4.252,4.252,0,0,0-.379,3.449,3.7,3.7,0,0,0,4.4,2.32c4.588-.815,6.294-5.425,8.114-8.466a12.152,12.152,0,0,0,2.123-4.547,9.406,9.406,0,0,0,.038-2.728,6.923,6.923,0,0,1,.114,4.2c-.682,1.881-2.5,3.261-3.3,5.08-.455,1-1.63,3.2-.152,3.982a1.257,1.257,0,0,0,1.062,0,3.428,3.428,0,0,0,1.024-.815,10.092,10.092,0,0,0,.948-1.223c.228-.408.531-.815.758-1.254.228-.408.493-.847.759-1.254.265-.376.607-.753.872-1.129a14.289,14.289,0,0,0,.948-1.317,12.307,12.307,0,0,0,1.138-2.038,11.036,11.036,0,0,0,.834-5.393,18.74,18.74,0,0,0-1.289-5.331,17.852,17.852,0,0,1,1.555,5.519,9.667,9.667,0,0,1-.379,4.641,9.983,9.983,0,0,1-.834,1.662,14.592,14.592,0,0,1-1.441,1.881c-.341.408-.72.784-1.062,1.192a7.16,7.16,0,0,0-.758,1.066,2.367,2.367,0,0,0-.455,1,1.105,1.105,0,0,0,.607,1.286c1.289.69,2.389-.408,3.261-1.035a14.862,14.862,0,0,0,1.82-1.442A11.568,11.568,0,0,0,564.942,376c-.19.47-.379.878-.531,1.254-.417.909-2.54,2.07-2.351,2.822.375,1.235,2.207.4,2.992-.019,2.138-1.145,2.943-2.587,2.859-4.66A34.06,34.06,0,0,0,563.121,358.545Z" transform="translate(-259.305 -55.423)" fill="#092e42"/>
</svg>
