<svg xmlns="http://www.w3.org/2000/svg" xmlns:xlink="http://www.w3.org/1999/xlink" viewBox="0 0 100 100"><defs><style>.cls-1{fill:url(#linear-gradient);}.cls-2{fill:#c6c6c6;}.cls-3{fill:#525c6b;}.cls-4{fill:#e2e2e2;}.cls-5{fill:#7a8e9b;}.cls-6{fill:#262262;}.cls-7{fill:#bcbec0;}.cls-8{fill:#fff;}.cls-9{fill:#1b75bc;}</style><linearGradient id="linear-gradient" y1="50" x2="100" y2="50" gradientUnits="userSpaceOnUse"><stop offset="0" stop-color="#1a3388"/><stop offset="1" stop-color="#3147ff"/></linearGradient></defs><title>ipd-icon</title><g id="new_bg_color" data-name="new bg color"><rect class="cls-1" width="100" height="100"/></g><g id="ipd"><rect class="cls-2" x="65.95" y="44.34" width="16.67" height="37.27"/><rect class="cls-2" x="19.85" y="44.34" width="16.67" height="37.27"/><polygon class="cls-3" points="74.78 34.55 51.23 34.55 27.7 34.55 19.85 44.34 82.63 44.34 74.78 34.55"/><rect class="cls-4" x="36.53" y="18.86" width="29.43" height="62.76"/><rect class="cls-5" x="42.41" y="71.82" width="17.65" height="9.79"/><rect class="cls-6" x="33.58" y="18.86" width="35.31" height="4.88"/><path class="cls-7" d="M58.59,37a7.36,7.36,0,1,1-7.36-7.36A7.36,7.36,0,0,1,58.59,37Z" transform="translate(0)"/><polygon class="cls-8" points="55.66 35.76 52.46 35.76 52.46 32.58 50.01 32.58 50.01 35.76 46.83 35.76 46.83 38.22 50.01 38.22 50.01 41.4 52.46 41.4 52.46 38.22 55.66 38.22 55.66 35.76"/><path class="cls-9" d="M25.4,50.32a1.26,1.26,0,0,1-.87-.34,1.23,1.23,0,0,1,0-1.74,1.27,1.27,0,0,1,1.74,0,1.21,1.21,0,0,1,0,1.74A1.22,1.22,0,0,1,25.4,50.32Z" transform="translate(0)"/><path class="cls-9" d="M24.17,70.4a1.23,1.23,0,0,1,1.25-1.21h0a1.23,1.23,0,0,1,1.22,1.21h0a1.24,1.24,0,0,1-1.22,1.25h0A1.24,1.24,0,0,1,24.17,70.4Zm0-5.31a1.22,1.22,0,0,1,1.25-1.22h0a1.22,1.22,0,0,1,1.22,1.22h0a1.23,1.23,0,0,1-1.22,1.21h0A1.23,1.23,0,0,1,24.17,65.09Zm0-5.32a1.24,1.24,0,0,1,1.25-1.24h0a1.24,1.24,0,0,1,1.22,1.24h0A1.23,1.23,0,0,1,25.42,61h0A1.23,1.23,0,0,1,24.17,59.77Zm0-5.34a1.23,1.23,0,0,1,1.25-1.22h0a1.23,1.23,0,0,1,1.22,1.22h0a1.23,1.23,0,0,1-1.22,1.21h0A1.23,1.23,0,0,1,24.17,54.43Z" transform="translate(0)"/><path class="cls-9" d="M25.4,77a1.29,1.29,0,0,1-.87-.37,1.2,1.2,0,0,1-.36-.84,1.37,1.37,0,0,1,.36-.9,1.33,1.33,0,0,1,1.74,0,1.29,1.29,0,0,1,.37.9,1.13,1.13,0,0,1-.37.84A1.23,1.23,0,0,1,25.4,77Z" transform="translate(0)"/><path class="cls-9" d="M31,50.32A1.18,1.18,0,0,1,30.1,50a1.23,1.23,0,0,1,0-1.74,1.26,1.26,0,0,1,1.73,0,1.24,1.24,0,0,1,.36.87,1.12,1.12,0,0,1-.36.84A1.14,1.14,0,0,1,31,50.32Z" transform="translate(0)"/><path class="cls-9" d="M29.74,70.4A1.22,1.22,0,0,1,31,69.19h0a1.23,1.23,0,0,1,1.23,1.21h0A1.21,1.21,0,0,1,31,71.62h0A1.21,1.21,0,0,1,29.74,70.4Zm0-5.31A1.21,1.21,0,0,1,31,63.87h0a1.21,1.21,0,0,1,1.23,1.22h0A1.23,1.23,0,0,1,31,66.3h0A1.22,1.22,0,0,1,29.74,65.09Zm0-5.32A1.23,1.23,0,0,1,31,58.53h0a1.23,1.23,0,0,1,1.23,1.24h0A1.23,1.23,0,0,1,31,61h0A1.22,1.22,0,0,1,29.74,59.77Zm0-5.34A1.22,1.22,0,0,1,31,53.21h0a1.23,1.23,0,0,1,1.23,1.22h0A1.23,1.23,0,0,1,31,55.64h0A1.22,1.22,0,0,1,29.74,54.43Z" transform="translate(0)"/><path class="cls-9" d="M31,77a1.21,1.21,0,0,1-.86-.37,1.12,1.12,0,0,1-.36-.84,1.28,1.28,0,0,1,.36-.9,1.32,1.32,0,0,1,1.73,0,1.28,1.28,0,0,1,.36.9,1.12,1.12,0,0,1-.36.84A1.25,1.25,0,0,1,31,77Z" transform="translate(0)"/><path class="cls-9" d="M71.52,50.32a1.29,1.29,0,0,1-.89-.34,1.23,1.23,0,0,1,0-1.74,1.23,1.23,0,0,1,2.1.87,1.23,1.23,0,0,1-1.21,1.21Z" transform="translate(0)"/><path class="cls-9" d="M70.29,70.4a1.21,1.21,0,0,1,1.21-1.21h0a1.23,1.23,0,0,1,1.23,1.21h0a1.23,1.23,0,0,1-1.23,1.25h0A1.22,1.22,0,0,1,70.29,70.4Zm0-5.31a1.21,1.21,0,0,1,1.21-1.24h0a1.23,1.23,0,0,1,1.23,1.24h0A1.23,1.23,0,0,1,71.5,66.3h0A1.21,1.21,0,0,1,70.29,65.09Zm0-5.32a1.21,1.21,0,0,1,1.21-1.24h0a1.23,1.23,0,0,1,1.23,1.24h0A1.23,1.23,0,0,1,71.5,61h0A1.21,1.21,0,0,1,70.29,59.77Zm0-5.34a1.21,1.21,0,0,1,1.21-1.22h0a1.23,1.23,0,0,1,1.23,1.22h0a1.23,1.23,0,0,1-1.23,1.21h0A1.21,1.21,0,0,1,70.29,54.43Z" transform="translate(0)"/><path class="cls-9" d="M71.52,77a1.3,1.3,0,0,1-.89-.37,1.2,1.2,0,0,1-.36-.84,1.37,1.37,0,0,1,.36-.9,1.35,1.35,0,0,1,1.75,0,1.31,1.31,0,0,1,.35.9,1.15,1.15,0,0,1-.35.84A1.27,1.27,0,0,1,71.52,77Z" transform="translate(0)"/><path class="cls-9" d="M77.06,50.32a1.25,1.25,0,0,1-1.22-1.21,1.24,1.24,0,0,1,.36-.87,1.29,1.29,0,0,1,1.73,0,1.37,1.37,0,0,1,.36.9,1.12,1.12,0,0,1-.36.84A1.14,1.14,0,0,1,77.06,50.32Z" transform="translate(0)"/><path class="cls-9" d="M75.84,70.4a1.22,1.22,0,0,1,1.22-1.21h0a1.23,1.23,0,0,1,1.23,1.21h0a1.23,1.23,0,0,1-1.23,1.25h0A1.23,1.23,0,0,1,75.84,70.4Zm0-5.31a1.23,1.23,0,0,1,1.22-1.24h0a1.23,1.23,0,0,1,1.23,1.24h0a1.23,1.23,0,0,1-1.23,1.21h0A1.22,1.22,0,0,1,75.84,65.09Zm0-5.32a1.23,1.23,0,0,1,1.22-1.24h0a1.23,1.23,0,0,1,1.23,1.24h0A1.23,1.23,0,0,1,77.06,61h0A1.22,1.22,0,0,1,75.84,59.77Zm0-5.34a1.22,1.22,0,0,1,1.22-1.22h0a1.23,1.23,0,0,1,1.23,1.22h0a1.23,1.23,0,0,1-1.23,1.21h0A1.22,1.22,0,0,1,75.84,54.43Z" transform="translate(0)"/><path class="cls-9" d="M77.06,77a1.25,1.25,0,0,1-.86-.37,1.12,1.12,0,0,1-.36-.84,1.28,1.28,0,0,1,.36-.9,1.32,1.32,0,0,1,1.73,0,1.28,1.28,0,0,1,.36.9,1.12,1.12,0,0,1-.36.84A1.25,1.25,0,0,1,77.06,77Z" transform="translate(0)"/><path class="cls-9" d="M48.3,50.32a1.23,1.23,0,0,1-.88-.34,1.28,1.28,0,0,1-.35-.87,1.22,1.22,0,0,1,2.08-.87,1.21,1.21,0,0,1,.37.87,1.1,1.1,0,0,1-.37.84A1.07,1.07,0,0,1,48.3,50.32Z" transform="translate(0)"/><path class="cls-9" d="M47.07,60.78a1.23,1.23,0,0,1,1.23-1.21h0a1.22,1.22,0,0,1,1.22,1.21h0A1.23,1.23,0,0,1,48.3,62h0A1.23,1.23,0,0,1,47.07,60.78Zm0-5.83a1.24,1.24,0,0,1,1.23-1.24h0A1.24,1.24,0,0,1,49.52,55h0a1.25,1.25,0,0,1-1.22,1.24h0A1.25,1.25,0,0,1,47.07,55Z" transform="translate(0)"/><path class="cls-9" d="M48.3,67.86a1.23,1.23,0,0,1-.88-.34,1.26,1.26,0,0,1,0-1.74,1.26,1.26,0,0,1,1.73,0,1.21,1.21,0,0,1,0,1.74A1.15,1.15,0,0,1,48.3,67.86Z" transform="translate(0)"/><path class="cls-9" d="M42.41,50.32a1.22,1.22,0,0,1-.87-.34,1.23,1.23,0,0,1,0-1.74,1.26,1.26,0,0,1,1.73,0,1.23,1.23,0,0,1,0,1.74A1.18,1.18,0,0,1,42.41,50.32Z" transform="translate(0)"/><path class="cls-9" d="M41.18,60.78a1.23,1.23,0,0,1,1.23-1.21h0a1.22,1.22,0,0,1,1.22,1.21h0A1.23,1.23,0,0,1,42.41,62h0A1.23,1.23,0,0,1,41.18,60.78Zm0-5.83a1.24,1.24,0,0,1,1.23-1.24h0A1.24,1.24,0,0,1,43.63,55h0a1.24,1.24,0,0,1-1.22,1.24h0A1.25,1.25,0,0,1,41.18,55Z" transform="translate(0)"/><path class="cls-9" d="M42.41,67.86a1.22,1.22,0,0,1-.87-.34,1.23,1.23,0,0,1,0-1.74,1.26,1.26,0,0,1,1.73,0,1.23,1.23,0,0,1,0,1.74A1.18,1.18,0,0,1,42.41,67.86Z" transform="translate(0)"/><path class="cls-9" d="M54.18,50.32a1.15,1.15,0,0,1-.87-.37,1.12,1.12,0,0,1-.36-.84,1.24,1.24,0,0,1,.36-.87,1.27,1.27,0,0,1,1.74,0,1.34,1.34,0,0,1,.36.87,1.2,1.2,0,0,1-.36.84A1.14,1.14,0,0,1,54.18,50.32Z" transform="translate(0)"/><path class="cls-9" d="M53,60.78a1.23,1.23,0,0,1,1.23-1.21h0a1.23,1.23,0,0,1,1.23,1.21h0A1.23,1.23,0,0,1,54.18,62h0A1.23,1.23,0,0,1,53,60.78ZM53,55a1.24,1.24,0,0,1,1.23-1.24h0A1.24,1.24,0,0,1,55.41,55h0a1.25,1.25,0,0,1-1.23,1.24h0A1.25,1.25,0,0,1,53,55Z" transform="translate(0)"/><path class="cls-9" d="M54.18,67.86a1.22,1.22,0,0,1-.87-2.08,1.27,1.27,0,0,1,1.74,0,1.23,1.23,0,0,1,0,1.74A1.22,1.22,0,0,1,54.18,67.86Z" transform="translate(0)"/><path class="cls-9" d="M60.06,50.32a1.22,1.22,0,0,1-.87-.34,1.23,1.23,0,0,1,0-1.74,1.27,1.27,0,0,1,1.74,0,1.24,1.24,0,0,1,.36.87,1.12,1.12,0,0,1-.36.84A1.11,1.11,0,0,1,60.06,50.32Z" transform="translate(0)"/><path class="cls-9" d="M58.83,60.78a1.23,1.23,0,0,1,1.23-1.21h0a1.23,1.23,0,0,1,1.23,1.21h0A1.23,1.23,0,0,1,60.06,62h0A1.23,1.23,0,0,1,58.83,60.78Zm0-5.83a1.24,1.24,0,0,1,1.23-1.24h0A1.24,1.24,0,0,1,61.29,55h0a1.25,1.25,0,0,1-1.23,1.24h0A1.25,1.25,0,0,1,58.83,55Z" transform="translate(0)"/><path class="cls-9" d="M60.06,67.86a1.22,1.22,0,0,1-.87-.34,1.23,1.23,0,0,1,0-1.74,1.27,1.27,0,0,1,1.74,0,1.23,1.23,0,0,1,0,1.74A1.19,1.19,0,0,1,60.06,67.86Z" transform="translate(0)"/><path class="cls-3" d="M60.8,80.14v-9H41.67v9H19.85v3H82.63v-3Zm-1.48-7.6v7.6H52v-7.6Zm-16.18,0H50.5v7.6H43.14Z" transform="translate(0)"/></g></svg>