<svg xmlns="http://www.w3.org/2000/svg" xmlns:xlink="http://www.w3.org/1999/xlink" viewBox="0 0 100 100"><defs><style>.cls-1{fill:url(#linear-gradient);}.cls-2,.cls-3{fill:none;}.cls-2,.cls-3,.cls-4{stroke:#fff;}.cls-2,.cls-4{stroke-miterlimit:10;}.cls-2{stroke-width:4px;}.cls-3{stroke-width:3px;isolation:isolate;}.cls-4{fill:#fff;}</style><linearGradient id="linear-gradient" y1="50" x2="100" y2="50" gradientUnits="userSpaceOnUse"><stop offset="0" stop-color="#1a3388"/><stop offset="1" stop-color="#3147ff"/></linearGradient></defs><title>opd-icon</title><g id="new_bg_color" data-name="new bg color"><rect class="cls-1" width="100" height="100"/></g><g id="opd"><path class="cls-2" d="M81.68,61.15c0,11.1-10.09,20.09-22.53,20.09s-22.52-9-22.52-20.09" transform="translate(0)"/><path id="Path_449" data-name="Path 449" class="cls-3" d="M53,60h5.53l2.32-6.53,4.64,13.4,2.46-6.64h4l2.41-6.76,2.41,6.76h6.82" transform="translate(0)"/><circle class="cls-4" cx="26.59" cy="21.88" r="3.12"/><circle class="cls-4" cx="46.11" cy="21.88" r="3.12"/><path class="cls-2" d="M46.15,22.09s9.38,0,9.38,6.3c0,1.89,0,4.62-.35,7.76-1.31,13.27-9.85,23.11-19.81,23.11h0" transform="translate(0)"/><path class="cls-2" d="M26.69,22.09s-10.22,0-10.22,6.35a72.45,72.45,0,0,0,.38,7.82c1.43,13.37,10.74,23.29,21.6,23.29h0" transform="translate(0)"/></g></svg>