<svg xmlns="http://www.w3.org/2000/svg" viewBox="0 0 638.37 158.49"><defs><style>.cls-1{fill:#18a79d;}.cls-2{fill:#fff;}</style></defs><title>Asset 23</title><g id="Layer_2" data-name="Layer 2"><g id="Layer_1-2" data-name="Layer 1"><path class="cls-1" d="M338.31,48.37H298.48a1.92,1.92,0,0,1,0-3.84h39.83a1.92,1.92,0,0,1,0,3.84Z"/><path class="cls-1" d="M430.44,87.47H378.89a4.78,4.78,0,0,1-4.78-4.79V6.1a4.79,4.79,0,1,1,9.57,0V77.9h46.76a4.79,4.79,0,1,1,0,9.57Z"/><path class="cls-1" d="M462.36,88.66a4.78,4.78,0,0,1-4.78-4.79V7.28a4.79,4.79,0,1,1,9.57,0V83.87A4.78,4.78,0,0,1,462.36,88.66Z"/><path class="cls-1" d="M501.31,88.14a4.78,4.78,0,0,1-4.79-4.79v-77a4.78,4.78,0,0,1,4.79-4.79H551.9a4.79,4.79,0,1,1,0,9.58H506.1V83.35A4.79,4.79,0,0,1,501.31,88.14Z"/><path class="cls-1" d="M533.74,47.4h-29.5a4.79,4.79,0,0,1,0-9.58h29.5a4.79,4.79,0,0,1,0,9.58Z"/><path class="cls-1" d="M633.58,10H584a4.79,4.79,0,0,1,0-9.58h49.61a4.79,4.79,0,0,1,0,9.58Z"/><path class="cls-1" d="M633.58,88.41H583.25a4.79,4.79,0,0,1-4.79-4.79V5.16a4.79,4.79,0,1,1,9.58,0V78.83h45.54a4.79,4.79,0,0,1,0,9.58Z"/><path class="cls-1" d="M622.3,45.75H586.14a4.79,4.79,0,1,1,0-9.58H622.3a4.79,4.79,0,1,1,0,9.58Z"/><path class="cls-2" d="M123.82,92.9A47.38,47.38,0,0,1,90.43,79.33a45.91,45.91,0,0,1,0-65.76,47.86,47.86,0,0,1,66.78,0,4.79,4.79,0,0,1-6.7,6.84,38.29,38.29,0,0,0-53.37,0,36.3,36.3,0,0,0,0,52.08,38.29,38.29,0,0,0,53.37,0,4.79,4.79,0,1,1,6.7,6.84A47.38,47.38,0,0,1,123.82,92.9Z"/><path class="cls-2" d="M4.79,90.78A4.79,4.79,0,0,1,0,86V53.9a4.78,4.78,0,0,1,4.79-4.79H32.08c11.48,0,20.82-7,20.82-15.7v-6c0-8.66-9.34-15.7-20.82-15.7H4.79a4.79,4.79,0,0,1,0-9.58H32.08c16.76,0,30.4,11.34,30.4,25.28v6c0,13.94-13.64,25.28-30.4,25.28H9.58V86A4.8,4.8,0,0,1,4.79,90.78Z"/><path class="cls-2" d="M178,88.58a4.79,4.79,0,0,1-4.79-4.79V9.11a4.79,4.79,0,0,1,8.07-3.49L212.63,35l30-29.3a4.79,4.79,0,1,1,6.7,6.84L216.05,45a4.77,4.77,0,0,1-6.62.07L182.79,20.16V83.79A4.78,4.78,0,0,1,178,88.58Z"/><path class="cls-2" d="M248,88.58a4.79,4.79,0,0,1-4.79-4.79V33.27a4.79,4.79,0,1,1,9.58,0V83.79A4.78,4.78,0,0,1,248,88.58Z"/><path class="cls-2" d="M105.33,128.46a8.11,8.11,0,0,1,3.54,3,9.27,9.27,0,0,1,0,9.3,8,8,0,0,1-3.54,3,13,13,0,0,1-5.43,1.05H95.16v6.66H89.71V127.39H99.9A12.86,12.86,0,0,1,105.33,128.46Zm-2,10.77a3.79,3.79,0,0,0,1.28-3.08,3.83,3.83,0,0,0-1.28-3.12,5.57,5.57,0,0,0-3.73-1.09H95.16v8.38h4.43A5.57,5.57,0,0,0,103.32,139.23Z"/><path class="cls-2" d="M127.19,134.75q2.25,2.06,2.25,6.19v10.59h-4.91v-2.31q-1.47,2.58-5.51,2.58a8.39,8.39,0,0,1-3.61-.72,5.43,5.43,0,0,1-2.34-2,5.29,5.29,0,0,1-.8-2.9,4.9,4.9,0,0,1,1.89-4.07c1.27-1,3.23-1.48,5.87-1.48h4.17a3.51,3.51,0,0,0-1-2.71A4.54,4.54,0,0,0,120,137a8.94,8.94,0,0,0-2.84.46,7.42,7.42,0,0,0-2.37,1.26l-1.88-3.76a11.48,11.48,0,0,1,3.54-1.66,15.57,15.57,0,0,1,4.25-.58A9.29,9.29,0,0,1,127.19,134.75Zm-4.47,12.79a3.48,3.48,0,0,0,1.48-1.87v-1.9h-3.6c-2.15,0-3.23.72-3.23,2.17a2,2,0,0,0,.79,1.64,3.52,3.52,0,0,0,2.17.6A4.43,4.43,0,0,0,122.72,147.54Z"/><path class="cls-2" d="M145.84,150.63a5.3,5.3,0,0,1-1.9.88,9.62,9.62,0,0,1-2.37.29,6.92,6.92,0,0,1-5-1.69,6.57,6.57,0,0,1-1.76-5v-7.62H132v-4.14h2.79v-4.52h5.24v4.52h4.51v4.14h-4.51v7.55a2.53,2.53,0,0,0,.59,1.81,2.12,2.12,0,0,0,1.66.64,3.31,3.31,0,0,0,2.12-.69Z"/><path class="cls-2" d="M149.07,129.53a3,3,0,0,1,0-4.28,3.69,3.69,0,0,1,4.7,0,2.67,2.67,0,0,1,.91,2.07,3,3,0,0,1-.91,2.22,3.2,3.2,0,0,1-2.35.88A3.29,3.29,0,0,1,149.07,129.53ZM148.8,133H154v18.55H148.8Z"/><path class="cls-2" d="M176.53,143.77H162.85a4.32,4.32,0,0,0,1.75,2.72,5.66,5.66,0,0,0,3.43,1,6.72,6.72,0,0,0,2.5-.43,5.85,5.85,0,0,0,2-1.36l2.79,3.1q-2.55,3-7.46,3a11.63,11.63,0,0,1-5.41-1.22,8.84,8.84,0,0,1-3.63-3.4,10.17,10.17,0,0,1,0-9.84,9,9,0,0,1,3.46-3.42,10,10,0,0,1,4.93-1.22,9.92,9.92,0,0,1,4.81,1.17,8.41,8.41,0,0,1,3.37,3.37,10.16,10.16,0,0,1,1.23,5.08C176.63,142.39,176.59,142.87,176.53,143.77Zm-12.27-6a4.45,4.45,0,0,0-1.48,2.83h8.91a4.47,4.47,0,0,0-1.48-2.81,4.36,4.36,0,0,0-3-1A4.45,4.45,0,0,0,164.26,137.8Z"/><path class="cls-2" d="M196.54,134.77c1.38,1.38,2.07,3.42,2.07,6.14v10.62h-5.25v-9.8a5,5,0,0,0-.93-3.29,3.44,3.44,0,0,0-2.73-1.09,4.13,4.13,0,0,0-3.16,1.26,5.32,5.32,0,0,0-1.17,3.74v9.18h-5.25V133h5v2.17a7,7,0,0,1,2.59-1.81,8.71,8.71,0,0,1,3.39-.64A7.34,7.34,0,0,1,196.54,134.77Z"/><path class="cls-2" d="M215,150.63a5.3,5.3,0,0,1-1.9.88,9.62,9.62,0,0,1-2.37.29,6.92,6.92,0,0,1-5-1.69,6.57,6.57,0,0,1-1.76-5v-7.62H201.2v-4.14H204v-4.52h5.24v4.52h4.5v4.14h-4.5v7.55a2.53,2.53,0,0,0,.59,1.81,2.12,2.12,0,0,0,1.66.64,3.31,3.31,0,0,0,2.12-.69Z"/><path class="cls-2" d="M232.6,150.34a11.75,11.75,0,0,1-4.56-4.45A13.21,13.21,0,0,1,228,133a11.75,11.75,0,0,1,4.56-4.45,14.29,14.29,0,0,1,12.07-.5,11.1,11.1,0,0,1,4.15,3.17l-3.49,3.31a7.47,7.47,0,0,0-5.92-2.83,7.69,7.69,0,0,0-3.9,1,6.9,6.9,0,0,0-2.67,2.74,8.81,8.81,0,0,0,0,8,6.9,6.9,0,0,0,2.67,2.74,7.69,7.69,0,0,0,3.9,1,7.41,7.41,0,0,0,5.92-2.86l3.49,3.31a11,11,0,0,1-4.16,3.21,13.64,13.64,0,0,1-5.55,1.1A13.25,13.25,0,0,1,232.6,150.34Z"/><path class="cls-2" d="M265.73,134.75q2.25,2.06,2.25,6.19v10.59h-4.91v-2.31q-1.47,2.58-5.51,2.58a8.36,8.36,0,0,1-3.61-.72,5.43,5.43,0,0,1-2.34-2,5.3,5.3,0,0,1-.81-2.9,4.91,4.91,0,0,1,1.9-4.07c1.27-1,3.22-1.48,5.87-1.48h4.17a3.48,3.48,0,0,0-1.05-2.71,4.5,4.5,0,0,0-3.12-.94,8.94,8.94,0,0,0-2.84.46,7.42,7.42,0,0,0-2.37,1.26l-1.88-3.76a11.37,11.37,0,0,1,3.54-1.66,15.59,15.59,0,0,1,4.26-.58A9.3,9.3,0,0,1,265.73,134.75Zm-4.47,12.79a3.52,3.52,0,0,0,1.48-1.87v-1.9h-3.6c-2.15,0-3.23.72-3.23,2.17a2,2,0,0,0,.79,1.64,3.52,3.52,0,0,0,2.17.6A4.45,4.45,0,0,0,261.26,147.54Z"/><path class="cls-2" d="M280.27,133.39a9.17,9.17,0,0,1,3.67-.69v5c-.58,0-1-.08-1.17-.08a4.75,4.75,0,0,0-3.53,1.3,5.31,5.31,0,0,0-1.28,3.88v8.76h-5.24V133h5v2.44A5.83,5.83,0,0,1,280.27,133.39Z"/><path class="cls-2" d="M304.51,143.77H290.83a4.36,4.36,0,0,0,1.75,2.72,5.66,5.66,0,0,0,3.43,1,6.68,6.68,0,0,0,2.5-.43,6,6,0,0,0,2-1.36l2.79,3.1q-2.55,3-7.46,3a11.6,11.6,0,0,1-5.41-1.22,8.78,8.78,0,0,1-3.63-3.4,9.46,9.46,0,0,1-1.28-4.93,9.65,9.65,0,0,1,1.26-4.91,9,9,0,0,1,3.46-3.42,10,10,0,0,1,4.92-1.22,9.92,9.92,0,0,1,4.81,1.17,8.49,8.49,0,0,1,3.38,3.37,10.16,10.16,0,0,1,1.22,5.08C304.61,142.39,304.58,142.87,304.51,143.77Zm-12.26-6a4.45,4.45,0,0,0-1.48,2.83h8.9a4.46,4.46,0,0,0-1.47-2.81,4.77,4.77,0,0,0-5.95,0Z"/><path class="cls-2" d="M339.4,151.53l0-14.49L332.44,149H330l-6.89-11.63v14.18H318V127.39h4.51l8.8,15,8.67-15h4.47l.07,24.14Z"/><path class="cls-2" d="M363.47,134.75q2.25,2.06,2.25,6.19v10.59h-4.91v-2.31q-1.47,2.58-5.51,2.58a8.47,8.47,0,0,1-3.62-.72,5.46,5.46,0,0,1-2.33-2,5.29,5.29,0,0,1-.8-2.9,4.9,4.9,0,0,1,1.89-4.07c1.27-1,3.22-1.48,5.87-1.48h4.16a3.48,3.48,0,0,0-1-2.71,4.5,4.5,0,0,0-3.12-.94,8.89,8.89,0,0,0-2.84.46,7.42,7.42,0,0,0-2.37,1.26l-1.88-3.76a11.48,11.48,0,0,1,3.54-1.66,15.57,15.57,0,0,1,4.25-.58A9.29,9.29,0,0,1,363.47,134.75ZM359,147.54a3.42,3.42,0,0,0,1.47-1.87v-1.9h-3.59c-2.15,0-3.23.72-3.23,2.17a1.94,1.94,0,0,0,.79,1.64,3.52,3.52,0,0,0,2.17.6A4.45,4.45,0,0,0,359,147.54Z"/><path class="cls-2" d="M386.88,134.77c1.37,1.38,2.06,3.42,2.06,6.14v10.62H383.7v-9.8a5,5,0,0,0-.94-3.29,3.43,3.43,0,0,0-2.72-1.09,4.1,4.1,0,0,0-3.16,1.26,5.28,5.28,0,0,0-1.18,3.74v9.18h-5.24V133h5v2.17a7,7,0,0,1,2.59-1.81,8.76,8.76,0,0,1,3.4-.64A7.34,7.34,0,0,1,386.88,134.77Z"/><path class="cls-2" d="M407.43,134.75q2.25,2.06,2.25,6.19v10.59h-4.91v-2.31q-1.47,2.58-5.51,2.58a8.39,8.39,0,0,1-3.61-.72,5.43,5.43,0,0,1-2.34-2,5.29,5.29,0,0,1-.8-2.9,4.9,4.9,0,0,1,1.89-4.07c1.27-1,3.23-1.48,5.87-1.48h4.17a3.51,3.51,0,0,0-1-2.71,4.54,4.54,0,0,0-3.13-.94,8.94,8.94,0,0,0-2.84.46,7.42,7.42,0,0,0-2.37,1.26l-1.88-3.76a11.48,11.48,0,0,1,3.54-1.66,15.57,15.57,0,0,1,4.25-.58A9.29,9.29,0,0,1,407.43,134.75ZM403,147.54a3.48,3.48,0,0,0,1.48-1.87v-1.9h-3.6c-2.15,0-3.23.72-3.23,2.17a2,2,0,0,0,.79,1.64,3.52,3.52,0,0,0,2.17.6A4.43,4.43,0,0,0,403,147.54Z"/><path class="cls-2" d="M433.27,133v15.44c0,3.41-.86,5.93-2.58,7.59s-4.25,2.48-7.56,2.48a18.72,18.72,0,0,1-5-.65,10.76,10.76,0,0,1-3.9-1.9l2.08-3.86a8.66,8.66,0,0,0,2.9,1.53,11.14,11.14,0,0,0,3.49.57,5.57,5.57,0,0,0,4-1.26,5.08,5.08,0,0,0,1.29-3.8v-.8a7.23,7.23,0,0,1-5.71,2.31,9.39,9.39,0,0,1-4.56-1.12,8.41,8.41,0,0,1-3.27-3.16,9.67,9.67,0,0,1,0-9.37,8.41,8.41,0,0,1,3.27-3.16,9.39,9.39,0,0,1,4.56-1.12,7.1,7.1,0,0,1,6,2.65V133Zm-6.5,12a4.75,4.75,0,0,0,0-6.59,4.74,4.74,0,0,0-3.41-1.26,4.82,4.82,0,0,0-3.43,1.26,4.72,4.72,0,0,0,0,6.59,4.82,4.82,0,0,0,3.43,1.26A4.74,4.74,0,0,0,426.77,145Z"/><path class="cls-2" d="M455.76,143.77H442.08a4.32,4.32,0,0,0,1.75,2.72,5.66,5.66,0,0,0,3.43,1,6.72,6.72,0,0,0,2.5-.43,5.85,5.85,0,0,0,2-1.36l2.79,3.1q-2.55,3-7.46,3a11.63,11.63,0,0,1-5.41-1.22,8.84,8.84,0,0,1-3.63-3.4,10.17,10.17,0,0,1,0-9.84,9,9,0,0,1,3.46-3.42,10,10,0,0,1,4.93-1.22,9.92,9.92,0,0,1,4.81,1.17,8.41,8.41,0,0,1,3.37,3.37,10.16,10.16,0,0,1,1.23,5.08C455.86,142.39,455.82,142.87,455.76,143.77Zm-12.27-6a4.45,4.45,0,0,0-1.48,2.83h8.91a4.47,4.47,0,0,0-1.48-2.81,4.36,4.36,0,0,0-3-1A4.45,4.45,0,0,0,443.49,137.8Z"/><path class="cls-2" d="M487.91,134.75q2,2.06,2,6.16v10.62h-5.25v-9.8a5.09,5.09,0,0,0-.89-3.29,3.11,3.11,0,0,0-2.54-1.09,3.68,3.68,0,0,0-2.92,1.23,5.35,5.35,0,0,0-1.08,3.64v9.31H472v-9.8q0-4.38-3.42-4.38a3.66,3.66,0,0,0-2.9,1.23,5.4,5.4,0,0,0-1.07,3.64v9.31h-5.25V133h5v2.13a6.69,6.69,0,0,1,2.47-1.79,8.24,8.24,0,0,1,3.21-.62,7.65,7.65,0,0,1,3.46.77,6.23,6.23,0,0,1,2.49,2.26,7.46,7.46,0,0,1,2.81-2.24,8.78,8.78,0,0,1,3.71-.79A7.24,7.24,0,0,1,487.91,134.75Z"/><path class="cls-2" d="M512.43,143.77H498.75a4.32,4.32,0,0,0,1.75,2.72,5.61,5.61,0,0,0,3.42,1,6.77,6.77,0,0,0,2.51-.43,5.94,5.94,0,0,0,2-1.36l2.79,3.1q-2.55,3-7.46,3a11.63,11.63,0,0,1-5.41-1.22,8.84,8.84,0,0,1-3.63-3.4,10.17,10.17,0,0,1,0-9.84,9,9,0,0,1,3.46-3.42,10,10,0,0,1,4.93-1.22,9.86,9.86,0,0,1,4.8,1.17,8.43,8.43,0,0,1,3.38,3.37,10.16,10.16,0,0,1,1.23,5.08C512.53,142.39,512.49,142.87,512.43,143.77Zm-12.27-6a4.45,4.45,0,0,0-1.48,2.83h8.91a4.52,4.52,0,0,0-1.48-2.81,4.77,4.77,0,0,0-5.95,0Z"/><path class="cls-2" d="M532.44,134.77c1.38,1.38,2.07,3.42,2.07,6.14v10.62h-5.25v-9.8a4.91,4.91,0,0,0-.94-3.29,3.4,3.4,0,0,0-2.72-1.09,4.11,4.11,0,0,0-3.16,1.26,5.33,5.33,0,0,0-1.18,3.74v9.18H516V133h5v2.17a6.88,6.88,0,0,1,2.59-1.81,8.71,8.71,0,0,1,3.39-.64A7.34,7.34,0,0,1,532.44,134.77Z"/><path class="cls-2" d="M550.91,150.63a5.3,5.3,0,0,1-1.9.88,9.62,9.62,0,0,1-2.37.29,6.92,6.92,0,0,1-5-1.69,6.53,6.53,0,0,1-1.76-5v-7.62h-2.8v-4.14h2.8v-4.52h5.24v4.52h4.5v4.14h-4.5v7.55a2.53,2.53,0,0,0,.59,1.81,2.12,2.12,0,0,0,1.66.64,3.33,3.33,0,0,0,2.12-.69Z"/></g></g></svg>