<svg xmlns="http://www.w3.org/2000/svg" width="122" height="76.998" viewBox="0 0 122 76.998"><defs><style>.a{fill:#919191;font-size:12px;font-family:Sarabun-Regular, Sarabun;}.b{fill:#8bbf19;}.c{fill:#ffd41f;}.d{fill:#ff6a4d;}.e{fill:#ff9c00;}.f{fill:#e5e5e5;}.g{fill:#7a7a7a;}.h{fill:#444;}.i{fill:#6b98c1;}</style></defs><g transform="translate(-594 -670.002)"><text class="a" transform="translate(594 744)"><tspan x="0" y="0">Poor</tspan></text><text class="a" transform="translate(688 744)"><tspan x="0" y="0">Good</tspan></text><g transform="translate(597.196 670.002)"><path class="b" d="M1009.095,241.473c0,.027,0,.054,0,.081h20.563c0-.027,0-.054,0-.081a58.232,58.232,0,0,0-17.061-41.245l-14.54,14.54A37.576,37.576,0,0,1,1009.095,241.473Z" transform="translate(-912.882 -183.086)"/><path class="c" d="M925.706,168.451l.04.041,14.54-14.54-.04-.041a58.236,58.236,0,0,0-41.287-17.1v20.562A37.578,37.578,0,0,1,925.706,168.451Z" transform="translate(-840.571 -136.81)"/><path class="d" d="M703.517,241.473a37.575,37.575,0,0,1,11.039-26.705l-14.54-14.54a58.231,58.231,0,0,0-17.061,41.245c0,.027,0,.054,0,.081h20.563C703.518,241.527,703.517,241.5,703.517,241.473Z" transform="translate(-682.955 -183.086)"/><path class="e" d="M760.653,168.451A37.578,37.578,0,0,1,787.4,157.372V136.81a58.237,58.237,0,0,0-41.286,17.1l-.04.041,14.54,14.54Z" transform="translate(-729.012 -136.81)"/></g><circle class="f" cx="13.108" cy="13.108" r="13.108" transform="translate(642.475 715.282)"/><g transform="translate(643.103 673.536)"><path class="g" d="M883.046,210.743h0a5.9,5.9,0,0,1-5.877-6.354l5.877-54.506,5.877,54.506A5.9,5.9,0,0,1,883.046,210.743Z" transform="translate(-870.566 -149.883)"/><circle class="h" cx="9.972" cy="9.972" r="9.972" transform="translate(0 48.748) rotate(-18.978)"/><circle class="i" cx="5.453" cy="5.453" r="5.453" transform="matrix(0.266, -0.964, 0.964, 0.266, 5.965, 58.741)"/></g></g></svg>