<svg xmlns="http://www.w3.org/2000/svg" xmlns:xlink="http://www.w3.org/1999/xlink" viewBox="0 0 100 100"><defs><style>.cls-1{fill:url(#linear-gradient);}.cls-2{fill:#fff;}.cls-3{fill:#7a8e9b;}.cls-4{fill:#e2e2e2;}.cls-5{fill:#525c6b;}.cls-6{fill:#262262;}</style><linearGradient id="linear-gradient" y1="50" x2="100" y2="50" gradientUnits="userSpaceOnUse"><stop offset="0" stop-color="#1a3388"/><stop offset="1" stop-color="#3147ff"/></linearGradient></defs><title>setting-icon</title><g id="new_bg_color" data-name="new bg color"><rect class="cls-1" width="100" height="100"/></g><g id="setting"><path class="cls-2" d="M72.78,19.41H27.21a6.39,6.39,0,0,0-6.39,6.37V69.87a6.41,6.41,0,0,0,6.39,6.41H33V84.4l12.11-8.12H72.78a6.41,6.41,0,0,0,6.4-6.41V25.78A6.39,6.39,0,0,0,72.78,19.41Z" transform="translate(0)"/><path class="cls-3" d="M71.19,31.66l-2.33-2.31L66.55,27l-3.93,5.47.64.64L41.49,54.9a1.42,1.42,0,0,0-.36.91,1.36,1.36,0,0,0,.36.91,1.42,1.42,0,0,0,.91.38,1.35,1.35,0,0,0,.89-.38L65.06,35l.64.65Z" transform="translate(0)"/><path class="cls-4" d="M44.77,58.18,40,53.44a1.33,1.33,0,0,0-1.9,0l-8.92,8.92a4.35,4.35,0,0,0,0,6.17l.47.47a4.39,4.39,0,0,0,6.17,0l8.92-8.92A1.35,1.35,0,0,0,44.77,58.18Z" transform="translate(0)"/><path class="cls-5" d="M44.77,58.18,40,53.44a1.33,1.33,0,0,0-1.9,0L35,56.57l6.64,6.64,3.13-3.13A1.35,1.35,0,0,0,44.77,58.18Z" transform="translate(0)"/><path class="cls-5" d="M70.26,57.39a7.82,7.82,0,0,0-7.39-2.08l-20-19.94a7.83,7.83,0,0,0-10.26-9.24L38.55,32h0a6.52,6.52,0,0,1-4.73,4.74l-5.89-5.91a7.82,7.82,0,0,0,9.22,10.26l20,19.94a7.84,7.84,0,1,0,13.16-3.68Z" transform="translate(0)"/><path class="cls-6" d="M66.87,65.08a3,3,0,1,1,0-4.3A3,3,0,0,1,66.87,65.08Z" transform="translate(0)"/></g></svg>