<svg xmlns="http://www.w3.org/2000/svg" width="69.083" height="48.491" viewBox="0 0 69.083 48.491">
  <g id="symptom-icon" transform="translate(-300.518 -650.487)">
    <path id="Path_1008" data-name="Path 1008" d="M303.621,652.023a3.1,3.1,0,0,0-3.1,3.1v35.225a3.1,3.1,0,0,0,3.1,3.1h62.874a3.105,3.105,0,0,0,3.106-3.1V655.127a3.1,3.1,0,0,0-3.106-3.1H341.417v3.145H328.7v-3.145Zm61.805,5v31.473H304.692V657.021Z" transform="translate(0 5.524)" fill="#616e7d"/>
    <path id="Path_1009" data-name="Path 1009" d="M302.307,685.639h60.734V654.166H302.307Zm30.068-24.819h26.417v4.505H332.375Zm0,7.2h26.417v1.792H332.375Zm0,4.589h26.417V674.4H332.375Zm0,4.587h26.417v1.79H332.375ZM317.9,656.849a7.469,7.469,0,1,1-7.469,7.469A7.47,7.47,0,0,1,317.9,656.849Zm-11.344,22.663a7.022,7.022,0,0,1,7.021-7.021h8.645a7.02,7.02,0,0,1,7.021,7.021v3.406H306.554Z" transform="translate(2.385 8.379)" fill="#fff"/>
    <path id="Path_1010" data-name="Path 1010" d="M305.788,662.785a7.469,7.469,0,1,0,7.469-7.469A7.468,7.468,0,0,0,305.788,662.785Z" transform="translate(7.026 9.912)" fill="#6b98c1"/>
    <path id="Path_1011" data-name="Path 1011" d="M319.792,662.02h-8.645a7.022,7.022,0,0,0-7.021,7.021v3.407h22.686V669.04A7.02,7.02,0,0,0,319.792,662.02Zm-1.829,9.51H312.4l-1.61-8.456c.159-.012.315-.023.476-.023h7.83c.163,0,.32.012.478.023Z" transform="translate(4.812 18.851)" fill="#616e7d"/>
    <path id="Path_1012" data-name="Path 1012" d="M308.981,663.66h0l-.865,5.684Z" transform="translate(10.131 21.036)" fill="#616e7d"/>
    <rect id="Rectangle_2521" data-name="Rectangle 2521" width="26.417" height="4.506" transform="translate(334.76 669.198)" fill="#616e7d"/>
    <rect id="Rectangle_2522" data-name="Rectangle 2522" width="26.417" height="1.79" transform="translate(334.76 676.399)" fill="#6b98c1"/>
    <rect id="Rectangle_2523" data-name="Rectangle 2523" width="26.417" height="1.79" transform="translate(334.76 680.987)" fill="#6b98c1"/>
    <rect id="Rectangle_2524" data-name="Rectangle 2524" width="26.417" height="1.79" transform="translate(334.76 685.574)" fill="#6b98c1"/>
    <path id="Path_1015" data-name="Path 1015" d="M312.6,656.037v3.1h16.06V648.928H312.6Z" transform="translate(12.76 1.559)" fill="#6b98c1"/>
    <path id="Path_1016" data-name="Path 1016" d="M319.792,662.02h-8.645a7.022,7.022,0,0,0-7.021,7.021v3.407h22.686V669.04A7.02,7.02,0,0,0,319.792,662.02Zm-1.829,9.51H312.4l-1.61-8.456c.159-.012.315-.023.476-.023h7.83c.163,0,.32.012.478.023Z" transform="translate(4.812 18.851)" fill="#6b98c1"/>
    <rect id="Rectangle_2525" data-name="Rectangle 2525" width="10" height="10" transform="translate(315.518 680.928)" fill="#6b98c1"/>
    <path id="Path_1017" data-name="Path 1017" d="M1054.787,924.659v-2.3h2.3v-1.992h-2.3v-2.3h-1.992v2.3h-2.3v1.992h2.3v2.3Z" transform="translate(-720.404 -265.772)" fill="#fff"/>
  </g>
</svg>
