<svg xmlns="http://www.w3.org/2000/svg" xmlns:xlink="http://www.w3.org/1999/xlink" viewBox="0 0 100 100"><defs><style>.cls-1{fill:url(#linear-gradient);}.cls-2{fill:#fff;}.cls-3{fill:#e2e2e2;}.cls-4{fill:#262262;}.cls-5{fill:#d1d3d4;}.cls-6{fill:#7a8e9b;}</style><linearGradient id="linear-gradient" y1="50" x2="100" y2="50" gradientUnits="userSpaceOnUse"><stop offset="0" stop-color="#1a3388"/><stop offset="1" stop-color="#3147ff"/></linearGradient></defs><title>tele-icon</title><g id="new_bg_color" data-name="new bg color"><rect class="cls-1" width="100" height="100"/></g><g id="tele"><path class="cls-2" d="M50.07,77.11V74.85c14.06,0,20.06-4.12,20.06-13.73h2.74c0,14.76-13,16.07-22.8,16.07" transform="translate(0)"/><path class="cls-2" d="M74.2,52.84H71.47V44.37a21.47,21.47,0,1,0-42.94,0v8.47H25.8V44.37a24.2,24.2,0,1,1,48.4,0Z" transform="translate(0)"/><path class="cls-3" d="M62.35,52.84A12.35,12.35,0,1,1,50,40.47,12.36,12.36,0,0,1,62.35,52.84Z" transform="translate(0)"/><path class="cls-4" d="M56.42,50.45H52.37v-4A1.35,1.35,0,0,0,51,45.06H49a1.35,1.35,0,0,0-1.36,1.36v4H43.57a1.35,1.35,0,0,0-1.34,1.35v2.05a1.35,1.35,0,0,0,1.34,1.35h4.06v4.06A1.36,1.36,0,0,0,49,60.62h2a1.36,1.36,0,0,0,1.35-1.36V55.2h4.05a1.35,1.35,0,0,0,1.35-1.35V51.8A1.35,1.35,0,0,0,56.42,50.45Z" transform="translate(0)"/><path class="cls-5" d="M28.88,42.62H28A7.36,7.36,0,0,0,20.73,50v5.17A7.34,7.34,0,0,0,28,62.45h.84a2.77,2.77,0,0,0,2.75-2.76V45.38A2.77,2.77,0,0,0,28.88,42.62Z" transform="translate(0)"/><path class="cls-5" d="M72,42.62h-.84a2.77,2.77,0,0,0-2.75,2.76V59.69a2.77,2.77,0,0,0,2.75,2.76H72a7.34,7.34,0,0,0,7.31-7.33V50A7.36,7.36,0,0,0,72,42.62Z" transform="translate(0)"/><path class="cls-6" d="M56,77.19v-.55c0-1.88-1.24-3.39-2.75-3.39h-6.4c-1.51,0-2.74,1.51-2.74,3.39v.55" transform="translate(0)"/></g></svg>