<svg xmlns="http://www.w3.org/2000/svg" width="33.744" height="47.08" viewBox="0 0 33.744 47.08"><defs><style>.a{fill:#6b98c1;}.a,.b,.c{fill-rule:evenodd;}.b{fill:#546f88;}.c{fill:#dcdcdc;}</style></defs><g transform="translate(-378.111 -369.46)"><path class="a" d="M410.055,376h7.218a1.608,1.608,0,0,0,1.549-1.545,1.557,1.557,0,0,0-1.549-1.549h-7.218a1.557,1.557,0,0,0-1.549,1.549A1.607,1.607,0,0,0,410.055,376Z" transform="translate(-6.967 -0.789)"/><path class="a" d="M417.272,382.27h-7.218a1.51,1.51,0,1,0,0,3.02h7.218a1.51,1.51,0,1,0,0-3.02Z" transform="translate(-6.967 -2.936)"/><path class="a" d="M417.272,391.446h-7.218a1.584,1.584,0,0,0,0,3.168h7.218a1.584,1.584,0,0,0,0-3.168Z" transform="translate(-6.967 -5.039)"/><path class="a" d="M417.437,400.145h-7a1.547,1.547,0,1,0,0,3.094h7a1.549,1.549,0,0,0,0-3.094Z" transform="translate(-7.054 -7.033)"/><path class="b" d="M398.224,378.155a8.658,8.658,0,1,0-17.316,0v19.45a11.2,11.2,0,0,0-2.8,7.514,11.458,11.458,0,0,0,22.915,0,11.175,11.175,0,0,0-2.8-7.514Z" transform="translate(0)"/><path class="c" d="M390.447,414.366a8.391,8.391,0,0,1-6.041-14.146,1.5,1.5,0,0,0,.441-1.1V379.076a5.6,5.6,0,1,1,11.2,0v20.041a1.481,1.481,0,0,0,.447,1.1,8.338,8.338,0,0,1-6.046,14.146Z" transform="translate(-0.919 -0.92)"/><path class="a" d="M393.979,404.457l.072-13.778a2.579,2.579,0,1,0-5.157,0l-.148,13.778a5.516,5.516,0,0,0-2.8,4.788,5.414,5.414,0,1,0,10.828,0,5.512,5.512,0,0,0-2.8-4.788Z" transform="translate(-1.796 -4.272)"/></g></svg>