<svg id="Group_748" data-name="Group 748" xmlns="http://www.w3.org/2000/svg" width="66.365" height="39" viewBox="0 0 66.365 39">
  <g id="Group_744" data-name="Group 744">
    <path id="Path_735" data-name="Path 735" d="M288.976,264.181l2.066-1.422,1.024-.726.255-.183.265-.2.5-.384c.674-.513,1.334-1.029,1.99-1.56,1.311-1.042,2.575-2.132,3.861-3.17.642-.536,1.289-1.038,1.935-1.546s1.291-.993,1.935-1.488c.662-.445,1.228-.87,1.94-1.284l1.094-.61a4.384,4.384,0,0,1,.821-.3,2.969,2.969,0,0,1,1.671.05,9.176,9.176,0,0,1,1.935.927,20.829,20.829,0,0,0,2.387,1.259,6.515,6.515,0,0,0,2.946.5h.066a6.475,6.475,0,0,0,2.937-.5,20.368,20.368,0,0,0,2.39-1.255,9.267,9.267,0,0,1,1.933-.927l.434-.111c.138,0,.274-.018.416-.036.136,0,.271.018.409.018a3.415,3.415,0,0,1,.346.059,4.575,4.575,0,0,1,.947.344l1,.556c.665.389,1.32.866,1.976,1.311.647.5,1.3.972,1.938,1.488s1.291,1.008,1.935,1.546c1.289,1.038,2.541,2.123,3.868,3.174.658.534,1.318,1.047,1.978,1.555s1.363,1.011,2.048,1.488l2.075,1.436c.687.477,1.415.9,2.127,1.345,1.42.893,2.892,1.7,4.386,2.46-.671-.5-1.316-1.033-1.965-1.553s-1.291-1.06-1.926-1.594c-.626-.552-1.293-1.047-1.906-1.612l-1.856-1.657c-.628-.556-1.241-1.067-1.845-1.655s-1.216-1.149-1.8-1.723l-3.611-3.466c-.6-.579-1.234-1.144-1.861-1.718s-1.309-1.1-1.96-1.65c-.692-.522-1.372-1.06-2.127-1.546l-1.16-.705-.14-.088-.244-.111-.285-.129a3.554,3.554,0,0,0-.687-.256,5.874,5.874,0,0,0-1.716-.265l-.83.066c-.267.05-.525.111-.784.172a12.271,12.271,0,0,0-2.6,1.167,17.828,17.828,0,0,1-2.044,1.056,3.241,3.241,0,0,1-1.668.255l-.066.968-.068-.981H315.6l-.066.981-.066-.968a3.308,3.308,0,0,1-1.671-.26,18.7,18.7,0,0,1-2.042-1.051,12.1,12.1,0,0,0-2.593-1.167,5.749,5.749,0,0,0-3.265,0,4.372,4.372,0,0,0-.751.278l-.359.16-.086.043-.047.018-.018.009-.09.047-.133.084-1.065.656c-.708.454-1.476,1.044-2.166,1.567-.651.556-1.338,1.076-1.962,1.65s-1.255,1.135-1.856,1.723l-3.615,3.466c-.595.583-1.191,1.158-1.8,1.714l-.45.427-.21.2-.235.208-.945.825-1.867,1.675c-.619.561-1.275,1.047-1.9,1.6-.635.534-1.264,1.081-1.924,1.585-.651.529-1.291,1.065-1.962,1.562,1.5-.755,2.966-1.567,4.388-2.464C287.56,265.09,288.3,264.654,288.976,264.181Z" transform="translate(-282.453 -248.261)" fill="#6b98c1"/>
  </g>
  <g id="Group_745" data-name="Group 745" transform="translate(1.748 16.112)">
    <path id="Path_736" data-name="Path 736" d="M334.778,259.854a6.672,6.672,0,0,0,1.065.452,11.9,11.9,0,0,0,2.1.493,30.778,30.778,0,0,0,8.15-.14c-1.341-.129-2.67-.31-3.986-.509a29.933,29.933,0,0,1-3.852-.83,10.865,10.865,0,0,1-1.748-.649,4.607,4.607,0,0,1-.735-.425l-.922-.556-.864-.511-1.042-.407-1.058-.4c-.353-.111-.7-.167-1.042-.255a16.469,16.469,0,0,0-2.08-.423c-.7-.081-1.4-.17-2.1-.222l-2.08-.066c-.7-.045-1.381.016-2.071.025-.685.032-1.381.041-2.057.12l-2.042.212c-1.3.131-2.573.339-3.857.511-1.291-.1-2.557-.172-3.832-.233-1.345-.045-2.686-.115-4.04-.088-1.343.009-2.7.052-4.054.131-.671.041-1.357.1-2.03.161-.685.1-1.361.163-2.044.3a20.359,20.359,0,0,0-2.051.439,6.94,6.94,0,0,0-1.035.316,6.409,6.409,0,0,0-1.029.43l-.515.3-.251.145-.174.106-.418.265-.364.172a11.53,11.53,0,0,1-1.725.633,31.372,31.372,0,0,1-3.819.807c-1.307.2-2.623.38-3.954.509a30.643,30.643,0,0,0,8.082.154,11.991,11.991,0,0,0,2.1-.477l.561-.2.452-.21.113-.054.029-.009.014-.009.066-.038.05-.018.194-.075.375-.156a6.478,6.478,0,0,1,.841-.228,5.007,5.007,0,0,1,.891-.185,18.524,18.524,0,0,1,1.874-.231c.626-.066,1.282-.066,1.922-.106l1.942-.038c1.3,0,2.607.023,3.911.084s2.62.106,3.929.185,2.625.185,3.907.31a1.4,1.4,0,0,0,.364-.009l.034,0c1.307-.194,2.6-.439,3.909-.6l1.951-.233c.651-.093,1.3-.1,1.949-.17.647-.043,1.3-.14,1.947-.131l1.933-.05c.642.014,1.273.077,1.915.093a14.022,14.022,0,0,1,1.881.213c.305.045.631.075.927.14l.848.235.861.226.916.414.464.2.231.1.115.052.029.014h0l-.063-.038.016.009Z" transform="translate(-283.226 -255.388)" fill="#6b98c1"/>
  </g>
  <g id="Group_746" data-name="Group 746" transform="translate(0 25.863)">
    <path id="Path_737" data-name="Path 737" d="M342.844,262.651c-1.234.592-2.632,1.25-4.128,2-.755.375-1.535.76-2.344,1.16-.785.4-1.594.814-2.43,1.232l-2.758,1.11c-.909.256-1.833.511-2.781.775a37.2,37.2,0,0,1-6.159.8c-2.143.145-4.291.052-6.608.009-2.29.043-4.481.136-6.608-.009a37.751,37.751,0,0,1-6.161-.809c-.972-.237-1.9-.565-2.844-.807-.9-.353-1.779-.708-2.632-1.047-1.655-.843-3.337-1.691-4.836-2.424-1.506-.76-2.9-1.422-4.144-2.01s-2.3-1.121-3.176-1.567c-1.754-.884-2.781-1.37-2.781-1.37s.886.7,2.467,1.895c.8.6,1.752,1.338,2.912,2.066,1.139.769,2.433,1.621,3.857,2.525,1.436.92,2.914,1.89,4.642,2.919.907.45,1.838.916,2.788,1.384.995.366,2.014.733,3.07,1.063a33.454,33.454,0,0,0,6.651,1.148c2.288.19,4.6.133,6.8.115,2.17.014,4.522.07,6.8-.115a33.707,33.707,0,0,0,6.649-1.153c1.074-.33,2.127-.714,3.136-1.09.911-.45,1.8-.891,2.666-1.325l.079-.041.077-.043.025-.009.036-.023.154-.1.307-.19.608-.38c.4-.251.793-.5,1.182-.742.773-.491,1.519-.97,2.234-1.427,1.433-.909,2.727-1.77,3.871-2.53,1.164-.733,2.109-1.47,2.9-2.062,1.578-1.187,2.462-1.89,2.462-1.89s-1.024.486-2.785,1.375C345.153,261.525,344.09,262.077,342.844,262.651Z" transform="translate(-282.453 -259.701)" fill="#6b98c1"/>
  </g>
  <g id="Group_747" data-name="Group 747" transform="translate(31.801 21.396)">
    <path id="Path_738" data-name="Path 738" d="M297.706,261.874c.075-.753.108-1.47.147-2.082.072-1.232.047-2.066.047-2.066a17.522,17.522,0,0,0-.629,1.969c-.169.6-.312,1.307-.461,2.066a11.044,11.044,0,0,0-.179,1.191c-.038.425-.077.857-.113,1.289.036.407.075.818.113,1.221a9.671,9.671,0,0,0,.179,1.182c.145.778.292,1.492.461,2.084a17.635,17.635,0,0,0,.629,1.974s.029-.834-.047-2.066c-.038-.619-.072-1.32-.142-2.071s-.106-1.569-.17-2.381c.025-.384.05-.769.079-1.149S297.668,262.253,297.706,261.874Z" transform="translate(-296.519 -257.725)" fill="#6b98c1"/>
  </g>
</svg>
