<svg xmlns="http://www.w3.org/2000/svg" width="52.491" height="52.492" viewBox="0 0 52.491 52.492">
  <g id="Group_829" data-name="Group 829" transform="translate(-791.315 -969.004)">
    <path id="Path_752" data-name="Path 752" d="M798.017,969a6.7,6.7,0,0,0-6.7,6.7V1014.8a6.7,6.7,0,0,0,6.7,6.7H837.1a6.7,6.7,0,0,0,6.7-6.7V975.708a6.7,6.7,0,0,0-6.7-6.7Zm41.458,9.607v33.281a5.273,5.273,0,0,1-5.275,5.273H800.92a5.273,5.273,0,0,1-5.275-5.273V978.611a5.275,5.275,0,0,1,5.275-5.275H834.2A5.275,5.275,0,0,1,839.475,978.611Z" fill="#616e7d"/>
    <rect id="Rectangle_2247" data-name="Rectangle 2247" height="0.287" transform="translate(805.551 975.759)" fill="#aad4c8"/>
    <g id="Group_827" data-name="Group 827" transform="translate(794.281 972.29)">
      <path id="Path_753" data-name="Path 753" d="M804.324,983.976a1.335,1.335,0,0,0,.941.691v.028h.2c.02,0,.039.008.062.008h15.881c.02,0,.039-.008.059-.008h.272v-.038a1.331,1.331,0,0,0,.874-.682l2.812-5.52a1.28,1.28,0,0,0-.412-1.64c-1.54-1.072-5.148-2.991-11.3-3l-.007,0h-.464a.42.42,0,0,0-.1.021,21.077,21.077,0,0,0-11.17,3,1.282,1.282,0,0,0-.447,1.667Z" transform="translate(-790.2 -970.344)" fill="#6b98c1"/>
      <g id="Group_826" data-name="Group 826" transform="translate(0 0)">
        <path id="Path_754" data-name="Path 754" d="M827.684,976.816c-1.714-1.072-5.729-2.991-12.572-3l-.008,0h-.516a.511.511,0,0,0-.113.021c-6.561.105-10.655,1.953-12.431,3a1.21,1.21,0,0,0-.5,1.667l3.109,5.483a1.482,1.482,0,0,0,1.048.691v.028h.225c.022,0,.044.008.069.008h17.674c.022,0,.044-.008.066-.008h.3v-.038a1.467,1.467,0,0,0,.973-.682l3.129-5.52A1.2,1.2,0,0,0,827.684,976.816Z" transform="translate(-791.565 -971.389)" fill="#6b98c1"/>
        <path id="Path_755" data-name="Path 755" d="M835.353,972.087H800a5.566,5.566,0,0,0-5.6,5.526v34.868a5.563,5.563,0,0,0,5.6,5.525h35.353a5.564,5.564,0,0,0,5.6-5.525V977.613A5.566,5.566,0,0,0,835.353,972.087Zm-4.984,7.4-2.987,5.784a1.411,1.411,0,0,1-.928.714v.04h-.289c-.021,0-.042.009-.063.009H809.232c-.024,0-.045-.009-.066-.009h-.215V986a1.416,1.416,0,0,1-1-.724l-2.967-5.744a1.333,1.333,0,0,1,.475-1.746c1.7-1.094,5.6-3.03,11.866-3.14a.453.453,0,0,1,.108-.022h.488l.012,0c6.532.013,10.365,2.024,12,3.147A1.331,1.331,0,0,1,830.37,979.49Z" transform="translate(-794.397 -972.087)" fill="#6b98c1"/>
      </g>
    </g>
    <g id="Group_828" data-name="Group 828" transform="translate(803.245 975.754)">
      <path id="Path_756" data-name="Path 756" d="M826.846,986l3.372-6.62a1.533,1.533,0,0,0-.494-1.965c-1.847-1.287-6.174-3.587-13.548-3.6a.629.629,0,0,1,.627.62v7.284a.632.632,0,0,1-.64.624h-.551a.633.633,0,0,1-.641-.624v-7.284a.617.617,0,0,1,.519-.6c-7.07.128-11.482,2.342-13.4,3.6a1.535,1.535,0,0,0-.536,2l3.35,6.575a1.6,1.6,0,0,0,1.129.831v-1.52a.335.335,0,1,1,.669,0v1.554h-.426c.024,0,.047.01.074.01H825.4c.024,0,.047-.01.071-.01h-.342v-1.554a.334.334,0,1,1,.669,0v1.508A1.6,1.6,0,0,0,826.846,986Zm-18.4.865h-.667v-3.119a.334.334,0,0,1,.667,0Zm1.734,0h-.667v-1.554a.334.334,0,1,1,.667,0Zm1.735,0h-.666v-1.554a.333.333,0,1,1,.666,0Zm1.736,0h-.669v-3.119a.334.334,0,0,1,.669,0Zm1.737,0h-.669v-1.554a.335.335,0,1,1,.669,0Zm1.734,0h-.667v-1.554a.334.334,0,1,1,.667,0Zm1.736,0h-.667v-3.119a.334.334,0,0,1,.667,0Zm1.735,0h-.667v-1.554a.334.334,0,1,1,.667,0Zm1.736,0h-.667v-1.554a.334.334,0,1,1,.667,0Zm1.737,0h-.669v-3.119a.334.334,0,0,1,.669,0Z" transform="translate(-801.389 -973.808)" fill="#fff"/>
      <path id="Path_757" data-name="Path 757" d="M810.641,973.808h-.551a.6.6,0,0,0-.121.024.617.617,0,0,0-.519.6v7.284a.633.633,0,0,0,.64.622h.551a.632.632,0,0,0,.64-.622v-7.284a.629.629,0,0,0-.627-.622Z" transform="translate(-795.866 -973.808)" fill="#616e7d"/>
    </g>
  </g>
</svg>
